<svg xmlns="http://www.w3.org/2000/svg" width="17.461" height="21.664" viewBox="0 0 17.461 21.664"><defs><style>.a{fill:#ed1c24;stroke:#ed1c24;stroke-width:0.4px;}</style></defs><g transform="translate(0.2 0.202)"><path class="a" d="M16.989,6.972h-2.4a13.234,13.234,0,0,0-.379-2.133C13.5,2.224,12.044.589,9.982.109a4.217,4.217,0,0,0-1.9,0c-2.062.48-3.523,2.116-4.224,4.73a13.252,13.252,0,0,0-.379,2.133H1.07A.571.571,0,0,0,.5,7.542v7.921a.312.312,0,1,0,.623,0V7.595h2.3c-.017.313-.02.568-.019.745a.517.517,0,0,0-.273.339l-.652,2.606a.518.518,0,0,0,.051.381l.611,1.086a.52.52,0,0,0,.453.265H4.935a.52.52,0,0,0,.453-.265L6,11.666a.518.518,0,0,0,.051-.381L5.4,8.679a.518.518,0,0,0-.247-.326q.018-.393.047-.758h.924a.312.312,0,1,0,0-.623H5.259a11.377,11.377,0,0,1,.406-2.026A4.767,4.767,0,0,1,7.652,2.112,2.581,2.581,0,0,1,9.608,1.8a3.239,3.239,0,0,1,1.7,1.1A7.712,7.712,0,0,1,12.8,6.972H8.046a.312.312,0,0,0,0,.623h4.817c.02.258.035.512.045.758a.519.519,0,0,0-.248.326l-.652,2.606a.517.517,0,0,0,.051.38l.611,1.086a.52.52,0,0,0,.453.265h1.337a.52.52,0,0,0,.453-.265l.611-1.086a.517.517,0,0,0,.051-.381l-.651-2.606a.518.518,0,0,0-.273-.339c0-.177,0-.432-.019-.745h2.3V20.638H1.123V17.374a.312.312,0,0,0-.623,0v3.316a.571.571,0,0,0,.571.571H16.989a.571.571,0,0,0,.571-.571V7.542a.571.571,0,0,0-.571-.571ZM5.435,11.4l-.561,1H3.659l-.561-1L3.72,8.909H4.813Zm1.9-9.819A5.362,5.362,0,0,0,5.07,4.762a14.056,14.056,0,0,0-.541,3.524h-.5a13.422,13.422,0,0,1,.427-3.3A7.4,7.4,0,0,1,5.7,2.343,4.394,4.394,0,0,1,8.219.715a3.6,3.6,0,0,1,1.621,0,4.394,4.394,0,0,1,2.516,1.628A7.4,7.4,0,0,1,13.6,4.986a13.422,13.422,0,0,1,.427,3.3h-.5c-.084-1.879-.387-4.156-1.738-5.782a3.408,3.408,0,0,0-4.46-.926Zm7.63,9.819-.561,1H13.186l-.561-1,.622-2.488H14.34Zm0,0" transform="translate(-0.499 0)"/><path class="a" d="M186.34,208.533a.312.312,0,1,0,0-.623h-1.122a.312.312,0,0,0,0,.623Zm0,0" transform="translate(-177.249 -199.276)"/></g></svg>