<svg xmlns="http://www.w3.org/2000/svg" width="12.364" height="15.312" viewBox="0 0 12.364 15.312"><defs><style>.a{fill:#3d3d3d;stroke:#3d3d3d;stroke-width:0.4px;}</style></defs><g transform="translate(0.2 0.202)"><path class="a" d="M12.064,4.889H10.377a9.281,9.281,0,0,0-.266-1.5A4.158,4.158,0,0,0,7.149.076a2.957,2.957,0,0,0-1.335,0A4.158,4.158,0,0,0,2.851,3.393a9.293,9.293,0,0,0-.266,1.5H.9a.4.4,0,0,0-.4.4v5.555a.219.219,0,0,0,.437,0V5.326H2.553c-.012.219-.014.4-.014.522a.363.363,0,0,0-.191.238L1.89,7.914a.363.363,0,0,0,.036.267l.428.761a.365.365,0,0,0,.317.186H3.61a.365.365,0,0,0,.317-.186l.428-.761a.363.363,0,0,0,.036-.267L3.934,6.086a.363.363,0,0,0-.173-.228q.012-.275.033-.532h.648a.219.219,0,1,0,0-.437h-.6a7.978,7.978,0,0,1,.285-1.421A3.343,3.343,0,0,1,5.515,1.481a1.81,1.81,0,0,1,1.372-.22,2.271,2.271,0,0,1,1.2.774A5.408,5.408,0,0,1,9.128,4.889H5.792a.219.219,0,0,0,0,.437H9.17c.014.181.024.359.032.532a.364.364,0,0,0-.174.228L8.571,7.914a.362.362,0,0,0,.036.267l.428.762a.365.365,0,0,0,.317.186h.938a.364.364,0,0,0,.317-.186l.428-.762a.362.362,0,0,0,.036-.267l-.457-1.828a.364.364,0,0,0-.192-.238c0-.124,0-.3-.014-.522h1.616v9.147H.936V12.184a.219.219,0,0,0-.437,0V14.51a.4.4,0,0,0,.4.4H12.064a.4.4,0,0,0,.4-.4V5.289a.4.4,0,0,0-.4-.4Zm-8.1,3.1-.393.7H2.715l-.393-.7.436-1.745h.767ZM5.291,1.106A3.76,3.76,0,0,0,3.7,3.339,9.857,9.857,0,0,0,3.326,5.81H2.977a9.413,9.413,0,0,1,.3-2.314,5.19,5.19,0,0,1,.872-1.854A3.081,3.081,0,0,1,5.913.5,2.522,2.522,0,0,1,7.05.5,3.081,3.081,0,0,1,8.815,1.643,5.192,5.192,0,0,1,9.687,3.5a9.413,9.413,0,0,1,.3,2.314H9.638A6.794,6.794,0,0,0,8.419,1.755a2.39,2.39,0,0,0-3.127-.65Zm5.351,6.886-.393.7H9.4L9,7.992l.436-1.744h.767Zm0,0" transform="translate(-0.499 0)"/><path class="a" d="M185.912,208.347a.219.219,0,1,0,0-.437h-.787a.219.219,0,1,0,0,.437Zm0,0" transform="translate(-179.536 -201.855)"/></g></svg>