<svg id="snowflake" xmlns="http://www.w3.org/2000/svg" width="20.01" height="21.867" viewBox="0 0 20.01 21.867">
  <path id="Trazado_653" data-name="Trazado 653" d="M20.862,13.237l-2.625.7-1.922-1.11V9.037l1.922-1.11,2.625.7a.667.667,0,0,0,.345-1.288L19.87,6.984l1.051-.607a.667.667,0,0,0-.667-1.155L19.2,5.83l.358-1.337a.667.667,0,0,0-1.288-.345l-.7,2.625-1.922,1.11-3.285-1.9V3.766l1.922-1.922A.667.667,0,0,0,13.342.9l-.979.979V.667a.667.667,0,0,0-1.333,0V1.881L10.051.9a.667.667,0,0,0-.943.943L11.03,3.766v2.22l-3.285,1.9L5.823,6.773l-.7-2.625a.667.667,0,0,0-1.288.345L4.19,5.83,3.139,5.223a.667.667,0,0,0-.667,1.155l1.051.607-1.337.358a.667.667,0,1,0,.345,1.288l2.625-.7,1.922,1.11V12.83L5.156,13.94l-2.625-.7a.667.667,0,0,0-.345,1.288l1.337.358-1.051.607a.667.667,0,1,0,.667,1.155l1.051-.607-.358,1.337a.667.667,0,0,0,1.288.345l.7-2.625,1.922-1.11,3.285,1.9V18.1L9.108,20.023a.667.667,0,0,0,.943.943l.979-.979V21.2a.667.667,0,1,0,1.333,0V19.987l.979.979a.667.667,0,0,0,.943-.943L12.363,18.1v-2.22l3.285-1.9,1.922,1.11.7,2.625a.667.667,0,1,0,1.288-.345L19.2,16.037l1.051.607a.667.667,0,1,0,.667-1.155l-1.051-.607,1.337-.358a.667.667,0,1,0-.345-1.288Zm-5.88-1.176L13.03,10.934l1.952-1.127Zm-.667-3.408L12.363,9.779V7.525ZM11.03,7.525V9.779L9.078,8.652ZM8.411,9.807l1.952,1.127L8.411,12.06Zm.667,3.408,1.952-1.127v2.253Zm3.285,1.127V12.088l1.952,1.127Zm0,0" transform="translate(-1.692 0)" fill="#ed1c24"/>
  <path id="Trazado_654" data-name="Trazado 654" d="M1018.011,319.967a.778.778,0,1,1-.778-.778A.778.778,0,0,1,1018.011,319.967Zm0,0" transform="translate(-1003.668 -315.167)" fill="#ed1c24"/>
  <path id="Trazado_655" data-name="Trazado 655" d="M205.226,806.746a.778.778,0,1,1-.778-.778A.778.778,0,0,1,205.226,806.746Zm0,0" transform="translate(-201.125 -795.812)" fill="#ed1c24"/>
  <path id="Trazado_656" data-name="Trazado 656" d="M1265.812,806.746a.778.778,0,1,1-.778-.778A.778.778,0,0,1,1265.812,806.746Zm0,0" transform="translate(-1248.347 -795.812)" fill="#ed1c24"/>
  <path id="Trazado_657" data-name="Trazado 657" d="M462.45,319.967a.778.778,0,1,1-.778-.778A.778.778,0,0,1,462.45,319.967Zm0,0" transform="translate(-455.109 -315.167)" fill="#ed1c24"/>
  <path id="Trazado_658" data-name="Trazado 658" d="M1013.3,1293.525a.778.778,0,1,1-.778-.777A.778.778,0,0,1,1013.3,1293.525Zm0,0" transform="translate(-999.017 -1276.458)" fill="#ed1c24"/>
  <path id="Trazado_659" data-name="Trazado 659" d="M457.739,1293.525a.778.778,0,1,1-.778-.777A.778.778,0,0,1,457.739,1293.525Zm0,0" transform="translate(-450.457 -1276.458)" fill="#ed1c24"/>
</svg>
