<svg xmlns="http://www.w3.org/2000/svg" width="36.95" height="32.761" viewBox="0 0 36.95 32.761"><defs><style>.a{fill:#ed1c24;}</style></defs><g transform="translate(9.255) rotate(25)"><path class="a" d="M3.643,13.017a.534.534,0,0,0-.262.7l1.2,2.58a.533.533,0,0,0,.7.262l9.079-4.241-.822,8.6a.534.534,0,0,0,.176.449,2.331,2.331,0,0,0,1.41.534,1.717,1.717,0,0,0,.422-.053,2.714,2.714,0,0,0,1.7-1.971l3.573-10.58,7.076-3.3c2.083-.972,3.156-2.942,2.435-4.481A2.7,2.7,0,0,0,28.247.055,4.95,4.95,0,0,0,25.331.5L17.165,4.333,8.385.9a2.71,2.71,0,0,0-2.6.038,2.178,2.178,0,0,0-.8,1.725.534.534,0,0,0,.23.422l5.912,4.064L7.75,8.75,2.072,7.308a.534.534,0,0,0-.593.256L.065,10.112a.534.534,0,0,0,.278.753l4.2,1.736ZM6.089,2.395a.914.914,0,0,1,.321-.577c.3-.219.86-.187,1.6.091l7.819,3.05L12.262,6.624ZM1.282,10.106l.929-1.65L7.675,9.813a.535.535,0,0,0,.353-.032L25.785,1.487a3.9,3.9,0,0,1,2.28-.363,1.673,1.673,0,0,1,1.3.844c.448.961-.433,2.366-1.923,3.06L21.293,7.912l.374-1.106a.543.543,0,1,0-1.031-.342l-4.4,13.079c-.262.743-.588,1.186-.951,1.282a.9.9,0,0,1-.652-.123L15.707,9.487a.536.536,0,0,0-1.068-.1L14.474,11.1,5.309,15.372l-.753-1.6,1.506-.7a.534.534,0,0,0,0-.977Zm0,0" transform="translate(0 0)"/></g></svg>