<svg xmlns="http://www.w3.org/2000/svg" width="17.095" height="17.095" viewBox="0 0 17.095 17.095"><defs><style>.a{fill:red;}</style></defs><path class="a" d="M15.091,1.336h-.8V0H12.955V1.336H4.14V0H2.8V1.336H2a2.006,2.006,0,0,0-2,2V15.091a2.006,2.006,0,0,0,2,2H15.091a2.006,2.006,0,0,0,2-2V3.339A2.006,2.006,0,0,0,15.091,1.336Zm.668,13.756a.669.669,0,0,1-.668.668H2a.669.669,0,0,1-.668-.668V6.277H15.759Zm0-10.15H1.336v-1.6A.669.669,0,0,1,2,2.671h.8V4.007H4.14V2.671h8.814V4.007H14.29V2.671h.8a.669.669,0,0,1,.668.668Z"/><g transform="translate(2.537 7.679)"><rect class="a" width="1.336" height="1.336"/></g><g transform="translate(5.209 7.679)"><rect class="a" width="1.336" height="1.336"/></g><g transform="translate(2.537 10.35)"><rect class="a" width="1.336" height="1.336"/></g><g transform="translate(5.209 10.35)"><rect class="a" width="1.336" height="1.336"/></g></svg>