<svg xmlns="http://www.w3.org/2000/svg" width="27.318" height="24.496" viewBox="0 0 27.318 24.496"><defs><style>.a{fill:#ed1c24;}</style></defs><g transform="translate(0 -24.65)"><g transform="translate(3.926 27.454)"><g transform="translate(0 0)"><path class="a" d="M79.3,73.65H69.172a.574.574,0,0,0-.572.572v6.7a.574.574,0,0,0,.572.572H79.3a.574.574,0,0,0,.572-.572v-6.7A.574.574,0,0,0,79.3,73.65Zm-.572,6.7H69.745V74.795H78.73Z" transform="translate(-68.6 -73.65)"/></g></g><g transform="translate(0 24.65)"><g transform="translate(0 0)"><path class="a" d="M26.74,48H17.147V38.844h.933a1.53,1.53,0,0,1,1.528,1.54v1.6a3.033,3.033,0,0,0,6.067,0V32.926a3.726,3.726,0,0,0-.99-2.535l-4.476-5.1-.859.755L22.819,30a2.3,2.3,0,0,0,.383,4.573,2.346,2.346,0,0,0,1.328-.424v7.83a1.889,1.889,0,0,1-3.777,0V40.4a2.683,2.683,0,0,0-2.667-2.7h-.939V27.037a2.379,2.379,0,0,0-2.358-2.387H4.155a2.373,2.373,0,0,0-2.347,2.387V48H.572a.572.572,0,1,0,0,1.145H26.745A.572.572,0,1,0,26.74,48ZM23.2,33.424a1.156,1.156,0,1,1,1.156-1.156A1.157,1.157,0,0,1,23.2,33.424ZM16,48H2.953V27.037a1.222,1.222,0,0,1,1.2-1.242H14.789A1.235,1.235,0,0,1,16,27.037V48Z" transform="translate(0 -24.65)"/></g></g></g></svg>