<svg xmlns="http://www.w3.org/2000/svg" width="18" height="18" viewBox="0 0 18 18"><defs><style>.a{fill:red;}</style></defs><path class="a" d="M15.364,2.636A9,9,0,0,0,2.636,15.364,9,9,0,0,0,13.657,16.7a.7.7,0,1,0-.729-1.2,7.661,7.661,0,1,1,2.378-2.285A.7.7,0,0,0,16.475,14a8.978,8.978,0,0,0-1.111-11.36Z"/><g transform="translate(5.513 2.672)"><path class="a" d="M160.291,76a.7.7,0,0,0-.7.7v5.334l-2.578,2.578a.7.7,0,1,0,.994.994l2.784-2.784a.7.7,0,0,0,.206-.5V76.7A.7.7,0,0,0,160.291,76Z" transform="translate(-156.804 -76)"/></g></svg>