<svg id="informacion" xmlns="http://www.w3.org/2000/svg" width="32.049" height="32.049" viewBox="0 0 32.049 32.049">
  <g id="Grupo_2085" data-name="Grupo 2085">
    <path id="Trazado_1034" data-name="Trazado 1034" d="M16.024,0A16.024,16.024,0,1,0,32.049,16.024,16.043,16.043,0,0,0,16.024,0ZM18.7,26.04a.667.667,0,0,1-.668.668H14.021a.667.667,0,0,1-.668-.668V16.024h-.668a.667.667,0,0,1-.668-.668V12.686a.667.667,0,0,1,.668-.668h5.342a.667.667,0,0,1,.668.668ZM16.024,10.683A2.671,2.671,0,1,1,18.7,8.012,2.673,2.673,0,0,1,16.024,10.683Z" fill="#40b23d"/>
  </g>
</svg>
