<svg xmlns="http://www.w3.org/2000/svg" width="24" height="24" viewBox="0 0 24 24">
  <g id="Grupo_2105" data-name="Grupo 2105" transform="translate(-479 -341)">
    <circle id="Elipse_96" data-name="Elipse 96" cx="12" cy="12" r="12" transform="translate(479 341)" fill="#40b23d"/>
    <g id="Grupo_2080" data-name="Grupo 2080" transform="translate(-437 -1228)">
      <path id="Trazado_695" data-name="Trazado 695" d="M.132,7.84a.425.425,0,0,1,0-.616l.616-.616a.425.425,0,0,1,.616,0l.044.044,2.42,2.6a.213.213,0,0,0,.308,0l5.9-6.116h.044a.425.425,0,0,1,.616,0l.616.616a.425.425,0,0,1,0,.616h0l-7.04,7.3a.425.425,0,0,1-.616,0L.22,7.972.132,7.84Z" transform="translate(922 1574)" fill="#fff"/>
    </g>
  </g>
</svg>
