<svg xmlns="http://www.w3.org/2000/svg" width="31.914" height="21.276" viewBox="0 0 31.914 21.276"><defs><style>.a{fill:#fff;}</style></defs><g transform="translate(0 -85.333)"><g transform="translate(0 85.333)"><g transform="translate(0 0)"><path class="a" d="M28.59,85.333H3.324A3.329,3.329,0,0,0,0,88.657v14.627a3.329,3.329,0,0,0,3.324,3.324H28.59a3.329,3.329,0,0,0,3.324-3.324V88.657A3.329,3.329,0,0,0,28.59,85.333Zm1.995,17.952a2,2,0,0,1-1.995,1.995H3.324a2,2,0,0,1-1.995-1.995V88.657a2,2,0,0,1,1.995-1.995H28.59a2,2,0,0,1,1.995,1.995v14.627Z" transform="translate(0 -85.333)"/></g></g><g transform="translate(0 89.322)"><path class="a" d="M31.249,149.333H.665A.665.665,0,0,0,0,150v3.989a.665.665,0,0,0,.665.665H31.249a.665.665,0,0,0,.665-.665V150A.665.665,0,0,0,31.249,149.333Zm-.665,3.989H1.33v-2.66H30.584v2.66Z" transform="translate(0 -149.333)"/></g><g transform="translate(3.989 98.631)"><g transform="translate(0 0)"><path class="a" d="M72.643,298.667H64.665a.665.665,0,1,0,0,1.33h7.979a.665.665,0,1,0,0-1.33Z" transform="translate(-64 -298.667)"/></g></g><g transform="translate(3.989 101.29)"><g transform="translate(0 0)"><path class="a" d="M72.643,341.333H64.665a.665.665,0,1,0,0,1.33h7.979a.665.665,0,1,0,0-1.33Z" transform="translate(-64 -341.333)"/></g></g><g transform="translate(22.606 97.301)"><g transform="translate(0 0)"><path class="a" d="M365.991,277.333h-1.33a2,2,0,0,0-1.995,1.995v1.33a2,2,0,0,0,1.995,1.995h1.33a2,2,0,0,0,1.995-1.995v-1.33A2,2,0,0,0,365.991,277.333Zm.665,3.324a.665.665,0,0,1-.665.665h-1.33a.665.665,0,0,1-.665-.665v-1.33a.665.665,0,0,1,.665-.665h1.33a.665.665,0,0,1,.665.665Z" transform="translate(-362.667 -277.333)"/></g></g></g></svg>