<svg xmlns="http://www.w3.org/2000/svg" width="7.871" height="12.464" viewBox="0 0 7.871 12.464"><defs><style>.a{fill:#3d3d3d;}</style></defs><path class="a" d="M5.385,12.464v-.028h-2.9v.028H1.243v-.028H.621A.594.594,0,0,1,0,11.875V7.3A3.53,3.53,0,0,1,2.058,4.177a2.319,2.319,0,0,1-.815-1.743A2.576,2.576,0,0,1,3.935,0,2.577,2.577,0,0,1,6.628,2.435a2.321,2.321,0,0,1-.815,1.743A3.531,3.531,0,0,1,7.871,7.3v4.57a.594.594,0,0,1-.621.562H6.628v.028ZM1.243,7.3v4.008H6.628V7.3A2.577,2.577,0,0,0,3.935,4.87,2.576,2.576,0,0,0,1.243,7.3Zm1.243-4.87a1.387,1.387,0,0,0,1.45,1.311,1.387,1.387,0,0,0,1.45-1.311,1.387,1.387,0,0,0-1.45-1.311A1.387,1.387,0,0,0,2.486,2.435Z" transform="translate(0 0)"/></svg>