<svg xmlns="http://www.w3.org/2000/svg" width="11.223" height="17.773" viewBox="0 0 11.223 17.773"><defs><style>.a{fill:#ed1c24;}</style></defs><path class="a" d="M7.679,17.773v-.04H3.544v.04H1.772v-.04H.886a.847.847,0,0,1-.886-.8V10.416A5.033,5.033,0,0,1,2.934,5.957,3.307,3.307,0,0,1,1.772,3.472,3.674,3.674,0,0,1,5.612,0,3.674,3.674,0,0,1,9.451,3.472,3.309,3.309,0,0,1,8.289,5.957a5.035,5.035,0,0,1,2.934,4.459v6.517a.847.847,0,0,1-.886.8H9.451v.04ZM1.772,10.416v5.715H9.451V10.416A3.674,3.674,0,0,0,5.612,6.944,3.674,3.674,0,0,0,1.772,10.416ZM3.544,3.472a1.978,1.978,0,0,0,2.067,1.87,1.978,1.978,0,0,0,2.067-1.87A1.978,1.978,0,0,0,5.612,1.6,1.978,1.978,0,0,0,3.544,3.472Z"/></svg>