<svg xmlns="http://www.w3.org/2000/svg" width="10.372" height="17.201" viewBox="0 0 10.372 17.201"><defs><style>.a{fill:#3d3d3d;}</style></defs><path class="a" d="M110.674,4.352h-1.219V2.174a.369.369,0,0,0,.11-.263V1.167A1.168,1.168,0,0,0,108.4,0h-3.162a1.168,1.168,0,0,0-1.167,1.167v.745a.369.369,0,0,0,.11.263V4.352h-1.219a1.331,1.331,0,0,0-1.33,1.33v9.212a1.332,1.332,0,0,0,.879,1.251v.327a.731.731,0,0,0,.73.73h.3a.731.731,0,0,0,.73-.73v-.248h5.091v.248a.731.731,0,0,0,.73.73h.3a.731.731,0,0,0,.73-.73v-.327A1.332,1.332,0,0,0,112,14.894V5.682a1.331,1.331,0,0,0-1.33-1.33Zm-2.071,0V2.282h.349V4.352Zm-3.066-2.178a.369.369,0,0,0,.11-.263V1.577h2.342v.334a.369.369,0,0,0,.11.263V4.352h-2.562V2.174Zm-.963-1.008A.663.663,0,0,1,105.236.5H108.4a.663.663,0,0,1,.663.663v.611h-.569V1.451a.378.378,0,0,0-.378-.378H105.52a.378.378,0,0,0-.378.378v.327h-.569V1.167Zm.11,1.115h.349V4.352h-.349Zm-.916,14.19a.226.226,0,0,1-.226.226h-.3a.226.226,0,0,1-.226-.226v-.248h.754Zm6.627.226h-.3a.226.226,0,0,1-.226-.226v-.248h.754v.248A.226.226,0,0,1,110.4,16.7Zm1.1-1.8a.827.827,0,0,1-.826.826h-7.713a.827.827,0,0,1-.826-.826V5.682a.827.827,0,0,1,.826-.826h7.713a.827.827,0,0,1,.826.826Z" transform="translate(-101.631)"/><path class="a" d="M147.754,178.609a.856.856,0,0,0-.855.855v4.9a.252.252,0,0,0,.5,0v-4.9a.351.351,0,1,1,.7,0v7.166a.351.351,0,0,1-.7,0V185.54a.252.252,0,0,0-.5,0v1.089a.855.855,0,0,0,1.709,0v-7.166A.856.856,0,0,0,147.754,178.609Z" transform="translate(-145.378 -172.609)"/><path class="a" d="M231.419,178.609a.855.855,0,0,0-.855.855v7.166a.855.855,0,1,0,1.709,0v-7.166A.856.856,0,0,0,231.419,178.609Zm.351,8.02a.351.351,0,1,1-.7,0v-7.166a.351.351,0,1,1,.7,0Z" transform="translate(-226.232 -172.609)"/><path class="a" d="M315.084,178.609a.856.856,0,0,0-.855.855v1a.252.252,0,0,0,.5,0v-1a.351.351,0,1,1,.7,0v7.166a.351.351,0,1,1-.7,0v-4.992a.252.252,0,0,0-.5,0v4.992a.855.855,0,0,0,1.709,0v-7.166A.856.856,0,0,0,315.084,178.609Z" transform="translate(-307.087 -172.609)"/></svg>