<svg xmlns="http://www.w3.org/2000/svg" width="14.791" height="24.528" viewBox="0 0 14.791 24.528"><defs><style>.a{fill:#ed1c24;}</style></defs><path class="a" d="M114.525,6.206h-1.738V3.1a.526.526,0,0,0,.157-.375V1.664A1.665,1.665,0,0,0,111.281,0h-4.509a1.665,1.665,0,0,0-1.664,1.664V2.725a.527.527,0,0,0,.157.375V6.206h-1.738a1.9,1.9,0,0,0-1.9,1.9V21.238a1.9,1.9,0,0,0,1.253,1.784v.466a1.042,1.042,0,0,0,1.041,1.041h.431a1.042,1.042,0,0,0,1.041-1.041v-.353h7.26v.353a1.042,1.042,0,0,0,1.041,1.041h.431a1.042,1.042,0,0,0,1.041-1.041v-.466a1.9,1.9,0,0,0,1.253-1.784V8.1A1.9,1.9,0,0,0,114.525,6.206Zm-2.954,0V3.254h.5V6.206ZM107.2,3.1a.526.526,0,0,0,.157-.375V2.249H110.7v.477a.527.527,0,0,0,.157.375V6.206H107.2V3.1Zm-1.373-1.437a.946.946,0,0,1,.945-.945h4.509a.946.946,0,0,1,.945.945v.871h-.811V2.069a.539.539,0,0,0-.539-.539h-3.7a.539.539,0,0,0-.539.539v.466h-.811V1.664Zm.157,1.59h.5V6.206h-.5Zm-1.306,20.234a.322.322,0,0,1-.322.322h-.431a.322.322,0,0,1-.322-.322v-.353h1.075Zm9.45.322H113.7a.322.322,0,0,1-.322-.322v-.353h1.075v.353A.322.322,0,0,1,114.128,23.81Zm1.575-2.572a1.179,1.179,0,0,1-1.178,1.178h-11a1.179,1.179,0,0,1-1.178-1.178V8.1a1.179,1.179,0,0,1,1.178-1.178h11A1.179,1.179,0,0,1,115.7,8.1Z" transform="translate(-101.631)"/><path class="a" d="M148.118,178.609a1.22,1.22,0,0,0-1.219,1.219v6.984a.359.359,0,0,0,.719,0v-6.984a.5.5,0,1,1,1,0v10.218a.5.5,0,0,1-1,0v-1.553a.359.359,0,0,0-.719,0v1.553a1.219,1.219,0,0,0,2.437,0V179.828A1.22,1.22,0,0,0,148.118,178.609Z" transform="translate(-144.73 -170.053)"/><path class="a" d="M231.783,178.609a1.22,1.22,0,0,0-1.219,1.219v10.218a1.219,1.219,0,1,0,2.437,0V179.828A1.22,1.22,0,0,0,231.783,178.609Zm.5,11.437a.5.5,0,1,1-1,0V179.828a.5.5,0,1,1,1,0Z" transform="translate(-224.387 -170.053)"/><path class="a" d="M315.448,178.609a1.22,1.22,0,0,0-1.219,1.219v1.42a.359.359,0,1,0,.719,0v-1.42a.5.5,0,1,1,1,0v10.218a.5.5,0,1,1-1,0v-7.118a.359.359,0,1,0-.719,0v7.118a1.219,1.219,0,1,0,2.437,0V179.828A1.22,1.22,0,0,0,315.448,178.609Z" transform="translate(-304.044 -170.053)"/></svg>