<svg xmlns="http://www.w3.org/2000/svg" width="20.795" height="18.196" viewBox="0 0 20.795 18.196"><defs><style>.a{fill:#ed1c24;}</style></defs><g transform="translate(0 -34.159)"><path class="a" d="M19.352,40.732,17.8,35.549a1.938,1.938,0,0,0-1.868-1.39H4.866A1.938,1.938,0,0,0,3,35.549L1.443,40.732A1.947,1.947,0,0,0,0,42.607v5.849a1.3,1.3,0,0,0,1.3,1.3v.65a1.952,1.952,0,0,0,1.95,1.95h1.3a1.952,1.952,0,0,0,1.95-1.95v-.65h7.8v.65a1.952,1.952,0,0,0,1.95,1.95h1.3a1.952,1.952,0,0,0,1.95-1.95v-.65a1.3,1.3,0,0,0,1.3-1.3V42.607a1.947,1.947,0,0,0-1.443-1.874ZM4.244,35.922a.646.646,0,0,1,.623-.463H15.929a.646.646,0,0,1,.623.463l1.421,4.735H2.823ZM5.2,50.405a.65.65,0,0,1-.65.65h-1.3a.65.65,0,0,1-.65-.65v-.65H5.2Zm13,0a.65.65,0,0,1-.65.65h-1.3a.65.65,0,0,1-.65-.65v-.65h2.6ZM1.3,48.456V42.607a.65.65,0,0,1,.65-.65h16.9a.65.65,0,0,1,.65.65v5.849Z"/><path class="a" d="M70.269,273.275a1.95,1.95,0,1,0,1.95,1.95A1.952,1.952,0,0,0,70.269,273.275Zm0,2.6a.65.65,0,1,1,.65-.65A.65.65,0,0,1,70.269,275.874Z" transform="translate(-65.644 -229.714)"/><path class="a" d="M377.7,273.275a1.95,1.95,0,1,0,1.95,1.95A1.952,1.952,0,0,0,377.7,273.275Zm0,2.6a.65.65,0,1,1,.65-.65A.65.65,0,0,1,377.7,275.874Z" transform="translate(-361.038 -229.714)"/></g></svg>