<svg xmlns="http://www.w3.org/2000/svg" width="58.488" height="41.912" viewBox="0 0 58.488 41.912"><defs><style>.a{fill:#ed1c24;}</style></defs><g transform="translate(0 0)"><path class="a" d="M6.971,25.289a1.023,1.023,0,0,0-.5,1.339l2.3,4.937a1.021,1.021,0,0,0,1.349.5L27.5,23.951,25.921,40.407a1.023,1.023,0,0,0,.337.859,4.461,4.461,0,0,0,2.7,1.022,3.286,3.286,0,0,0,.807-.1c1.411-.368,2.5-1.625,3.251-3.772l6.838-20.248L53.4,11.848c3.986-1.86,6.041-5.632,4.661-8.576a5.175,5.175,0,0,0-4-2.791,9.475,9.475,0,0,0-5.581.859L32.851,8.67,16.047,2.1c-2.116-.8-3.792-.777-4.968.072a4.168,4.168,0,0,0-1.523,3.3A1.023,1.023,0,0,0,10,6.278l11.315,7.778-6.48,3.066L3.965,14.363a1.023,1.023,0,0,0-1.134.491L.122,19.729A1.022,1.022,0,0,0,.654,21.17L8.7,24.492ZM11.652,4.96a1.749,1.749,0,0,1,.614-1.1c.583-.419,1.646-.358,3.066.173L30.3,9.866l-6.828,3.189Zm-9.2,14.759,1.778-3.158,10.456,2.6a1.024,1.024,0,0,0,.675-.061L49.349,3.222a7.471,7.471,0,0,1,4.364-.7,3.2,3.2,0,0,1,2.494,1.615c.858,1.84-.828,4.528-3.68,5.857l-11.775,5.52.716-2.116a1.039,1.039,0,1,0-1.973-.654L31.083,37.78c-.5,1.421-1.124,2.27-1.819,2.453A1.73,1.73,0,0,1,28.016,40l2.044-21.465a1.027,1.027,0,0,0-2.044-.194L27.7,21.62,10.159,29.8l-1.44-3.066L11.6,25.382a1.022,1.022,0,0,0,0-1.871Zm0,0" transform="translate(0.001 -0.376)"/></g></svg>