<svg xmlns="http://www.w3.org/2000/svg" width="22.827" height="22.827" viewBox="0 0 22.827 22.827"><defs><style>.a{fill:red;}</style></defs><path class="a" d="M20.152,1.783h-1.07V0H17.3V1.783H5.528V0H3.745V1.783H2.675A2.678,2.678,0,0,0,0,4.458V20.152a2.678,2.678,0,0,0,2.675,2.675H20.152a2.678,2.678,0,0,0,2.675-2.675V4.458A2.678,2.678,0,0,0,20.152,1.783Zm.892,18.368a.893.893,0,0,1-.892.892H2.675a.893.893,0,0,1-.892-.892V8.382h19.26Zm0-13.553H1.783V4.458a.893.893,0,0,1,.892-.892h1.07V5.35H5.528V3.567H17.3V5.35h1.783V3.567h1.07a.893.893,0,0,1,.892.892Z"/><g transform="translate(3.388 10.254)"><rect class="a" width="1.783" height="1.783"/></g><g transform="translate(6.955 10.254)"><rect class="a" width="1.783" height="1.783"/></g><g transform="translate(3.388 13.821)"><rect class="a" width="1.783" height="1.783"/></g><g transform="translate(6.955 13.821)"><rect class="a" width="1.783" height="1.783"/></g></svg>