<svg xmlns="http://www.w3.org/2000/svg" width="42.114" height="42.114" viewBox="0 0 42.114 42.114"><defs><style>.a{fill:#ed1c24;}</style></defs><g transform="translate(0 0)"><g transform="translate(7.939 30.412)"><path class="a" d="M101.289,369.733H97.341a.823.823,0,0,0-.823.822v4.606a.823.823,0,0,0,.823.823h3.948a.823.823,0,0,0,.823-.823v-4.606A.823.823,0,0,0,101.289,369.733Zm-.823,4.606h-2.3v-2.961h2.3Z" transform="translate(-96.518 -369.733)"/></g><g transform="translate(29.406 30.412)"><path class="a" d="M362.268,369.733H358.32a.823.823,0,0,0-.823.822v4.606a.823.823,0,0,0,.823.823h3.948a.823.823,0,0,0,.823-.823v-4.606A.823.823,0,0,0,362.268,369.733Zm-.823,4.606h-2.3v-2.961h2.3Z" transform="translate(-357.497 -369.733)"/></g><path class="a" d="M41.292,40.469H38.206V8.56a.823.823,0,0,0-.823-.823H32.818V4.771A.823.823,0,0,0,32,3.948H27.473V.823A.823.823,0,0,0,26.65,0H15.464a.823.823,0,0,0-.823.823V3.948H10.118a.823.823,0,0,0-.823.823V7.737H4.731a.823.823,0,0,0-.823.823V40.469H.823a.823.823,0,0,0,0,1.645H41.292a.823.823,0,0,0,0-1.645ZM16.286,1.645h9.541v2.3H16.286Zm8.225,39.026H17.6V30.6h6.909Zm12.049-.2h-10.4V30.6h.288a.823.823,0,1,0,0-1.645H15.669a.823.823,0,1,0,0,1.645h.288v9.87H5.553V9.382h9.131a.823.823,0,0,0,0-1.645H10.941V5.593H31.173V7.737H21.182a.823.823,0,1,0,0,1.645H36.561Z"/><g transform="translate(17.069 7.737)"><path class="a" d="M208.914,94.3a.822.822,0,1,0,.241.582A.829.829,0,0,0,208.914,94.3Z" transform="translate(-207.51 -94.06)"/></g><g transform="translate(-650.698 -199.109)"><path class="a" d="M-2667.079-1464.684h-3.295a1.482,1.482,0,0,1-.623-1.209c0-.018,0-.036,0-.054a.942.942,0,0,1,0-.095v-7.6c0-.748.842-1.357,1.875-1.357h9c1.035,0,1.876.609,1.876,1.357v7.6a.94.94,0,0,1-.005.1c0,.015,0,.03,0,.046a1.482,1.482,0,0,1-.621,1.209h-4.228a1.483,1.483,0,0,1-.624-1.209,1.484,1.484,0,0,1,.837-1.335H-2660v-6.055h-9.254v6.057h2.891a1.484,1.484,0,0,1,.835,1.335,1.484,1.484,0,0,1-.622,1.209h-.93Z" transform="translate(3344.023 1686)"/></g><g transform="translate(-665.698 -199.109)"><path class="a" d="M-2667.079-1464.684h-3.295a1.482,1.482,0,0,1-.623-1.209c0-.018,0-.036,0-.054a.942.942,0,0,1,0-.095v-7.6c0-.748.842-1.357,1.875-1.357h9c1.035,0,1.876.609,1.876,1.357v7.6a.94.94,0,0,1-.005.1c0,.015,0,.03,0,.046a1.482,1.482,0,0,1-.621,1.209h-4.228a1.483,1.483,0,0,1-.624-1.209,1.484,1.484,0,0,1,.837-1.335H-2660v-6.055h-9.254v6.057h2.891a1.484,1.484,0,0,1,.835,1.335,1.484,1.484,0,0,1-.622,1.209h-.93Z" transform="translate(3344.023 1686)"/></g></g></svg>