<svg xmlns="http://www.w3.org/2000/svg" width="42.191" height="41.954" viewBox="0 0 42.191 41.954"><defs><style>.a{fill:#676767;}</style></defs><g transform="translate(4 -1.43)"><path class="a" d="M42.058,42.376A23.5,23.5,0,0,0,36.7,37.841a28.864,28.864,0,0,0-15.608-4.5q-.8,0-1.583.041c.056-1.274.148-2.431.28-3.518a.621.621,0,0,0-1.232-.15c-.141,1.159-.238,2.394-.295,3.757a29.16,29.16,0,0,0-3.486.535,39.941,39.941,0,0,1,3.655-13.038c.076.005.151.009.226.009a3.268,3.268,0,0,0,2.091-.761,3.285,3.285,0,0,0,.391.709A22.3,22.3,0,0,0,19,27.03a.621.621,0,0,0,1.216.251A21.312,21.312,0,0,1,22.089,21.8a3.257,3.257,0,0,0,4.405-.99l.454,1.4a2.843,2.843,0,0,0,1.987,1.881l2.308.609.641,1.884a2.86,2.86,0,0,0,2.169,1.885l1.726.328a1.3,1.3,0,0,0,1.474-1.71,18.655,18.655,0,0,0-10.45-11.4l.684-.655,1.746.529A2.843,2.843,0,0,0,31.911,15l1.817-1.548L35.641,14a2.86,2.86,0,0,0,2.785-.706l1.254-1.23a1.3,1.3,0,0,0-.564-2.187,19.714,19.714,0,0,0-8.108-.585.621.621,0,1,0,.176,1.229,18.479,18.479,0,0,1,7.6.552.063.063,0,0,1,.026.1l-1.254,1.23a1.617,1.617,0,0,1-1.574.4l-2.234-.64a.62.62,0,0,0-.573.124l-2.07,1.764a1.607,1.607,0,0,1-1.514.316L27.5,13.739a.621.621,0,0,0-.609.146L25.642,15.08a1.552,1.552,0,0,1-.134.113,14.733,14.733,0,0,0-2.351-.605c-.1-.068-.261-.17-.473-.3a17.459,17.459,0,0,1,6.165-3.264A.621.621,0,1,0,28.5,9.837a18.607,18.607,0,0,0-4.331,1.9A18.605,18.605,0,0,0,13.217,1.515,1.3,1.3,0,0,0,11.474,2.95l.289,1.733A2.86,2.86,0,0,0,13.6,6.895l1.869.684L16.024,9.9a2.843,2.843,0,0,0,1.835,2.03l1.722.6.066.367A18.645,18.645,0,0,0,4.323,14.231a1.3,1.3,0,0,0-.074,2.257l1.492.928a2.859,2.859,0,0,0,2.872.083l1.748-.952,2.11,1.115a2.843,2.843,0,0,0,2.736-.037l.2-.114a3.26,3.26,0,0,0,1.814,3.133A40.384,40.384,0,0,0,13.51,34.313,28.323,28.323,0,0,0,6.887,37a.621.621,0,0,0,.607,1.083,27.068,27.068,0,0,1,6.694-2.664.614.614,0,0,0,.116-.029,27.881,27.881,0,0,1,4.56-.723h0a.609.609,0,0,0,.078-.006q1.065-.077,2.151-.078a27.63,27.63,0,0,1,14.9,4.275,25.358,25.358,0,0,1,4.155,3.284H2.043A24.87,24.87,0,0,1,5.37,39.409a.621.621,0,0,0-.7-1.022A22.656,22.656,0,0,0,.133,42.376a.626.626,0,0,0,.484,1.009H41.574A.626.626,0,0,0,42.058,42.376ZM23.283,20.965a2.017,2.017,0,0,1-.59-3.657l.116.621A2.844,2.844,0,0,0,25.048,20.2l.307.062A2.022,2.022,0,0,1,23.283,20.965Zm4.78-3.276a17.061,17.061,0,0,1,4.386,3.524A18.585,18.585,0,0,1,36.081,27.5a.056.056,0,0,1-.012.06.056.056,0,0,1-.059.021l-1.726-.328a1.616,1.616,0,0,1-1.226-1.065l-.748-2.2a.621.621,0,0,0-.429-.4l-2.629-.694a1.607,1.607,0,0,1-1.123-1.063l-.674-2.081a.62.62,0,0,0-.467-.417l-.572-.116h0L25.3,18.984A1.607,1.607,0,0,1,24.03,17.7L23.7,15.964A17.039,17.039,0,0,1,28.063,17.689Zm-7.324-5.734a.621.621,0,0,0-.406-.477l-2.065-.721A1.607,1.607,0,0,1,17.231,9.61L16.6,6.965a.621.621,0,0,0-.39-.438l-2.182-.8a1.617,1.617,0,0,1-1.037-1.25L12.7,2.746a.057.057,0,0,1,.022-.059.055.055,0,0,1,.06-.01,17.392,17.392,0,0,1,10.331,9.738,17.408,17.408,0,0,0-1.6,1.251q-.237-.114-.5-.232ZM14.6,16.544a1.607,1.607,0,0,1-1.546.021l-2.4-1.271a.626.626,0,0,0-.587,0L8.019,16.408A1.617,1.617,0,0,1,6.4,16.361L4.9,15.434a.063.063,0,0,1,0-.108A17.468,17.468,0,0,1,17.4,13.533a17.11,17.11,0,0,1,4.426,1.7l-1.151.859,0,0-.261.195a1.607,1.607,0,0,1-1.8.087l-1.478-.894a.62.62,0,0,0-.626-.01Zm2.109.682a2.01,2.01,0,0,1,.173-.446l1.084.656a2.84,2.84,0,0,0,2.708.133,2.012,2.012,0,0,1-2.479,2.112l-.012,0-.012,0a2.017,2.017,0,0,1-1.462-2.449Z" transform="translate(-4 0)"/></g></svg>