<svg xmlns="http://www.w3.org/2000/svg" width="40.492" height="32.047" viewBox="0 0 40.492 32.047"><defs><style>.a{fill:#676767;}</style></defs><g transform="translate(0 0)"><g transform="translate(0 0)"><path class="a" d="M40.493,20.687a10.608,10.608,0,0,1-.555,3.379c-1.72,7.782-16.593,17.2-17.225,17.6a1.221,1.221,0,0,1-.646.187,1.168,1.168,0,0,1-.648-.187,82.54,82.54,0,0,1-8.609-6.39,1.208,1.208,0,0,1,1.567-1.838,83.252,83.252,0,0,0,7.7,5.774C26.539,36.3,36.4,28.888,37.609,23.424a8.612,8.612,0,0,0,.458-2.734,8.519,8.519,0,0,0-4.409-7.46A8.687,8.687,0,0,0,23,15.254a1.251,1.251,0,0,1-1.861,0,8.7,8.7,0,0,0-10.663-2.028,8.515,8.515,0,0,0-4.417,7.459A8.408,8.408,0,0,0,6.484,23.3a9.433,9.433,0,0,0,.958,2.385h7.045l2.419-5.56a1.2,1.2,0,0,1,2.278.2l1.781,7.53,2.3-3.778A1.2,1.2,0,0,1,24.3,23.5h4.372a1.207,1.207,0,0,1,0,2.414H24.978l-3.471,5.7a1.2,1.2,0,0,1-1.026.581,1.252,1.252,0,0,1-.189-.014,1.209,1.209,0,0,1-.986-.912l-1.628-6.859-1.286,2.96a1.2,1.2,0,0,1-1.108.726H1.207a1.207,1.207,0,1,1,0-2.414H4.746a10.487,10.487,0,0,1-.58-1.743,10.174,10.174,0,0,1-.519-3.26,10.927,10.927,0,0,1,5.663-9.573,11.169,11.169,0,0,1,12.761,1.61,11.155,11.155,0,0,1,12.755-1.61A10.936,10.936,0,0,1,40.493,20.687Z" transform="translate(0 -9.803)"/></g></g></svg>