<svg xmlns="http://www.w3.org/2000/svg" width="58.099" height="30.732" viewBox="0 0 58.099 30.732">
  <g id="Grupo_2316" data-name="Grupo 2316" transform="translate(0 -182.906)">
    <path id="Trazado_955" data-name="Trazado 955" d="M58.1,195.069v12.022a.968.968,0,0,1-.968.968h-2.3a.968.968,0,1,1,0-1.937h1.331V195.069a4.852,4.852,0,0,0-1.994-3.916c-3.707-2.691-10.828-6.736-19.669-6.275l.631,4.855a.968.968,0,0,1-1.921.249l-.641-4.933a28.1,28.1,0,0,0-15.51,7.286H41.524a4.82,4.82,0,0,0,3.767-1.8.968.968,0,1,1,1.507,1.216,6.748,6.748,0,0,1-5.274,2.521H14.837L4.064,197.265a2.914,2.914,0,0,0-2.128,2.8v5.8H3.389a.968.968,0,0,1,0,1.937H.968A.968.968,0,0,1,0,206.837v-6.773A4.856,4.856,0,0,1,3.546,195.4l10.628-2.952c10.548-11.016,26.923-13.176,41.133-2.86a6.794,6.794,0,0,1,2.793,5.483ZM19.972,206.86a6.778,6.778,0,1,1-6.778-6.778A6.786,6.786,0,0,1,19.972,206.86Zm-1.937,0a4.842,4.842,0,1,0-4.842,4.842A4.847,4.847,0,0,0,18.035,206.86Zm33.649,0a6.778,6.778,0,1,1-6.778-6.778A6.786,6.786,0,0,1,51.684,206.86Zm-1.937,0a4.842,4.842,0,1,0-4.842,4.842A4.847,4.847,0,0,0,49.747,206.86Zm-18.938-.726H23a.968.968,0,1,0,0,1.937h7.811a.968.968,0,1,0,0-1.937Z" fill="#828282"/>
    <circle id="Elipse_90" data-name="Elipse 90" cx="0.968" cy="0.968" r="0.968" transform="translate(33.08 206.134)" fill="#828282"/>
  </g>
</svg>
