<svg xmlns="http://www.w3.org/2000/svg" width="11.118" height="29.96" viewBox="0 0 11.118 29.96"><defs><style>.a{fill:#ed1c24;}</style></defs><g transform="translate(0 0)"><path class="a" d="M8.211,6.526a3.8,3.8,0,1,0-5.3,0A5.564,5.564,0,0,0,0,11.411V18.55a.878.878,0,0,0,.878.878h.878v9.655a.878.878,0,0,0,.878.878H8.485a.878.878,0,0,0,.878-.878V19.427h.878a.878.878,0,0,0,.878-.878V11.411A5.564,5.564,0,0,0,8.211,6.526ZM3.511,3.8A2.048,2.048,0,1,1,5.559,5.852,2.05,2.05,0,0,1,3.511,3.8Zm4.1,24.4h-4.1V19.427h4.1ZM9.363,17.672H1.755V11.411a3.8,3.8,0,0,1,7.607,0Zm0,0"/></g></svg>