<svg xmlns="http://www.w3.org/2000/svg" width="56.873" height="30.479" viewBox="0 0 56.873 30.479"><defs><style>.a{fill:#676767;}</style></defs><g transform="translate(0 0)"><path class="a" d="M61.342,274.326a1.016,1.016,0,0,0-1.016,1.016.976.976,0,1,1-.976-.976,1.016,1.016,0,1,0,0-2.031,3.007,3.007,0,1,0,3.007,3.007A1.016,1.016,0,0,0,61.342,274.326Z" transform="translate(-49.19 -250.958)"/><path class="a" d="M349.712,274.326a1.016,1.016,0,0,0-1.016,1.016.976.976,0,1,1-.976-.976,1.016,1.016,0,0,0,0-2.031,3.007,3.007,0,1,0,3.007,3.007A1.016,1.016,0,0,0,349.712,274.326Z" transform="translate(-300.953 -250.958)"/><path class="a" d="M52.81,103.953H4.062A4.067,4.067,0,0,0,0,108.015v16.606c0,2.78,2.354,4.1,4.123,4.556a6.1,6.1,0,0,0,11.769,1.234H41.036a6.1,6.1,0,0,0,11.464,0h3.357a1.016,1.016,0,0,0,1.016-1.016v-21.38A4.067,4.067,0,0,0,52.81,103.953Zm2.031,14.191H50.826a1.037,1.037,0,0,1-1.036-1.036v-8.046h5.051ZM10.16,132.4A4.07,4.07,0,0,1,6.1,128.574a.981.981,0,0,0,0-.476,4.065,4.065,0,1,1,4.058,4.3Zm12.256-23.339H33.549v9.082H22.417Zm-2.031,9.082H7.131a1.037,1.037,0,0,1-1.036-1.036v-8.046H20.386v9.082Zm24.38-9.082v8.088a1,1,0,0,1-.994.994H35.58v-9.082ZM33.549,120.175v8.2H22.417v-8.2ZM46.768,132.4a4.065,4.065,0,1,1,4.064-4.066A4.07,4.07,0,0,1,46.768,132.4Zm6.094-4.021c0-.015,0-.029,0-.044a6.1,6.1,0,0,0-12.192,0c0,.015,0,.029,0,.044H35.58v-8.2h8.191A3.029,3.029,0,0,0,46.8,117.15v-9.1a1.016,1.016,0,0,0-1.016-1.016H5.079a1.016,1.016,0,0,0-1.016,1.016v9.061a3.071,3.071,0,0,0,3.067,3.067H20.386v8.2H16.255c0-.015,0-.029,0-.044A6.1,6.1,0,0,0,4.2,127.074a2.743,2.743,0,0,1-2.165-2.452V108.015a2.033,2.033,0,0,1,2.031-2.031H52.81a2.032,2.032,0,0,1,1.776,1.047H48.774a1.016,1.016,0,0,0-1.016,1.016v9.061a3.071,3.071,0,0,0,3.067,3.067h4.015v1.053h-.989a1.016,1.016,0,0,0,0,2.031h.989v5.12Z" transform="translate(0 -103.953)"/></g></svg>