<svg xmlns="http://www.w3.org/2000/svg" width="22.45" height="27.979" viewBox="0 0 22.45 27.979"><defs><style>.a{fill:red;}</style></defs><g transform="translate(0 0)"><path class="a" d="M22.2,9.174H19.035a17.415,17.415,0,0,0-.5-2.807C17.613,2.927,15.691.775,12.977.143a5.549,5.549,0,0,0-2.506,0C7.758.775,5.836,2.927,4.913,6.368a17.438,17.438,0,0,0-.5,2.807H1.25A.752.752,0,0,0,.5,9.925V20.348a.41.41,0,0,0,.82,0V9.995H4.352c-.022.411-.027.748-.026.98a.681.681,0,0,0-.359.446L3.11,14.85a.681.681,0,0,0,.067.5l.8,1.429a.684.684,0,0,0,.6.349h1.76a.684.684,0,0,0,.6-.348l.8-1.429a.681.681,0,0,0,.067-.5l-.857-3.43a.682.682,0,0,0-.326-.428q.023-.517.062-1H7.9a.41.41,0,0,0,0-.82H6.763A14.971,14.971,0,0,1,7.3,6.508,6.272,6.272,0,0,1,9.911,2.779a3.4,3.4,0,0,1,2.574-.413,4.262,4.262,0,0,1,2.243,1.452,10.149,10.149,0,0,1,1.962,5.356h-6.26a.41.41,0,0,0,0,.82H16.77c.026.34.046.674.06,1a.683.683,0,0,0-.326.428l-.857,3.43a.68.68,0,0,0,.067.5l.8,1.429a.684.684,0,0,0,.6.348h1.759a.684.684,0,0,0,.6-.348l.8-1.429a.68.68,0,0,0,.067-.5l-.857-3.43a.682.682,0,0,0-.359-.446c0-.233,0-.569-.026-.98H22.13V27.159H1.319v-4.3a.41.41,0,0,0-.82,0v4.364a.752.752,0,0,0,.751.751H22.2a.752.752,0,0,0,.751-.751V9.925a.752.752,0,0,0-.751-.751ZM6.994,15l-.738,1.312h-1.6L3.919,15l.818-3.274H6.176Zm2.5-12.921A7.056,7.056,0,0,0,6.514,6.266,18.5,18.5,0,0,0,5.8,10.9H5.148A17.662,17.662,0,0,1,5.71,6.562,9.739,9.739,0,0,1,7.346,3.084,5.782,5.782,0,0,1,10.658.941a4.732,4.732,0,0,1,2.134,0A5.782,5.782,0,0,1,16.1,3.084,9.743,9.743,0,0,1,17.74,6.562,17.663,17.663,0,0,1,18.3,10.9h-.655c-.111-2.472-.509-5.469-2.287-7.609A4.485,4.485,0,0,0,9.491,2.075ZM19.531,15l-.738,1.312h-1.6L16.455,15l.818-3.273h1.439Zm0,0" transform="translate(-0.499 0)"/><path class="a" d="M186.793,208.73a.41.41,0,1,0,0-.82h-1.476a.41.41,0,1,0,0,.82Zm0,0" transform="translate(-174.829 -196.549)"/></g></svg>