<svg xmlns="http://www.w3.org/2000/svg" width="21.774" height="27.136" viewBox="0 0 21.774 27.136"><defs><style>.a{fill:red;}</style></defs><path class="a" d="M21.546,8.9H18.477a16.891,16.891,0,0,0-.484-2.722C17.1,2.839,15.234.751,12.6.139a5.382,5.382,0,0,0-2.43,0c-2.632.613-4.5,2.7-5.392,6.037A16.913,16.913,0,0,0,4.3,8.9H1.228A.729.729,0,0,0,.5,9.627V19.736a.4.4,0,0,0,.8,0V9.694H4.236c-.022.4-.026.725-.025.951a.66.66,0,0,0-.348.433L3.031,14.4a.661.661,0,0,0,.065.486l.78,1.386a.664.664,0,0,0,.578.338H6.16a.664.664,0,0,0,.578-.338l.779-1.386a.661.661,0,0,0,.065-.486l-.832-3.326a.661.661,0,0,0-.316-.416q.022-.5.06-.968H7.675a.4.4,0,1,0,0-.8h-1.1a14.52,14.52,0,0,1,.519-2.586A6.084,6.084,0,0,1,9.628,2.7a3.294,3.294,0,0,1,2.5-.4A4.134,4.134,0,0,1,14.3,3.7,9.843,9.843,0,0,1,16.2,8.9H10.132a.4.4,0,0,0,0,.8H16.28c.026.329.044.653.058.968a.662.662,0,0,0-.316.416L15.19,14.4a.659.659,0,0,0,.065.485l.78,1.386a.664.664,0,0,0,.578.338h1.706a.663.663,0,0,0,.578-.338l.78-1.386a.659.659,0,0,0,.065-.486l-.831-3.326a.662.662,0,0,0-.349-.433c0-.226,0-.552-.025-.951h2.942V26.341H1.295V22.175a.4.4,0,0,0-.8,0v4.233a.729.729,0,0,0,.728.728H21.546a.729.729,0,0,0,.728-.728V9.627a.729.729,0,0,0-.728-.728ZM6.8,14.545l-.716,1.273H4.531l-.716-1.272.794-3.175H6ZM9.22,2.013A6.843,6.843,0,0,0,6.333,6.078a17.94,17.94,0,0,0-.69,4.5H5.008a17.13,17.13,0,0,1,.545-4.211A9.446,9.446,0,0,1,7.14,2.991,5.608,5.608,0,0,1,10.352.913a4.59,4.59,0,0,1,2.07,0,5.608,5.608,0,0,1,3.212,2.078,9.45,9.45,0,0,1,1.587,3.373,17.131,17.131,0,0,1,.545,4.211H17.13c-.108-2.4-.494-5.3-2.219-7.38A4.35,4.35,0,0,0,9.22,2.013Zm9.738,12.533-.716,1.272H16.691l-.716-1.272.794-3.175h1.4Zm0,0" transform="translate(-0.499 0)"/><path class="a" d="M186.736,208.706a.4.4,0,1,0,0-.8H185.3a.4.4,0,0,0,0,.8Zm0,0" transform="translate(-175.133 -196.891)"/></svg>