<svg xmlns="http://www.w3.org/2000/svg" width="40.554" height="35.957" viewBox="0 0 40.554 35.957"><defs><style>.a{fill:#ed1c24;}</style></defs><g transform="translate(10.157 0) rotate(25)"><path class="a" d="M4,14.662a.587.587,0,0,0-.287.768l1.319,2.831a.585.585,0,0,0,.774.287l9.965-4.654-.9,9.437a.586.586,0,0,0,.193.492,2.558,2.558,0,0,0,1.548.586,1.884,1.884,0,0,0,.463-.058,2.979,2.979,0,0,0,1.864-2.163l3.921-11.611,7.766-3.623c2.286-1.067,3.464-3.229,2.673-4.918A2.967,2.967,0,0,0,31,.437a5.433,5.433,0,0,0-3.2.493l-8.962,4.2L9.2,1.363A2.974,2.974,0,0,0,6.353,1.4,2.39,2.39,0,0,0,5.48,3.3a.587.587,0,0,0,.252.463l6.489,4.46L8.5,9.98,2.273,8.4a.586.586,0,0,0-.651.281L.07,11.474a.586.586,0,0,0,.3.827l4.613,1.905ZM6.681,3a1,1,0,0,1,.352-.633c.334-.24.944-.205,1.758.1l8.581,3.347L13.457,7.647ZM1.406,11.468l1.02-1.811,6,1.489a.587.587,0,0,0,.387-.035L28.3,2.008a4.284,4.284,0,0,1,2.5-.4,1.836,1.836,0,0,1,1.43.926c.492,1.055-.475,2.6-2.111,3.359L23.369,9.059l.41-1.214a.6.6,0,1,0-1.131-.375L17.824,21.825c-.287.815-.645,1.3-1.043,1.407a.992.992,0,0,1-.715-.135l1.172-12.309a.589.589,0,0,0-1.172-.111l-.182,1.881L5.825,17.247,5,15.489l1.653-.774a.586.586,0,0,0,0-1.073Zm0,0" transform="translate(0.001 -0.376)"/></g></svg>