<svg xmlns="http://www.w3.org/2000/svg" width="40.554" height="35.957" viewBox="0 0 40.554 35.957"><defs><style>.a{fill:#ed1c24;}</style></defs><g transform="translate(40.554 21.782) rotate(155)"><path class="a" d="M4,9.748a.587.587,0,0,1-.287-.768L5.03,6.149A.585.585,0,0,1,5.8,5.861l9.965,4.654-.9-9.437a.586.586,0,0,1,.193-.492A2.558,2.558,0,0,1,16.606,0a1.884,1.884,0,0,1,.463.058,2.979,2.979,0,0,1,1.864,2.163l3.921,11.611,7.766,3.623c2.286,1.067,3.464,3.229,2.673,4.918A2.967,2.967,0,0,1,31,23.973a5.433,5.433,0,0,1-3.2-.493l-8.962-4.2L9.2,23.047a2.974,2.974,0,0,1-2.849-.041,2.39,2.39,0,0,1-.874-1.893.587.587,0,0,1,.252-.463l6.489-4.46L8.506,14.431,2.275,16.013a.586.586,0,0,1-.651-.281l-1.553-2.8a.586.586,0,0,1,.3-.827L4.989,10.2ZM6.682,21.406a1,1,0,0,0,.352.633c.334.24.944.205,1.758-.1l8.581-3.347-3.916-1.829ZM1.407,12.942l1.02,1.811,6-1.489a.587.587,0,0,1,.387.035L28.3,22.4a4.284,4.284,0,0,0,2.5.4,1.836,1.836,0,0,0,1.43-.926c.492-1.055-.475-2.6-2.111-3.359L23.37,15.351l.41,1.214a.6.6,0,1,1-1.131.375L17.825,2.585c-.287-.815-.645-1.3-1.043-1.407a.992.992,0,0,0-.715.135l1.172,12.309a.589.589,0,0,1-1.172.111l-.182-1.881L5.827,7.163,5,8.921l1.653.774a.586.586,0,0,1,0,1.073Zm0,0"/></g></svg>