<?xml version="1.0" encoding="utf-8"?>
<!-- Generator: Adobe Illustrator 23.1.0, SVG Export Plug-In . SVG Version: 6.00 Build 0)  -->
<svg version="1.1" id="Capa_1" xmlns="http://www.w3.org/2000/svg" xmlns:xlink="http://www.w3.org/1999/xlink" x="0px" y="0px"
	 viewBox="0 0 28 19" style="enable-background:new 0 0 28 19;" xml:space="preserve">
<style type="text/css">
	.st0{fill:#FFFFFF;}
	.st1{clip-path:url(#SVGID_2_);fill:none;stroke:#FFFFFF;stroke-width:1.2568;}
</style>
<path class="st0" d="M14.72,6.98l-4-4.18c-0.34-0.35-0.65-0.53-0.89-0.53c-0.03,0-0.06,0-0.08,0.01C9.59,2.31,9.46,2.41,9.38,2.54
	L12,6.99L14.72,6.98z M11.25,2.28l4.49,4.71l6.22-0.01c0.02,0,0.04,0,0.07,0c0.67,0,1.33,0.2,1.89,0.57
	c0.53,0.33,0.86,0.9,0.88,1.52c0,0.57-0.29,1.09-0.82,1.48c-0.53,0.39-1.24,0.61-2.01,0.61h-5.38l-5.32,5.57
	c-0.49,0.5-0.96,0.76-1.42,0.76c-0.07,0-0.15-0.01-0.22-0.02c-0.1-0.02-0.19-0.05-0.28-0.09c-0.32-0.16-0.57-0.42-0.73-0.74
	c-0.05-0.11-0.04-0.23,0.02-0.33l1.07-1.81h0.85l-1.17,2c0.09,0.13,0.22,0.23,0.37,0.27c0.03,0,0.05,0.01,0.08,0.01
	c0.24,0,0.55-0.18,0.89-0.53l6.56-6.89c0.07-0.08,0.17-0.12,0.27-0.12c0.1,0,0.19,0.04,0.26,0.1c0.15,0.14,0.16,0.38,0.02,0.53
	l-0.56,0.58l4.69-0.01c1.13,0,2.09-0.62,2.09-1.35c-0.03-0.38-0.24-0.72-0.57-0.91c-0.44-0.29-0.95-0.44-1.47-0.44
	c-0.02,0-0.04,0-0.06,0L8.43,7.72c-0.08,0-0.16-0.03-0.23-0.08L5.18,5.2L4.12,5.96l2.41,2.63c0.1,0.11,0.12,0.27,0.06,0.4
	C6.53,9.12,6.4,9.2,6.26,9.2l-0.01,0l-1.15,0l0,1.22h6.97l0.6-1.02c0.07-0.11,0.19-0.18,0.32-0.18c0.07,0,0.13,0.02,0.19,0.05
	c0.09,0.05,0.15,0.13,0.17,0.23c0.03,0.1,0.01,0.2-0.04,0.28l-1.81,3.09c-0.18-0.17-0.41-0.27-0.66-0.27h-0.03l0.84-1.44l-6.91,0
	c-0.05,0-0.11-0.01-0.15-0.04c-0.04-0.02-0.08-0.04-0.1-0.07c-0.07-0.07-0.11-0.16-0.11-0.26l0-1.96c0-0.2,0.17-0.36,0.37-0.36
	l0.69,0L3.31,6.16C3.24,6.09,3.2,5.98,3.21,5.87c0.01-0.11,0.06-0.2,0.15-0.26l1.63-1.18C5.05,4.38,5.13,4.36,5.2,4.36
	c0.08,0,0.17,0.03,0.23,0.08L8.56,7l2.58-0.01L8.63,2.72C8.58,2.62,8.57,2.5,8.61,2.39c0.19-0.42,0.55-0.73,1-0.85
	c0.07-0.01,0.15-0.02,0.22-0.02C10.28,1.52,10.76,1.78,11.25,2.28z"/>
<path class="st0" d="M10.85,13.22c-0.09,0-0.16,0.03-0.22,0.09s-0.09,0.14-0.09,0.22c0,0.09,0.03,0.16,0.09,0.22
	s0.14,0.09,0.22,0.09s0.16-0.03,0.22-0.09s0.09-0.14,0.09-0.22c0-0.09-0.03-0.16-0.09-0.22S10.93,13.22,10.85,13.22z"/>
<g>
	<defs>
		<circle id="SVGID_1_" cx="10.85" cy="13.54" r="0.63"/>
	</defs>
	<clipPath id="SVGID_2_">
		<use xlink:href="#SVGID_1_"  style="overflow:visible;"/>
	</clipPath>
	<path class="st1" d="M10.85,12.91c-0.17,0-0.32,0.06-0.44,0.18c-0.12,0.12-0.18,0.27-0.18,0.44c0,0.17,0.06,0.32,0.18,0.44
		c0.12,0.12,0.27,0.18,0.44,0.18s0.32-0.06,0.44-0.18c0.12-0.12,0.18-0.27,0.18-0.44c0-0.17-0.06-0.32-0.18-0.44
		C11.17,12.97,11.02,12.91,10.85,12.91z"/>
</g>
</svg>
