<?xml version="1.0" encoding="utf-8"?>
<!-- Generator: Adobe Illustrator 23.1.0, SVG Export Plug-In . SVG Version: 6.00 Build 0)  -->
<svg version="1.1" id="Capa_1" xmlns="http://www.w3.org/2000/svg" xmlns:xlink="http://www.w3.org/1999/xlink" x="0px" y="0px"
	 viewBox="0 0 28 19" style="enable-background:new 0 0 28 19;" xml:space="preserve">
<style type="text/css">
	.st0{fill:#FFFFFF;}
	.st1{clip-path:url(#SVGID_2_);fill:none;stroke:#FFFFFF;stroke-width:1.2568;}
	.st2{clip-path:url(#SVGID_4_);fill:none;stroke:#FFFFFF;stroke-width:1.2568;}
</style>
<path class="st0" d="M16,6.99l2.63-4.44c-0.09-0.13-0.22-0.23-0.37-0.27c-0.03-0.01-0.05-0.01-0.08-0.01
	c-0.24,0-0.55,0.18-0.89,0.53l-4,4.18L16,6.99z M18.17,1.52c0.07,0,0.15,0.01,0.22,0.02c0.45,0.11,0.81,0.42,1,0.85
	c0.05,0.11,0.04,0.23-0.02,0.33l-2.51,4.26L19.44,7l3.13-2.56c0.06-0.05,0.15-0.08,0.23-0.08c0.08,0,0.15,0.02,0.22,0.07l1.63,1.18
	c0.09,0.06,0.14,0.16,0.15,0.26c0.01,0.11-0.03,0.21-0.1,0.29l-2.12,2.31l0.69,0c0.2,0,0.36,0.16,0.37,0.36l0,1.96
	c0,0.1-0.04,0.19-0.11,0.26c-0.03,0.03-0.06,0.05-0.1,0.07c-0.05,0.02-0.1,0.04-0.15,0.04l-6.91,0l0.84,1.44h-0.03
	c-0.25,0-0.48,0.1-0.66,0.27l-1.81-3.09c-0.05-0.09-0.06-0.18-0.04-0.28c0.03-0.1,0.09-0.18,0.17-0.23
	c0.06-0.03,0.12-0.05,0.19-0.05c0.13,0,0.25,0.07,0.32,0.18l0.6,1.02h6.97l0-1.22l-1.15,0l-0.01,0c-0.14,0-0.27-0.08-0.33-0.21
	c-0.06-0.13-0.04-0.29,0.06-0.4l2.41-2.63L22.82,5.2l-3.02,2.44c-0.07,0.05-0.15,0.08-0.23,0.08L6.05,7.71c-0.02,0-0.04,0-0.06,0
	c-0.52,0-1.03,0.15-1.47,0.44C4.19,8.34,3.98,8.68,3.95,9.06c0,0.73,0.96,1.35,2.09,1.35l4.69,0.01l-0.56-0.58
	c-0.14-0.15-0.13-0.39,0.02-0.53c0.07-0.07,0.16-0.1,0.26-0.1c0.1,0,0.2,0.04,0.27,0.12l6.56,6.89c0.34,0.35,0.65,0.53,0.89,0.53
	c0.03,0,0.05,0,0.08-0.01c0.15-0.04,0.29-0.13,0.37-0.27l-1.17-2h0.85l1.07,1.81c0.06,0.1,0.07,0.22,0.02,0.33
	c-0.15,0.32-0.41,0.58-0.73,0.74c-0.09,0.04-0.18,0.07-0.28,0.09c-0.07,0.01-0.15,0.02-0.22,0.02c-0.45,0-0.93-0.25-1.42-0.76
	l-5.32-5.57H6.04c-0.77,0-1.48-0.22-2.01-0.61C3.5,10.15,3.21,9.62,3.21,9.06c0.02-0.62,0.35-1.19,0.88-1.52
	c0.56-0.37,1.22-0.57,1.89-0.57c0.02,0,0.04,0,0.07,0l6.22,0.01l4.49-4.71C17.24,1.78,17.72,1.52,18.17,1.52z"/>
<path class="st0" d="M17.15,13.22c0.09,0,0.16,0.03,0.22,0.09s0.09,0.14,0.09,0.22c0,0.09-0.03,0.16-0.09,0.22s-0.14,0.09-0.22,0.09
	s-0.16-0.03-0.22-0.09s-0.09-0.14-0.09-0.22c0-0.09,0.03-0.16,0.09-0.22S17.07,13.22,17.15,13.22z"/>
<g>
	<defs>
		<circle id="SVGID_3_" cx="17.15" cy="13.54" r="0.63"/>
	</defs>
	<clipPath id="SVGID_2_">
		<use xlink:href="#SVGID_3_"  style="overflow:visible;"/>
	</clipPath>
	<path class="st1" d="M17.15,12.91c0.17,0,0.32,0.06,0.44,0.18c0.12,0.12,0.18,0.27,0.18,0.44c0,0.17-0.06,0.32-0.18,0.44
		c-0.12,0.12-0.27,0.18-0.44,0.18s-0.32-0.06-0.44-0.18c-0.12-0.12-0.18-0.27-0.18-0.44c0-0.17,0.06-0.32,0.18-0.44
		C16.83,12.97,16.98,12.91,17.15,12.91z"/>
</g>
</svg>
