<?xml version="1.0" encoding="utf-8"?>
<!-- Generator: Adobe Illustrator 23.1.0, SVG Export Plug-In . SVG Version: 6.00 Build 0)  -->
<svg version="1.1" id="Grupo_1449" xmlns="http://www.w3.org/2000/svg" xmlns:xlink="http://www.w3.org/1999/xlink" x="0px" y="0px"
	 viewBox="0 0 24.8 28.4" style="enable-background:new 0 0 24.8 28.4;" xml:space="preserve">
<style type="text/css">
	.st0{fill:#BABABA;}
	.st1{stroke:#FFFFFF;stroke-width:2;stroke-linecap:round;stroke-linejoin:round;stroke-miterlimit:10;}
</style>
<path id="Trazado_580" class="st0" d="M21,8.9H18c-0.1-0.9-0.2-1.8-0.5-2.7c-0.9-3.3-2.8-5.4-5.4-6C11.3,0,10.5,0,9.7,0.1
	C7,0.8,5.2,2.8,4.3,6.2C4,7.1,3.9,8,3.8,8.9H0.7C0.3,8.9,0,9.2,0,9.6v10.1c0,0.2,0.2,0.4,0.4,0.4c0.2,0,0.4-0.2,0.4-0.4v-10h2.9
	c0,0.4,0,0.7,0,1c-0.2,0.1-0.3,0.2-0.3,0.4l-0.8,3.3c0,0.2,0,0.3,0.1,0.5l0.8,1.4c0.1,0.2,0.3,0.3,0.6,0.3h1.7
	c0.2,0,0.5-0.1,0.6-0.3L7,14.9c0.1-0.1,0.1-0.3,0.1-0.5l-0.8-3.3c0-0.2-0.2-0.3-0.3-0.4c0-0.3,0-0.7,0.1-1h1.2
	c0.2,0,0.4-0.2,0.4-0.4c0-0.2-0.2-0.4-0.4-0.4H6.1C6.2,8,6.3,7.1,6.6,6.3C7,4.8,7.9,3.5,9.1,2.7c0.7-0.5,1.6-0.6,2.5-0.4
	c0.9,0.2,1.6,0.7,2.2,1.4c1.1,1.5,1.8,3.3,1.9,5.2H9.6c-0.2,0-0.4,0.2-0.4,0.4c0,0.2,0.2,0.4,0.4,0.4l0,0h6.1c0,0.3,0,0.7,0.1,1
	c-0.2,0.1-0.3,0.2-0.3,0.4l-0.8,3.3c0,0.2,0,0.3,0.1,0.5l0.8,1.4c0.1,0.2,0.3,0.3,0.6,0.3h1.7c0.2,0,0.5-0.1,0.6-0.3l0.8-1.4
	c0.1-0.1,0.1-0.3,0.1-0.5l-0.8-3.3c0-0.2-0.2-0.3-0.3-0.4c0-0.2,0-0.6,0-1H21v16.7H0.8v-4.2c0-0.2-0.2-0.4-0.4-0.4
	C0.2,21.8,0,22,0,22.2v4.2c0,0.4,0.3,0.7,0.7,0.7H21c0.4,0,0.7-0.3,0.7-0.7V9.6C21.8,9.2,21.4,8.9,21,8.9L21,8.9z M6.3,14.5
	l-0.7,1.3H4l-0.7-1.3l0.8-3.2h1.4L6.3,14.5z M8.7,2C7.3,3,6.3,4.4,5.8,6.1c-0.4,1.5-0.7,3-0.7,4.5H4.5c0-1.4,0.2-2.8,0.5-4.2
	C5.4,5.1,5.9,4,6.6,3c0.8-1,1.9-1.8,3.2-2.1c0.7-0.2,1.4-0.2,2.1,0c1.3,0.3,2.4,1,3.2,2.1c0.7,1,1.3,2.2,1.6,3.4
	c0.4,1.4,0.5,2.8,0.5,4.2h-0.6c-0.1-2.4-0.5-5.3-2.2-7.4C13.1,1.4,10.6,0.9,8.7,2z M18.5,14.5l-0.7,1.3h-1.6l-0.7-1.3l0.8-3.2h1.4
	L18.5,14.5z"/>
<path id="Trazado_581" class="st0" d="M11.6,11.8c0.2,0,0.4-0.2,0.4-0.4c0-0.2-0.2-0.4-0.4-0.4h-1.4c-0.2,0-0.4,0.2-0.4,0.4
	c0,0.2,0.2,0.4,0.4,0.4H11.6z"/>
<g>
	<g>
		<path class="st1" d="M23.7,19l-8,8c-0.1,0.1-0.2,0.1-0.3,0l-4.6-4.6c-0.1-0.1-0.1-0.2,0-0.3l1.1-1.1c0.1-0.1,0.2-0.1,0.3,0
			l3.3,3.3l6.8-6.8c0.1-0.1,0.2-0.1,0.3,0l1.1,1.1C23.8,18.9,23.8,19,23.7,19z"/>
	</g>
	<g>
		<g>
			<path class="st0" d="M23.7,19l-8,8c-0.1,0.1-0.2,0.1-0.3,0l-4.6-4.6c-0.1-0.1-0.1-0.2,0-0.3l1.1-1.1c0.1-0.1,0.2-0.1,0.3,0
				l3.3,3.3l6.8-6.8c0.1-0.1,0.2-0.1,0.3,0l1.1,1.1C23.8,18.9,23.8,19,23.7,19z"/>
		</g>
	</g>
</g>
</svg>
