<svg xmlns="http://www.w3.org/2000/svg" width="41.279" height="41.279" viewBox="0 0 41.279 41.279"><defs><style>.a{fill:#f5bb00;}</style></defs><g transform="translate(0 0)"><path class="a" d="M36.442,3.225H34.507V0H31.282V3.225H10V0H6.772V3.225H4.837A4.843,4.843,0,0,0,0,8.062v28.38a4.843,4.843,0,0,0,4.837,4.837h31.6a4.843,4.843,0,0,0,4.837-4.837V8.062A4.843,4.843,0,0,0,36.442,3.225Zm1.612,33.217a1.614,1.614,0,0,1-1.612,1.612H4.837a1.614,1.614,0,0,1-1.612-1.612V15.157H38.054Zm0-24.51H3.225V8.062A1.614,1.614,0,0,1,4.837,6.45H6.772V9.675H10V6.45H31.282V9.675h3.225V6.45h1.935a1.614,1.614,0,0,1,1.612,1.612Z"/></g></svg>