<svg xmlns="http://www.w3.org/2000/svg" width="30.808" height="17.036" viewBox="0 0 30.808 17.036"><defs><style>.a{fill:#ed1c24;stroke:#ed1c24;stroke-width:0.4px;}</style></defs><g transform="translate(0.2 -5.3)"><path class="a" d="M28.173,199.835v-5.017a1.963,1.963,0,0,0-1.961-1.961H8.77a.447.447,0,1,0,0,.893H26.212a1.069,1.069,0,0,1,1.068,1.068v5h-2V198.8a1.95,1.95,0,0,0-1.948-1.948h-4.7A1.95,1.95,0,0,0,16.68,198.8v1.023H13.728V198.8a1.95,1.95,0,0,0-1.948-1.948H7.08A1.95,1.95,0,0,0,5.133,198.8v1.023h-2v-5A1.069,1.069,0,0,1,4.2,193.75H6.983a.447.447,0,1,0,0-.893H4.2a1.963,1.963,0,0,0-1.961,1.961v5.017A2.516,2.516,0,0,0,0,202.331v6.715a.447.447,0,0,0,.447.447H6.983a.447.447,0,0,0,0-.893H.893v-4.656H23.712a.447.447,0,1,0,0-.893H.893v-.719a1.621,1.621,0,0,1,1.619-1.619H27.9a1.621,1.621,0,0,1,1.619,1.619v.719H25.5a.447.447,0,1,0,0,.893h4.017V208.6H8.77a.447.447,0,0,0,0,.893H29.961a.447.447,0,0,0,.447-.447v-6.715A2.516,2.516,0,0,0,28.173,199.835Zm-10.6-1.039a1.056,1.056,0,0,1,1.054-1.054h4.7a1.056,1.056,0,0,1,1.054,1.054v1.023H17.573Zm-11.547,0a1.056,1.056,0,0,1,1.054-1.054h4.7a1.056,1.056,0,0,1,1.054,1.054v1.023H6.026Z" transform="translate(0 -187.357)"/></g></svg>