<svg xmlns="http://www.w3.org/2000/svg" width="48.812" height="35.297" viewBox="0 0 48.812 35.297"><defs><style>.a{fill:#6b253c;}</style></defs><g transform="translate(0 -70.885)"><g transform="translate(0 70.885)"><path class="a" d="M47.84,100.542H46.359A21.972,21.972,0,0,0,25.281,79.558V77.011h3.306a.972.972,0,0,0,.972-.972,5.154,5.154,0,0,0-10.307,0,.972.972,0,0,0,.972.972h3.111v2.554A21.975,21.975,0,0,0,2.453,100.542H.972a.973.973,0,0,0-.972.972v3.695a.972.972,0,0,0,.972.972H47.84a.972.972,0,0,0,.972-.972v-3.695A.972.972,0,0,0,47.84,100.542ZM21.348,75.066a3.209,3.209,0,0,1,6.116,0Zm3.058,6.417a20.057,20.057,0,0,1,20.007,19.058H4.4A20.057,20.057,0,0,1,24.406,81.484Zm22.461,22.753H1.945v-1.75H46.867v1.75Z" transform="translate(0 -70.885)"/></g><g transform="translate(14.692 84.4)"><path class="a" d="M158.72,213.292a.972.972,0,0,0-1.246-.583,18.059,18.059,0,0,0-2.878,1.342.972.972,0,1,0,.974,1.683,16.1,16.1,0,0,1,2.567-1.2A.972.972,0,0,0,158.72,213.292Z" transform="translate(-154.11 -212.651)"/></g><g transform="translate(6.515 88.159)"><path class="a" d="M74.878,252.375a.973.973,0,0,0-1.375-.027,18,18,0,0,0-5.149,9.234.972.972,0,1,0,1.9.407,16.062,16.062,0,0,1,4.6-8.24A.972.972,0,0,0,74.878,252.375Z" transform="translate(-68.333 -252.077)"/></g></g></svg>