<svg xmlns="http://www.w3.org/2000/svg" width="27.752" height="24.283" viewBox="0 0 27.752 24.283">
  <g id="coffee-cup" transform="translate(0 -32.001)">
    <g id="Grupo_1393" data-name="Grupo 1393" transform="translate(3.468 41.251)">
      <g id="Grupo_1392" data-name="Grupo 1392" transform="translate(0 0)">
        <path id="Trazado_896" data-name="Trazado 896" d="M81.912,202.654H65.723a1.737,1.737,0,0,0-1.735,1.735v1.156a10.959,10.959,0,0,0,5.947,9.765.578.578,0,0,0,.531-1.028,9.8,9.8,0,0,1-5.322-8.737v-1.156a.578.578,0,0,1,.578-.578H81.912a.578.578,0,0,1,.578.578v1.156a9.8,9.8,0,0,1-5.323,8.736.579.579,0,0,0,.266,1.093.57.57,0,0,0,.265-.065,10.953,10.953,0,0,0,5.948-9.764v-1.156A1.737,1.737,0,0,0,81.912,202.654Z" transform="translate(-63.988 -202.654)" fill="#ed1c24"/>
      </g>
    </g>
    <g id="Grupo_1395" data-name="Grupo 1395" transform="translate(0 52.813)">
      <g id="Grupo_1394" data-name="Grupo 1394" transform="translate(0)">
        <path id="Trazado_897" data-name="Trazado 897" d="M26.553,416.323a.579.579,0,0,0-.534-.357H.578a.579.579,0,0,0-.409.988l1.3,1.3a4.023,4.023,0,0,0,2.862,1.185h17.94a4.03,4.03,0,0,0,2.864-1.185l1.3-1.3A.577.577,0,0,0,26.553,416.323Zm-2.24,1.11a2.874,2.874,0,0,1-2.044.846H4.327a2.874,2.874,0,0,1-2.044-.846l-.31-.31h22.65Z" transform="translate(0 -415.966)" fill="#ed1c24"/>
      </g>
    </g>
    <g id="Grupo_1397" data-name="Grupo 1397" transform="translate(19.247 43.561)">
      <g id="Grupo_1396" data-name="Grupo 1396" transform="translate(0 0)">
        <path id="Trazado_898" data-name="Trazado 898" d="M362.479,245.692c-1.558-1-4.046.086-4.325.212a.579.579,0,0,0,.48,1.053c.557-.253,2.345-.853,3.219-.29a1.643,1.643,0,0,1,.587,1.5c0,2.315-4.669,3.714-6.472,4.059l-.409.081a.578.578,0,0,0,.111,1.145.536.536,0,0,0,.112-.012l.406-.08c.3-.058,7.409-1.451,7.409-5.193A2.728,2.728,0,0,0,362.479,245.692Z" transform="translate(-355.093 -245.272)" fill="#ed1c24"/>
      </g>
    </g>
    <g id="Grupo_1399" data-name="Grupo 1399" transform="translate(16.189 32.001)">
      <g id="Grupo_1398" data-name="Grupo 1398" transform="translate(0 0)">
        <path id="Trazado_899" data-name="Trazado 899" d="M300.276,36.408a3.464,3.464,0,0,0,0-4.189.578.578,0,0,0-.9.723,2.332,2.332,0,0,1,0,2.746,3.461,3.461,0,0,0,0,4.189.578.578,0,0,0,.9-.723A2.329,2.329,0,0,1,300.276,36.408Z" transform="translate(-298.666 -32.001)" fill="#ed1c24"/>
      </g>
    </g>
    <g id="Grupo_1401" data-name="Grupo 1401" transform="translate(12.716 32.001)">
      <g id="Grupo_1400" data-name="Grupo 1400" transform="translate(0 0)">
        <path id="Trazado_900" data-name="Trazado 900" d="M236.206,36.416a3.461,3.461,0,0,0,0-4.19.578.578,0,1,0-.9.723,2.329,2.329,0,0,1,0,2.746,3.464,3.464,0,0,0,0,4.19.578.578,0,1,0,.9-.723A2.332,2.332,0,0,1,236.206,36.416Z" transform="translate(-234.597 -32.009)" fill="#ed1c24"/>
      </g>
    </g>
    <g id="Grupo_1403" data-name="Grupo 1403" transform="translate(9.251 32.002)">
      <g id="Grupo_1402" data-name="Grupo 1402" transform="translate(0 0)">
        <path id="Trazado_901" data-name="Trazado 901" d="M172.276,36.429a3.464,3.464,0,0,0,0-4.19.578.578,0,0,0-.9.722,2.332,2.332,0,0,1,0,2.746,3.461,3.461,0,0,0,0,4.19.578.578,0,1,0,.9-.722A2.329,2.329,0,0,1,172.276,36.429Z" transform="translate(-170.666 -32.022)" fill="#ed1c24"/>
      </g>
    </g>
  </g>
</svg>
