<svg xmlns="http://www.w3.org/2000/svg" width="58.756" height="31.005" viewBox="0 0 58.756 31.005"><defs><style>.a{fill:#3db39e;}.b{fill:#81cec0;}</style></defs><g transform="translate(58.756 -196.747) rotate(90)"><path class="a" d="M198.241,0h28.017a1.492,1.492,0,0,1,1.494,1.494V57.261a1.492,1.492,0,0,1-1.494,1.494H198.241a1.492,1.492,0,0,1-1.494-1.494V1.494A1.459,1.459,0,0,1,198.241,0Z" transform="translate(0)"/><path class="b" d="M218.574,46.375A10.673,10.673,0,1,0,229.247,35.7,10.67,10.67,0,0,0,218.574,46.375Zm4.963-.267h.8a3.627,3.627,0,0,1,1.708-2.775.989.989,0,0,1,.374-.107.719.719,0,0,1,.747.694.651.651,0,0,1-.32.587,3.1,3.1,0,0,0-1.067,2.241c0,1.227.427,1.814,1.281,1.814,2.081,0,1.121-4.963,4.536-4.963a2.5,2.5,0,0,1,2.562,2.508h.8a.642.642,0,1,1,0,1.281h-.8a3.554,3.554,0,0,1-1.281,2.455.652.652,0,0,1-.48.16.73.73,0,0,1-.747-.747.821.821,0,0,1,.32-.587,2.744,2.744,0,0,0,.747-1.921c0-1.121-.534-1.548-1.121-1.548-1.868,0-1.014,4.963-4.536,4.963-1.548,0-2.562-.961-2.775-2.775h-.8a.662.662,0,0,1-.694-.64A.748.748,0,0,1,223.537,46.108Zm17.717,16.277a.821.821,0,0,0-.8.8v8.272H218.04V63.185a.8.8,0,1,0-1.6,0v9.072a.821.821,0,0,0,.8.8h24.015a.821.821,0,0,0,.8-.8V63.185A.821.821,0,0,0,241.254,62.385Zm0-42.693H217.24a.821.821,0,0,0-.8.8v9.072a.8.8,0,0,0,1.6,0V21.293h22.414v8.272a.8.8,0,0,0,1.6,0V20.493A.821.821,0,0,0,241.254,19.692ZM227.646,64.519a1.6,1.6,0,1,0,1.6-1.6A1.606,1.606,0,0,0,227.646,64.519Zm3.2-36.289a1.6,1.6,0,1,0-1.6,1.6A1.572,1.572,0,0,0,230.848,28.231Z" transform="translate(-17.024 -17.024)"/></g></svg>