<svg xmlns="http://www.w3.org/2000/svg" width="16.419" height="20.961" viewBox="0 0 16.419 20.961"><defs><style>.a{fill:#6b253c;}</style></defs><g transform="translate(-6.5)"><path class="a" d="M17.824,0H6.5V20.96H22.919V5.1Zm.2,1.193,3.7,3.7h-3.7ZM7.2,20.262V.7H17.33V5.589H22.22V20.262Z"/><path class="a" d="M15.849,15.7h3.144a.349.349,0,0,0,0-.7H15.849a.349.349,0,1,0,0,.7Z" transform="translate(-5.856 -9.76)"/><path class="a" d="M21.788,37H15.849a.349.349,0,1,0,0,.7h5.939a.349.349,0,1,0,0-.7Z" transform="translate(-5.856 -24.074)"/><path class="a" d="M38.295,30H35.849a.349.349,0,1,0,0,.7h2.445a.349.349,0,1,0,0-.7Z" transform="translate(-18.869 -19.52)"/><path class="a" d="M15.849,23.7H17.6a.349.349,0,0,0,0-.7H15.849a.349.349,0,1,0,0,.7Z" transform="translate(-5.856 -14.965)"/><path class="a" d="M30.849,23.7h2.445a.349.349,0,1,0,0-.7H30.849a.349.349,0,1,0,0,.7Z" transform="translate(-15.616 -14.965)"/><path class="a" d="M25.5,23.357a.349.349,0,1,0,.1-.248A.367.367,0,0,0,25.5,23.357Z" transform="translate(-12.363 -14.973)"/><path class="a" d="M20.849,30a.349.349,0,0,0,0,.7h3.493a.349.349,0,0,0,0-.7Z" transform="translate(-9.109 -19.52)"/><path class="a" d="M15.849,30.707a.35.35,0,1,0-.248-.6.359.359,0,0,0-.1.248.346.346,0,0,0,.349.349Z" transform="translate(-5.856 -19.528)"/><path class="a" d="M38.295,44H35.849a.349.349,0,1,0,0,.7h2.445a.349.349,0,1,0,0-.7Z" transform="translate(-18.869 -28.629)"/><path class="a" d="M24.343,44H20.849a.349.349,0,1,0,0,.7h3.493a.349.349,0,1,0,0-.7Z" transform="translate(-9.109 -28.629)"/><path class="a" d="M15.6,44.11a.354.354,0,0,0-.1.248.346.346,0,0,0,.1.248.367.367,0,0,0,.248.1.361.361,0,0,0,.248-.1.367.367,0,0,0,.1-.248.345.345,0,0,0-.1-.245A.362.362,0,0,0,15.6,44.11Z" transform="translate(-5.856 -28.638)"/><path class="a" d="M42.6,23.109a.351.351,0,0,0,.5.5.354.354,0,0,0,0-.5A.366.366,0,0,0,42.6,23.109Z" transform="translate(-23.424 -14.973)"/><path class="a" d="M38.1,37.606a.349.349,0,1,0-.5,0,.347.347,0,0,0,.248.1A.361.361,0,0,0,38.1,37.606Z" transform="translate(-20.17 -24.083)"/><path class="a" d="M42.6,37.109a.354.354,0,0,0,0,.5.354.354,0,0,0,.5,0,.351.351,0,1,0-.5-.5Z" transform="translate(-23.424 -24.083)"/></g></svg>