<svg xmlns="http://www.w3.org/2000/svg" width="24.369" height="40.413" viewBox="0 0 24.369 40.413"><defs><style>.a{fill:red;}</style></defs><g transform="translate(0)"><path class="a" d="M122.876,10.226h-2.863V5.109a.867.867,0,0,0,.259-.618V2.741A2.744,2.744,0,0,0,117.53,0H110.1a2.744,2.744,0,0,0-2.741,2.741V4.49a.868.868,0,0,0,.259.618v5.117h-2.864a3.128,3.128,0,0,0-3.124,3.124V34.992A3.129,3.129,0,0,0,103.7,37.93V38.7a1.716,1.716,0,0,0,1.714,1.714h.711a1.716,1.716,0,0,0,1.714-1.714v-.582H119.8V38.7a1.716,1.716,0,0,0,1.714,1.714h.711a1.716,1.716,0,0,0,1.714-1.714V37.93A3.129,3.129,0,0,0,126,34.992V13.35a3.128,3.128,0,0,0-3.124-3.124Zm-4.867,0V5.361h.819v4.865Zm-7.2-5.117a.867.867,0,0,0,.259-.618V3.7h5.5V4.49a.867.867,0,0,0,.259.618v5.117h-6.019V5.109Zm-2.262-2.368A1.559,1.559,0,0,1,110.1,1.184h7.429a1.559,1.559,0,0,1,1.557,1.557V4.177H117.75V3.408a.888.888,0,0,0-.887-.887h-6.095a.888.888,0,0,0-.887.887v.768h-1.337V2.741Zm.259,2.62h.819v4.865H108.8ZM106.651,38.7a.531.531,0,0,1-.53.53h-.711a.531.531,0,0,1-.53-.53v-.582h1.772Zm15.571.53h-.711a.531.531,0,0,1-.53-.53v-.582h1.772V38.7A.531.531,0,0,1,122.221,39.229Zm2.595-4.237a1.942,1.942,0,0,1-1.94,1.94H104.755a1.942,1.942,0,0,1-1.94-1.94V13.35a1.942,1.942,0,0,1,1.94-1.94h18.121a1.942,1.942,0,0,1,1.94,1.94Z" transform="translate(-101.631)"/><path class="a" d="M148.907,178.609a2.01,2.01,0,0,0-2.008,2.008v11.507a.592.592,0,1,0,1.184,0V180.617a.824.824,0,0,1,1.647,0v16.835a.824.824,0,1,1-1.647,0v-2.559a.592.592,0,1,0-1.184,0v2.559a2.008,2.008,0,0,0,4.015,0V180.617A2.01,2.01,0,0,0,148.907,178.609Z" transform="translate(-143.326 -164.511)"/><path class="a" d="M232.572,178.609a2.01,2.01,0,0,0-2.008,2.008v16.835a2.008,2.008,0,1,0,4.015,0V180.617A2.01,2.01,0,0,0,232.572,178.609Zm.824,18.843a.824.824,0,1,1-1.647,0V180.617a.824.824,0,1,1,1.647,0Z" transform="translate(-220.387 -164.511)"/><path class="a" d="M316.237,178.609a2.01,2.01,0,0,0-2.008,2.008v2.339a.592.592,0,1,0,1.184,0v-2.339a.824.824,0,1,1,1.647,0v16.835a.824.824,0,1,1-1.647,0V185.725a.592.592,0,1,0-1.184,0v11.727a2.008,2.008,0,0,0,4.015,0V180.617A2.01,2.01,0,0,0,316.237,178.609Z" transform="translate(-297.449 -164.511)"/></g></svg>