<svg xmlns="http://www.w3.org/2000/svg" width="25.125" height="41.667" viewBox="0 0 25.125 41.667"><defs><style>.a{fill:red;}</style></defs><g transform="translate(0 0)"><path class="a" d="M123.535,10.543h-2.952V5.267a.894.894,0,0,0,.267-.638v-1.8A2.829,2.829,0,0,0,118.024,0h-7.66a2.829,2.829,0,0,0-2.826,2.826v1.8a.9.9,0,0,0,.267.638v5.276h-2.952a3.225,3.225,0,0,0-3.221,3.221V36.078a3.226,3.226,0,0,0,2.128,3.03V39.9a1.77,1.77,0,0,0,1.768,1.768h.733a1.77,1.77,0,0,0,1.768-1.768v-.6H120.36v.6a1.77,1.77,0,0,0,1.768,1.768h.733a1.77,1.77,0,0,0,1.768-1.768v-.792a3.227,3.227,0,0,0,2.128-3.03V13.764a3.225,3.225,0,0,0-3.221-3.221Zm-5.018,0V5.527h.845v5.016Zm-7.427-5.276a.894.894,0,0,0,.267-.638V3.82h5.672v.81a.894.894,0,0,0,.267.638v5.276h-6.206V5.267Zm-2.332-2.441a1.607,1.607,0,0,1,1.605-1.605h7.66a1.607,1.607,0,0,1,1.605,1.605v1.48h-1.378V3.514a.916.916,0,0,0-.915-.915h-6.284a.916.916,0,0,0-.915.915v.792h-1.378V2.826Zm.267,2.7h.845v5.016h-.845ZM106.807,39.9a.548.548,0,0,1-.547.547h-.733a.548.548,0,0,1-.547-.547v-.6h1.827Zm16.054.547h-.733a.548.548,0,0,1-.547-.547v-.6h1.827v.6A.547.547,0,0,1,122.86,40.446Zm2.675-4.368a2,2,0,0,1-2,2H104.852a2,2,0,0,1-2-2V13.764a2,2,0,0,1,2-2h18.683a2,2,0,0,1,2,2Z" transform="translate(-101.631)"/><path class="a" d="M148.969,178.609a2.072,2.072,0,0,0-2.07,2.07v11.865a.61.61,0,0,0,1.221,0V180.679a.849.849,0,0,1,1.7,0v17.358a.849.849,0,1,1-1.7,0V195.4a.61.61,0,0,0-1.221,0v2.638a2.07,2.07,0,1,0,4.14,0V180.679A2.072,2.072,0,0,0,148.969,178.609Z" transform="translate(-143.215 -164.074)"/><path class="a" d="M232.634,178.609a2.072,2.072,0,0,0-2.07,2.07v17.358a2.07,2.07,0,1,0,4.14,0V180.679A2.072,2.072,0,0,0,232.634,178.609Zm.849,19.428a.849.849,0,1,1-1.7,0V180.679a.849.849,0,1,1,1.7,0Z" transform="translate(-220.071 -164.074)"/><path class="a" d="M316.3,178.609a2.072,2.072,0,0,0-2.07,2.07v2.411a.61.61,0,1,0,1.221,0v-2.411a.849.849,0,1,1,1.7,0v17.358a.849.849,0,1,1-1.7,0V185.945a.61.61,0,1,0-1.221,0v12.091a2.07,2.07,0,1,0,4.14,0V180.679A2.072,2.072,0,0,0,316.3,178.609Z" transform="translate(-296.928 -164.074)"/></g></svg>