<svg xmlns="http://www.w3.org/2000/svg" width="28.075" height="26.938" viewBox="0 0 28.075 26.938"><defs><style>.a{fill:#6b253c;}</style></defs><g transform="translate(28.55 146.867)"><path class="a" d="M70.641,70.61a.688.688,0,0,1,.249-.765l5.345-3.922a2.4,2.4,0,0,0-1.41-4.341l-6.63-.031a.688.688,0,0,1-.651-.473l-2.078-6.3a2.369,2.369,0,0,0-2.282-1.65h0a2.369,2.369,0,0,0-2.282,1.65l-.937,2.837a.857.857,0,0,0,1.628.537l.937-2.837a.689.689,0,0,1,1.309,0l2.078,6.3a2.4,2.4,0,0,0,2.271,1.65l6.63.031a.689.689,0,0,1,.4,1.244l-5.345,3.922a2.4,2.4,0,0,0-.867,2.67l2.02,6.317a.689.689,0,0,1-1.059.769l-5.382-3.873a2.4,2.4,0,0,0-2.807,0L56.4,78.219a.689.689,0,0,1-1.059-.769l2.02-6.318a2.4,2.4,0,0,0-.867-2.669l-5.345-3.922a.689.689,0,0,1,.4-1.244l6.63-.031a.857.857,0,0,0,0-1.714h0l-6.63.031a2.4,2.4,0,0,0-1.41,4.341l5.345,3.922a.688.688,0,0,1,.249.765l-2.019,6.318a2.369,2.369,0,0,0,.877,2.676,2.369,2.369,0,0,0,2.816.006l5.383-3.874a.688.688,0,0,1,.8,0l5.382,3.873a2.4,2.4,0,0,0,3.693-2.683Z" transform="translate(-77.696 -200)"/></g></svg>