<svg xmlns="http://www.w3.org/2000/svg" width="24.651" height="24" viewBox="0 0 24.651 24"><defs><style>.a{fill:#ed1c24;}</style></defs><g transform="translate(0 0.001)"><path class="a" d="M21.042,3.514a12.565,12.565,0,0,0-17.432,0,11.778,11.778,0,0,0,0,16.971,12.566,12.566,0,0,0,17.432,0A11.779,11.779,0,0,0,21.042,3.514Zm-7.109,13.7a1.608,1.608,0,0,1-3.215,0V10.957a1.608,1.608,0,0,1,3.215,0ZM12.3,8.281a1.439,1.439,0,1,1,.019-2.873A1.442,1.442,0,1,1,12.3,8.281Z" transform="translate(0 0)"/></g></svg>