<svg xmlns="http://www.w3.org/2000/svg" width="120.875" height="28.096" viewBox="0 0 120.875 28.096"><defs><style>.a{fill:#2a0088;}.a,.b{fill-rule:evenodd;}.b{fill:#ed1651;}</style></defs><g transform="translate(577.002 -588.452)"><g transform="translate(-550.828 595.425)"><path class="a" d="M1555.9,756.249l3.638-14.062h4.023a2.593,2.593,0,0,1,1.545.318,2.1,2.1,0,0,1,.673,1.058l2.186,6.805,2.852-8.181h3.893a2.884,2.884,0,0,1,1.47.393,2.021,2.021,0,0,1,.652.983l3.191,12.686h-3.78l-2.851-10.813-2.992,8.243h-4.006a1.572,1.572,0,0,1-.944-.265c-.462-.312-.476-.6-.476-.6l-2.439-7.381-2.8,10.813Z" transform="translate(-1485.322 -742.177)"/><path class="a" d="M729.66,742.36v2.8l6.751.454v10.8h3.9v-10.8l6.751-.454v-2.8Z" transform="translate(-696.562 -742.352)"/><path class="a" d="M334.361,742.356l-7.031,14.062h4.322l1.228-2.586h7.839l1.2,2.586h4.3l-6.67-13.14a1.729,1.729,0,0,0-.6-.7,1.791,1.791,0,0,0-.776-.222h-3.815Zm2.387,3.037,2.584,5.582h-5.208Z" transform="translate(-312.482 -742.347)"/><path class="a" d="M0,742.357v14.062H11.87l1.618-3.236H4.067V742.357Z" transform="translate(0 -742.349)"/><path class="a" d="M1107.331,742.356l-7.031,14.062h4.322l1.228-2.586h7.84l1.2,2.586h4.3l-6.67-13.14a1.729,1.729,0,0,0-.6-.7,1.791,1.791,0,0,0-.776-.222h-3.814Zm2.387,3.037,2.584,5.582h-5.208l2.624-5.582Z" transform="translate(-1050.389 -742.347)"/></g><g transform="translate(-577.002 588.452)"><path class="b" d="M-574.988,779.669l3.12-.891a.625.625,0,0,0-.145-.311,1,1,0,0,0-.313-.166l-4.337-1.575a.34.34,0,0,0-.238.009.24.24,0,0,0-.1.2v2.017a1.263,1.263,0,0,0,.269.626c.28.433.942.323.942.323Z" transform="translate(576.998 -768.168)"/><path class="b" d="M-475.221,595.086l2.9-1.626s.044-.281-.068-.383a.615.615,0,0,0-.245-.134l-12.535-4.473a.34.34,0,0,0-.238.009.239.239,0,0,0-.1.2v1.739a1.679,1.679,0,0,0,.278.836,1.345,1.345,0,0,0,.734.545Z" transform="translate(489.653 -588.452)"/><path class="b" d="M-562.57,673.258l2.9-1.5s.062-.381-.05-.483a.888.888,0,0,0-.263-.156l-16.686-6.061a.341.341,0,0,0-.238.009.24.24,0,0,0-.1.2V667a1.678,1.678,0,0,0,.278.836,1.345,1.345,0,0,0,.733.545Z" transform="translate(577.002 -661.562)"/></g><g transform="translate(-577.002 592.943)"><path class="a" d="M-559.981,687.46a.632.632,0,0,1,.313.165.479.479,0,0,1,.145.311v2.3a1.727,1.727,0,0,1-.136.6.639.639,0,0,1-.318.35l-.393.143-12.527,4.55a.52.52,0,0,1-.139.019.521.521,0,0,1-.139-.019l-3.49-1.268s-.087-.02-.209-.213a1.445,1.445,0,0,1-.128-.645.557.557,0,0,0,.146.324c.124.1.455-.01.455-.01l16.031-5.823s.637-.26.637-.523c0-.182-.248-.26-.248-.26Z" transform="translate(577.002 -687.46)"/><path class="a" d="M-473.581,799.04a.631.631,0,0,1,.313.166.478.478,0,0,1,.145.311v2.3a1.722,1.722,0,0,1-.136.6.639.639,0,0,1-.318.35l-.393.143-12.527,4.55v-3.085l12.527-4.55s.637-.26.637-.524C-473.333,799.118-473.581,799.04-473.581,799.04Z" transform="translate(490.602 -793.979)"/><path class="a" d="M-479.8,976.953a.648.648,0,0,1,.12.384v1.722a1.725,1.725,0,0,1-.136.6.639.639,0,0,1-.318.35l-.393.143-5.97,2.169v-3.085l5.97-2.169S-479.923,976.833-479.8,976.953Z" transform="translate(490.605 -963.789)"/><path class="a" d="M-483.654,1118.873a.648.648,0,0,1,.12.384v1.722a1.725,1.725,0,0,1-.136.6.64.64,0,0,1-.318.35l-.393.143-2.119.808v-3.085l2.119-.808s.607-.231.727-.111Z" transform="translate(490.605 -1099.27)"/></g></g></svg>