<svg xmlns="http://www.w3.org/2000/svg" width="208.376" height="48.436" viewBox="0 0 208.376 48.436"><defs><style>.a{fill:#2a0088;}.a,.b{fill-rule:evenodd;}.b{fill:#ed1651;}</style></defs><g transform="translate(0 0)"><g transform="translate(45.12 12.021)"><path class="a" d="M1555.9,766.436l6.272-24.242h6.935a4.471,4.471,0,0,1,2.664.548,3.624,3.624,0,0,1,1.161,1.825L1576.7,756.3l4.917-14.1h6.711a4.972,4.972,0,0,1,2.534.678,3.485,3.485,0,0,1,1.125,1.694l5.5,21.87h-6.516l-4.915-18.641-5.159,14.21h-6.907a2.71,2.71,0,0,1-1.628-.456c-.8-.538-.82-1.029-.82-1.029l-4.205-12.724-4.825,18.641Z" transform="translate(-1434.231 -742.177)"/><path class="a" d="M729.66,742.36V747.2l11.638.782V766.6h6.721V747.977l11.638-.782V742.36Z" transform="translate(-672.602 -742.346)"/><path class="a" d="M339.451,742.356,327.33,766.6h7.451l2.117-4.457h13.514l2.069,4.457h7.409l-11.5-22.652a2.981,2.981,0,0,0-1.027-1.207,3.087,3.087,0,0,0-1.337-.383H339.45Zm4.115,5.235,4.454,9.623h-8.978Z" transform="translate(-301.733 -742.341)"/><path class="a" d="M0,742.357V766.6H20.462l2.789-5.578H7.012V742.357Z" transform="translate(0 -742.343)"/><path class="a" d="M1112.421,742.356,1100.3,766.6h7.45l2.117-4.457h13.514l2.069,4.457h7.409l-11.5-22.652a2.981,2.981,0,0,0-1.027-1.207,3.088,3.088,0,0,0-1.337-.383h-6.576Zm4.115,5.235,4.454,9.623h-8.978l4.524-9.623Z" transform="translate(-1014.258 -742.341)"/></g><path class="b" d="M-573.532,781.812l5.379-1.537a1.08,1.08,0,0,0-.25-.536,1.722,1.722,0,0,0-.54-.285l-7.476-2.716a.587.587,0,0,0-.411.016.413.413,0,0,0-.167.346v3.477a2.178,2.178,0,0,0,.464,1.079c.482.746,1.624.556,1.624.556Z" transform="translate(576.998 -761.986)"/><path class="b" d="M-467.778,599.889l5-2.8s.075-.484-.118-.661a1.062,1.062,0,0,0-.422-.23l-21.609-7.712a.586.586,0,0,0-.411.016.412.412,0,0,0-.167.345v3a2.9,2.9,0,0,0,.479,1.441,2.319,2.319,0,0,0,1.265.939Z" transform="translate(492.657 -588.452)"/><path class="b" d="M-552.123,679.21l5-2.592s.106-.657-.086-.833a1.53,1.53,0,0,0-.454-.27l-28.764-10.448a.588.588,0,0,0-.411.016.413.413,0,0,0-.167.346v3a2.894,2.894,0,0,0,.479,1.441,2.318,2.318,0,0,0,1.264.939Z" transform="translate(577.002 -659.047)"/><g transform="translate(0 7.742)"><path class="a" d="M-547.659,687.46a1.089,1.089,0,0,1,.54.285.826.826,0,0,1,.251.536v3.969a2.971,2.971,0,0,1-.234,1.03,1.1,1.1,0,0,1-.548.6l-.678.246-21.6,7.844a.9.9,0,0,1-.239.032.9.9,0,0,1-.239-.032l-6.017-2.186s-.149-.035-.361-.366A2.491,2.491,0,0,1-577,698.31a.959.959,0,0,0,.252.559c.214.18.785-.017.785-.017l27.636-10.038s1.1-.448,1.1-.9c0-.314-.427-.449-.427-.449Z" transform="translate(577.002 -687.46)"/><path class="a" d="M-464.232,799.04a1.089,1.089,0,0,1,.54.285.825.825,0,0,1,.25.536v3.969a2.97,2.97,0,0,1-.234,1.03,1.1,1.1,0,0,1-.548.6l-.678.246-21.6,7.844v-5.318l21.6-7.844s1.1-.448,1.1-.9C-463.8,799.175-464.232,799.04-464.232,799.04Z" transform="translate(493.574 -790.315)"/><path class="a" d="M-474.955,976.978a1.117,1.117,0,0,1,.207.661v2.968a2.974,2.974,0,0,1-.234,1.03,1.1,1.1,0,0,1-.548.6l-.678.246-10.292,3.739v-5.317l10.292-3.738S-475.161,976.772-474.955,976.978Z" transform="translate(493.577 -954.284)"/><path class="a" d="M-481.594,1118.9a1.117,1.117,0,0,1,.207.662v2.968a2.973,2.973,0,0,1-.234,1.03,1.1,1.1,0,0,1-.548.6l-.678.246-3.653,1.393v-5.318l3.653-1.392s1.047-.4,1.254-.191Z" transform="translate(493.577 -1085.105)"/></g></g></svg>