<?xml version="1.0" encoding="iso-8859-1"?>
<!-- Generator: Adobe Illustrator 19.0.0, SVG Export Plug-In . SVG Version: 6.00 Build 0)  -->
<svg version="1.1" id="Capa_1" xmlns="http://www.w3.org/2000/svg" xmlns:xlink="http://www.w3.org/1999/xlink" x="0px" y="0px"
	 viewBox="0 0 384 384" style="enable-background:new 0 0 384 384;" xml:space="preserve">
<path style="fill:#4DD0E1;" d="M192,16c70.72,0,128,57.28,128,128S192,368,192,368S64,214.72,64,144S121.28,16,192,16z"/>
<circle style="fill:#FF7043;" cx="192" cy="144" r="64"/>
<g>
	<path style="fill:#012E52;" d="M192,384c4.744,0,9.24-2.104,12.28-5.744C217.76,362.112,336,218.376,336,144
		C336,64.6,271.4,0,192,0S48,64.6,48,144c0,74.376,118.24,218.112,131.72,234.256C182.76,381.896,187.256,384,192,384z M192,32
		c61.76,0,112,50.24,112,112c0,47.728-72.176,148.488-112,198.632C152.176,292.488,80,191.728,80,144C80,82.24,130.24,32,192,32z"/>
	<path style="fill:#012E52;" d="M249.272,199.912c6.184-6.312,6.08-16.44-0.232-22.624c-6.312-6.176-16.44-6.072-22.624,0.232
		C217.264,186.856,205.04,192,192,192c-26.472,0-48-21.528-48-48s21.528-48,48-48s48,21.528,48,48c0,8.832,7.168,16,16,16
		s16-7.168,16-16c0-44.112-35.888-80-80-80s-80,35.888-80,80s35.888,80,80,80C213.712,224,234.056,215.448,249.272,199.912z"/>
</g>
<g>
</g>
<g>
</g>
<g>
</g>
<g>
</g>
<g>
</g>
<g>
</g>
<g>
</g>
<g>
</g>
<g>
</g>
<g>
</g>
<g>
</g>
<g>
</g>
<g>
</g>
<g>
</g>
<g>
</g>
</svg>
