<?xml version="1.0" encoding="utf-8"?>
<!-- Generator: Adobe Illustrator 23.1.0, SVG Export Plug-In . SVG Version: 6.00 Build 0)  -->
<svg version="1.1" id="Grupo_1448" xmlns="http://www.w3.org/2000/svg" xmlns:xlink="http://www.w3.org/1999/xlink" x="0px" y="0px"
	 viewBox="0 0 29 40.4" style="enable-background:new 0 0 29 40.4;" xml:space="preserve">
<style type="text/css">
	.st0{fill:#FF0000;}
	.st1{stroke:#FFFFFF;stroke-width:2;stroke-linecap:round;stroke-linejoin:round;stroke-miterlimit:10;}
	.st2{fill:#00C472;}
</style>
<path id="Trazado_465" class="st0" d="M21.2,10.2h-2.9V5.1c0.2-0.2,0.3-0.4,0.3-0.6V2.7c0-1.5-1.2-2.7-2.7-2.7H8.5
	C7,0,5.7,1.2,5.7,2.7v1.7c0,0.2,0.1,0.5,0.3,0.6v5.1H3.1c-1.7,0-3.1,1.4-3.1,3.1V35c0,1.3,0.8,2.5,2.1,2.9v0.8
	c0,0.9,0.8,1.7,1.7,1.7h0.7c0.9,0,1.7-0.8,1.7-1.7v-0.6h12v0.6c0,0.9,0.8,1.7,1.7,1.7h0.7c0.9,0,1.7-0.8,1.7-1.7v-0.8
	c1.2-0.4,2.1-1.6,2.1-2.9V13.4C24.4,11.6,23,10.2,21.2,10.2z M16.4,10.2V5.4h0.8v4.9H16.4z M9.2,5.1c0.2-0.2,0.3-0.4,0.3-0.6V3.7
	h5.5v0.8c0,0.2,0.1,0.5,0.3,0.6v5.1h-6L9.2,5.1L9.2,5.1z M6.9,2.7c0-0.9,0.7-1.6,1.6-1.6h7.4c0.9,0,1.6,0.7,1.6,1.6v1.4h-1.3V3.4
	c0-0.5-0.4-0.9-0.9-0.9H9.1c-0.5,0-0.9,0.4-0.9,0.9v0.8H6.9L6.9,2.7L6.9,2.7z M7.2,5.4H8v4.9H7.2L7.2,5.4z M5,38.7
	c0,0.3-0.2,0.5-0.5,0.5H3.8c-0.3,0-0.5-0.2-0.5-0.5v-0.6H5L5,38.7z M20.6,39.2h-0.7c-0.3,0-0.5-0.2-0.5-0.5v-0.6h1.8v0.6
	C21.1,39,20.9,39.2,20.6,39.2L20.6,39.2z M23.2,35c0,1.1-0.9,1.9-1.9,1.9H3.1c-1.1,0-1.9-0.9-1.9-1.9V13.4c0-1.1,0.9-1.9,1.9-1.9
	h18.1c1.1,0,1.9,0.9,1.9,1.9L23.2,35z"/>
<path id="Trazado_466" class="st0" d="M5.6,14.1c-1.1,0-2,0.9-2,2v11.5c0,0.3,0.3,0.6,0.6,0.6c0.3,0,0.6-0.3,0.6-0.6V16.1
	c0-0.5,0.4-0.8,0.9-0.8c0.4,0,0.8,0.4,0.8,0.8v16.8c0,0.5-0.3,0.8-0.8,0.9S4.8,33.5,4.8,33c0,0,0,0,0-0.1v-2.6
	c0-0.3-0.3-0.6-0.6-0.6c-0.3,0-0.6,0.3-0.6,0.6v2.6c0,1.1,0.9,2,2.1,2c1.1,0,1.9-0.9,2-2V16.1C7.6,15,6.7,14.1,5.6,14.1z"/>
<path id="Trazado_467" class="st0" d="M12.2,14.1c-1.1,0-2,0.9-2,2v16.8c0,1.1,0.9,2,2,2.1c1.1,0,2-0.9,2.1-2c0,0,0-0.1,0-0.1V16.1
	C14.2,15,13.3,14.1,12.2,14.1z M13,32.9c0,0.5-0.3,0.8-0.8,0.9s-0.8-0.3-0.9-0.8c0,0,0,0,0-0.1V16.1c0-0.5,0.3-0.8,0.8-0.9
	S13,15.6,13,16c0,0,0,0,0,0.1V32.9z"/>
<path id="Trazado_468" class="st0" d="M18.8,14.1c-1.1,0-2,0.9-2,2v2.3c0,0.3,0.3,0.6,0.6,0.6c0.3,0,0.6-0.3,0.6-0.6c0,0,0,0,0,0
	v-2.3c0-0.5,0.3-0.8,0.8-0.9c0.5,0,0.8,0.3,0.9,0.8c0,0,0,0,0,0.1v16.8c0,0.5-0.3,0.8-0.8,0.9c-0.5,0-0.8-0.3-0.9-0.8c0,0,0,0,0-0.1
	V21.2c0-0.3-0.3-0.6-0.6-0.6c-0.3,0-0.6,0.3-0.6,0.6c0,0,0,0,0,0v11.7c0,1.1,0.9,2,2.1,2c1.1,0,1.9-0.9,2-2V16.1
	C20.8,15,19.9,14.1,18.8,14.1z"/>
<g>
	<g>
		<path class="st1" d="M27.7,31.2l-8,8c-0.1,0.1-0.2,0.1-0.3,0l-4.6-4.6c-0.1-0.1-0.1-0.2,0-0.3l1.1-1.1c0.1-0.1,0.2-0.1,0.3,0
			l3.3,3.3l6.8-6.8c0.1-0.1,0.2-0.1,0.3,0l1.1,1.1C27.8,31,27.8,31.1,27.7,31.2z"/>
	</g>
	<g>
		<g>
			<path class="st2" d="M27.7,31.2l-8,8c-0.1,0.1-0.2,0.1-0.3,0l-4.6-4.6c-0.1-0.1-0.1-0.2,0-0.3l1.1-1.1c0.1-0.1,0.2-0.1,0.3,0
				l3.3,3.3l6.8-6.8c0.1-0.1,0.2-0.1,0.3,0l1.1,1.1C27.8,31,27.8,31.1,27.7,31.2z"/>
		</g>
	</g>
</g>
</svg>
