<svg xmlns="http://www.w3.org/2000/svg" width="30" height="30" viewBox="0 0 30 30"><defs><style>.a{fill:#176fc7;}</style></defs><circle class="a" cx="1.465" cy="1.465" r="1.465" transform="translate(13.535 20.713)"/><path class="a" d="M15,0A15,15,0,1,0,30,15,14.992,14.992,0,0,0,15,0Zm0,27.656A12.656,12.656,0,1,1,27.656,15,12.649,12.649,0,0,1,15,27.656Z"/><path class="a" d="M180.688,128.5A4.693,4.693,0,0,0,176,133.188a1.172,1.172,0,0,0,2.344,0,2.344,2.344,0,1,1,2.344,2.344,1.172,1.172,0,0,0-1.172,1.172v2.93a1.172,1.172,0,0,0,2.344,0v-1.906a4.688,4.688,0,0,0-1.172-9.227Z" transform="translate(-165.688 -120.971)"/></svg>