<svg xmlns="http://www.w3.org/2000/svg" width="31.667" height="40.001" viewBox="0 0 31.667 40.001"><defs><style>.a{fill:#ffb20f;}</style></defs><g transform="translate(-53.334 0)"><g transform="translate(53.334)"><path class="a" d="M123.271,43.5a.833.833,0,0,0-.833-.833,11.666,11.666,0,0,0-11.292,8.722.833.833,0,1,0,1.613.42,10,10,0,0,1,9.679-7.475A.833.833,0,0,0,123.271,43.5Z" transform="translate(-106.604 -39.334)"/><path class="a" d="M107.546,175.125a.834.834,0,0,0-.869.8c-.008.173-.011.348-.011.522a.833.833,0,1,0,1.667,0c0-.149,0-.3.01-.448A.834.834,0,0,0,107.546,175.125Z" transform="translate(-102.498 -161.442)"/><path class="a" d="M256.861,216.369a.832.832,0,0,0-1.016.6,10,10,0,0,1-9.679,7.475.833.833,0,0,0,0,1.667,11.665,11.665,0,0,0,11.292-8.722A.833.833,0,0,0,256.861,216.369Z" transform="translate(-230.332 -199.44)"/><path class="a" d="M384.658,183.487h.037a.833.833,0,0,0,.832-.8c.008-.173.011-.348.011-.522a.833.833,0,0,0-1.667,0c0,.149,0,.3-.01.448A.834.834,0,0,0,384.658,183.487Z" transform="translate(-358.038 -167.169)"/><path class="a" d="M221.5,133.358a.39.39,0,0,0,.1-.321v-1.027q0-.417-.465-.417h-1.187V123.7a.965.965,0,0,0-1.075-1.107h-.128a3.669,3.669,0,0,0-1.4.321l-1.877.754a.343.343,0,0,0-.241.3,6.981,6.981,0,0,0,.369,1.187.293.293,0,0,0,.289.224.956.956,0,0,0,.369-.08l1.524-.578v6.867h-1.524q-.465,0-.465.417v.995q0,.433.465.433h4.893A.574.574,0,0,0,221.5,133.358Z" transform="translate(-202.585 -113.015)"/><path class="a" d="M84.89,33.417l-4.741-8.21a15,15,0,1,0-21.963,0l-4.74,8.211a.833.833,0,0,0,.937,1.222L60.864,32.9,62.6,39.383a.833.833,0,0,0,.7.61.809.809,0,0,0,.109.007.833.833,0,0,0,.722-.417l5.036-8.739,5.046,8.739A.834.834,0,0,0,74.93,40a.843.843,0,0,0,.109-.007.833.833,0,0,0,.7-.61L77.472,32.9l6.481,1.736a.833.833,0,0,0,.937-1.222Zm-21.2,3.589-1.431-5.34a.833.833,0,0,0-1.021-.589l-5.342,1.431L59.424,26.4a14.938,14.938,0,0,0,8.34,3.539ZM55.834,15A13.334,13.334,0,1,1,69.168,28.334,13.349,13.349,0,0,1,55.834,15ZM77.1,31.077a.833.833,0,0,0-1.021.589l-1.432,5.342-4.084-7.073a14.938,14.938,0,0,0,8.349-3.54l3.529,6.113Z" transform="translate(-53.334)"/></g></g></svg>