<svg xmlns="http://www.w3.org/2000/svg" width="15.827" height="20.778" viewBox="0 0 15.827 20.778"><defs><style>.a{fill:#d0004f;}.b{fill:#ff6378;}.c{fill:#ffb454;}.d{fill:#ffe196;}</style></defs><g transform="translate(-61)"><g transform="translate(61 0)"><g transform="translate(2.009 13.436)"><path class="a" d="M261.488,338.422a.608.608,0,0,1-.588-.451l-1.41-5.261a.609.609,0,0,1,.426-.744l3.13-.863a.609.609,0,0,1,.75.429l1.416,5.284a.609.609,0,0,1-.892.685l-1.461-.844-.843,1.461A.609.609,0,0,1,261.488,338.422Z" transform="translate(-253.424 -331.08)"/><path class="a" d="M114.259,338.423a.609.609,0,0,1-.527-.3l-.843-1.461-1.461.843a.609.609,0,0,1-.892-.685l1.416-5.284a.609.609,0,0,1,.75-.429l3.13.863a.609.609,0,0,1,.426.744l-1.41,5.261a.609.609,0,0,1-.509.446A.616.616,0,0,1,114.259,338.423Z" transform="translate(-110.515 -331.081)"/></g><path class="b" d="M68.913,15.827a2.266,2.266,0,0,1-1.35-.609,2,2,0,0,0-.519-.331,2.057,2.057,0,0,0-.648.025,2.2,2.2,0,0,1-1.442-.145,2.249,2.249,0,0,1-.852-1.188,2.031,2.031,0,0,0-.294-.562,2.03,2.03,0,0,0-.562-.294,2.249,2.249,0,0,1-1.188-.852,2.2,2.2,0,0,1-.145-1.442,2.061,2.061,0,0,0,.025-.648,2,2,0,0,0-.331-.519A2.266,2.266,0,0,1,61,7.913a2.265,2.265,0,0,1,.609-1.35,2,2,0,0,0,.331-.519,2.059,2.059,0,0,0-.025-.648,2.2,2.2,0,0,1,.145-1.442A2.248,2.248,0,0,1,63.247,3.1a2.034,2.034,0,0,0,.562-.294,2.033,2.033,0,0,0,.294-.562,2.248,2.248,0,0,1,.852-1.188A2.2,2.2,0,0,1,66.4.915a2.063,2.063,0,0,0,.648.025,2,2,0,0,0,.519-.331,1.8,1.8,0,0,1,2.7,0,2,2,0,0,0,.519.331A2.06,2.06,0,0,0,71.43.915a2.2,2.2,0,0,1,1.442.145,2.249,2.249,0,0,1,.852,1.188,2.031,2.031,0,0,0,.294.562,2.031,2.031,0,0,0,.562.294,2.248,2.248,0,0,1,1.188.852A2.2,2.2,0,0,1,75.912,5.4a2.061,2.061,0,0,0-.025.648,2,2,0,0,0,.331.519,2.266,2.266,0,0,1,.608,1.35,2.265,2.265,0,0,1-.609,1.35,2,2,0,0,0-.331.519,2.059,2.059,0,0,0,.025.648,2.2,2.2,0,0,1-.145,1.442,2.248,2.248,0,0,1-1.188.852,2.035,2.035,0,0,0-.562.294,2.033,2.033,0,0,0-.294.562,2.248,2.248,0,0,1-.852,1.188,2.2,2.2,0,0,1-1.442.145,2.063,2.063,0,0,0-.648-.025,2,2,0,0,0-.519.331,2.265,2.265,0,0,1-1.35.609Z" transform="translate(-61 0)"/><ellipse class="c" cx="5" cy="4.5" rx="5" ry="4.5" transform="translate(2.914 3.388)"/><path class="c" d="M260.87,79.87A4.87,4.87,0,0,0,256,75v9.74A4.87,4.87,0,0,0,260.87,79.87Z" transform="translate(-248.087 -71.956)"/><path class="d" d="M126.479,70.957a5.479,5.479,0,1,1,5.479-5.479A5.485,5.485,0,0,1,126.479,70.957Zm0-9.74a4.261,4.261,0,1,0,4.261,4.261A4.266,4.266,0,0,0,126.479,61.217Z" transform="translate(-118.565 -57.565)"/><path class="d" d="M260.261,65.479A4.266,4.266,0,0,1,256,69.74v1.217A5.479,5.479,0,1,0,256,60v1.217A4.266,4.266,0,0,1,260.261,65.479Z" transform="translate(-248.087 -57.565)"/><g transform="translate(4.744 4.464)"><path class="d" d="M182.663,116.086a.608.608,0,0,1-.283-.07l-1.3-.683-1.3.683a.609.609,0,0,1-.883-.642l.248-1.447L178.1,112.9a.609.609,0,0,1,.337-1.038l1.452-.211.65-1.316a.609.609,0,0,1,1.092,0l.65,1.316,1.452.211a.609.609,0,0,1,.337,1.038l-1.051,1.024.248,1.447a.609.609,0,0,1-.6.712Z" transform="translate(-177.912 -109.999)"/></g></g><g transform="translate(68.913 4.464)"><path class="d" d="M257.3,116.017a.609.609,0,0,0,.883-.642l-.248-1.447,1.051-1.024a.609.609,0,0,0-.337-1.038l-1.452-.211-.65-1.316A.609.609,0,0,0,256,110v5.334Z" transform="translate(-256 -110)"/></g></g></svg>