<svg width="24" height="21" viewBox="0 0 24 21" fill="none" xmlns="http://www.w3.org/2000/svg">
<g clip-path="url(#clip0)">
<path d="M16.675 12.1875H7.4712C7.10109 12.1875 6.80103 12.4685 6.80103 12.815V14.4754C6.80103 16.5763 8.62643 18.2856 10.8702 18.2856H13.2759C15.5197 18.2856 17.3451 16.5764 17.3451 14.4754V12.815C17.3452 12.4684 17.0451 12.1875 16.675 12.1875ZM13.276 17.0306H10.8703C9.36551 17.0306 8.14138 15.8844 8.14138 14.4755V13.4425H16.0048V14.4755C16.0048 15.8844 14.7807 17.0306 13.276 17.0306Z" fill="#F40000"/>
<path d="M16.675 9.68506H7.4712C7.10109 9.68506 6.80103 9.96602 6.80103 10.3126C6.80103 10.6591 7.10109 10.9401 7.4712 10.9401H16.675C17.0451 10.9401 17.3451 10.6591 17.3451 10.3126C17.3451 9.96602 17.0451 9.68506 16.675 9.68506Z" fill="#F40000"/>
<path d="M20.2397 9.71367V8.9084C20.2397 7.95631 20.0524 7.04453 19.7113 6.20309V1.68443C19.7113 0.849064 18.9855 0.169475 18.0933 0.169475H16.5969C15.7047 0.169475 14.9789 0.849064 14.9789 1.68443V1.76244C14.0756 1.43936 13.0961 1.26176 12.073 1.26176C11.0499 1.26176 10.0705 1.43936 9.16724 1.7624V1.68439C9.16724 0.849023 8.44143 0.169434 7.54925 0.169434H6.05291C5.16073 0.169434 4.43492 0.849023 4.43492 1.68439V6.2026C4.09372 7.04424 3.90628 7.95614 3.90628 8.9084V9.71367C2.18483 9.95041 0.858887 11.342 0.858887 13.0186V16.1105C0.858887 17.1485 1.76075 17.9929 2.86928 17.9929H3.90633V18.2653C3.90633 19.6796 5.13524 20.8302 6.64568 20.8302H17.5003C19.0108 20.8302 20.2397 19.6796 20.2397 18.2653V17.9929H21.2767C22.3853 17.9929 23.2871 17.1485 23.2871 16.1105V13.0186C23.2871 11.342 21.9612 9.95041 20.2397 9.71367ZM3.90633 16.7379H2.86928C2.49979 16.7379 2.19919 16.4564 2.19919 16.1105V13.0185C2.19919 12.0362 2.9282 11.2102 3.90633 10.9902V16.7379ZM16.3192 1.68443C16.3192 1.54108 16.4438 1.42443 16.5969 1.42443H18.0933C18.2464 1.42443 18.371 1.54108 18.371 1.68443V4.04554C17.792 3.38929 17.0983 2.82479 16.3192 2.37899V1.68443H16.3192ZM5.77527 1.68443C5.77527 1.54108 5.89986 1.42443 6.05296 1.42443H7.5493C7.7024 1.42443 7.82698 1.54108 7.82698 1.68443V2.37887C7.0479 2.82467 6.35434 3.38908 5.77532 4.0453V1.68443H5.77527ZM18.8994 18.2653C18.8994 18.9876 18.2718 19.5752 17.5004 19.5752H6.64568C5.87423 19.5752 5.24668 18.9876 5.24668 18.2653V8.9084C5.24668 5.38405 8.30901 2.51672 12.0731 2.51672C14.9044 2.51672 17.3384 4.13914 18.371 6.44311V6.44447H18.3715C18.7113 7.20314 18.8994 8.03559 18.8994 8.90845V18.2653ZM21.9468 16.1106C21.9468 16.4565 21.6462 16.738 21.2767 16.738H20.2397V10.9902C21.2178 11.2103 21.9468 12.0362 21.9468 13.0186V16.1106Z" fill="#F40000"/>
</g>
<defs>
<clipPath id="clip0">
<rect width="22.4282" height="21" fill="white" transform="translate(0.858887)"/>
</clipPath>
</defs>
</svg>
