<svg xmlns="http://www.w3.org/2000/svg" width="19" height="19.834" viewBox="0 0 19 19.834">
  <g id="moon-phase-outline" transform="translate(-9.212 -0.001)">
    <path id="Trazado_895" data-name="Trazado 895" d="M28.2,13.582a.8.8,0,0,0-.226-.44.772.772,0,0,0-.93-.168,7,7,0,0,1-6.473-.284,7.005,7.005,0,0,1-2.558-2.558A6.869,6.869,0,0,1,17.067,6.6a6.9,6.9,0,0,1,2.287-5.168.756.756,0,0,0,.194-.93A.749.749,0,0,0,18.76,0a9.9,9.9,0,0,0-9.548,9.91A9.655,9.655,0,0,0,10,13.762a9.8,9.8,0,0,0,5.285,5.284,9.844,9.844,0,0,0,9.192-.782,9.757,9.757,0,0,0,3.663-4.193A.827.827,0,0,0,28.2,13.582Zm-5.53,3.8a8.133,8.133,0,0,1-3.534.795,8.04,8.04,0,0,1-3.211-.659,8.154,8.154,0,0,1-4.4-4.4,8.038,8.038,0,0,1-.659-3.211,8.249,8.249,0,0,1,5.892-7.92A8.49,8.49,0,0,0,15.414,6.6a8.664,8.664,0,0,0,4.328,7.52A8.519,8.519,0,0,0,24.1,15.287a8.624,8.624,0,0,0,1.421-.116A8.234,8.234,0,0,1,22.668,17.386Z" transform="translate(0 0)" fill="#ed1c24"/>
  </g>
</svg>
