<svg xmlns="http://www.w3.org/2000/svg" width="21.891" height="21.116" viewBox="0 0 21.891 21.116"><defs><style>.a{fill:#fff;}</style></defs><g transform="translate(0 0)"><g transform="translate(2.933 17.567)"><path class="a" d="M53.811,322.505l-.022-.018c-.223-.185-.446-.384-.652-.589a.334.334,0,1,0-.471.473,8.539,8.539,0,0,0,.7.632.335.335,0,0,0,.448-.5Z" transform="translate(-52.569 -321.801)"/></g><g transform="translate(0.069 8.327)"><path class="a" d="M1.835,156.216a.335.335,0,0,0-.444.286c-.067.306-.118.616-.156.926a.335.335,0,0,0,.283.375h.042a.335.335,0,0,0,.333-.295c.036-.29.085-.582.147-.866A.335.335,0,0,0,1.835,156.216Z" transform="translate(-1.232 -156.197)"/></g><g transform="translate(1.403 15.601)"><g transform="translate(0 0)"><path class="a" d="M26.258,287.458c-.172-.237-.335-.482-.484-.732a.335.335,0,0,0-.459-.117h0a.335.335,0,0,0-.117.459h0c.161.268.335.531.52.783a.335.335,0,0,0,.54-.4Z" transform="translate(-25.15 -286.562)"/></g></g><g transform="translate(0.395 13.313)"><g transform="translate(0 0)"><path class="a" d="M8.025,246.638c-.107-.27-.205-.549-.288-.83a.335.335,0,0,0-.415-.228l-.009,0A.335.335,0,0,0,7.09,246c.089.3.192.6.308.893a.338.338,0,1,0,.627-.252Z" transform="translate(-7.076 -245.566)"/></g></g><g transform="translate(0.687 6.015)"><path class="a" d="M13.166,114.789a.335.335,0,0,0-.45.148c-.141.279-.27.567-.384.859a.334.334,0,0,0,.622.245v0a8.05,8.05,0,0,1,.359-.8A.335.335,0,0,0,13.166,114.789Z" transform="translate(-12.309 -114.753)"/></g><g transform="translate(0 10.858)"><g transform="translate(0 0)"><path class="a" d="M.741,202.751h0c-.036-.29-.06-.585-.071-.875A.335.335,0,0,0,0,201.9a7.336,7.336,0,0,0,.076.937.335.335,0,0,0,.324.288H.451A.335.335,0,0,0,.741,202.751Z" transform="translate(0 -201.553)"/></g></g><g transform="translate(8.02 0.585)"><g transform="translate(0 0)"><path class="a" d="M145.34,17.732a.336.336,0,0,0-.367-.3c-.31.031-.623.076-.931.136a.336.336,0,0,0,.063.67l0-.009h.065c.288-.056.58-.1.87-.127A.336.336,0,0,0,145.34,17.732Z" transform="translate(-143.738 -17.428)"/></g></g><g transform="translate(1.874 3.941)"><g transform="translate(0 0)"><path class="a" d="M34.706,77.665a.337.337,0,0,0-.475.029c-.205.234-.4.482-.585.736a.335.335,0,0,0,.27.531v0a.335.335,0,0,0,.272-.138c.172-.237.355-.469.547-.687A.337.337,0,0,0,34.706,77.665Z" transform="translate(-33.582 -77.58)"/></g></g><g transform="translate(10.538 0.543)"><path class="a" d="M190.164,16.784c-.308-.047-.623-.08-.935-.1a.335.335,0,1,0-.04.67c.295.022.587.054.875.1h.051a.336.336,0,1,0,.049-.67Z" transform="translate(-188.873 -16.685)"/></g><g transform="translate(3.577 2.294)"><path class="a" d="M65.437,48.2a.335.335,0,0,0-.451-.083c-.257.176-.509.368-.75.567a.335.335,0,1,0,.429.516c.223-.187.46-.366.7-.531A.335.335,0,0,0,65.437,48.2Z" transform="translate(-64.116 -48.064)"/></g><g transform="translate(5.685 1.129)"><g transform="translate(0 0)"><path class="a" d="M107.811,45.652h0Z" transform="translate(-107.474 -44.622)"/><path class="a" d="M103.409,27.435a.335.335,0,0,0-.457-.218,8.364,8.364,0,0,0-.866.364.333.333,0,1,0,.279.6c.263-.125.536-.239.81-.339A.335.335,0,0,0,103.409,27.435Z" transform="translate(-101.892 -27.189)"/></g></g><g transform="translate(9.67 20.426)"><path class="a" d="M174.9,373.358a.335.335,0,0,0-.356-.314,8.292,8.292,0,0,1-.879.02.335.335,0,1,0-.018.669h.283c.223,0,.446,0,.656-.02A.335.335,0,0,0,174.9,373.358Z" transform="translate(-173.322 -373.044)"/></g><g transform="translate(19.33 12.974)"><g transform="translate(0 0)"><path class="a" d="M347.129,239.5a.335.335,0,0,0-.407.242c-.071.283-.158.565-.257.839a.334.334,0,0,0,.631.22h0c.1-.295.2-.6.275-.893A.335.335,0,0,0,347.129,239.5Z" transform="translate(-346.447 -239.489)"/></g></g><g transform="translate(19.589 7.994)"><g transform="translate(0 0)"><path class="a" d="M351.949,151.387c-.051-.308-.116-.618-.194-.919a.335.335,0,0,0-.647.17c.074.281.134.571.183.859a.335.335,0,0,0,.326.275h.056A.335.335,0,0,0,351.949,151.387Z" transform="translate(-351.099 -150.23)"/></g></g><g transform="translate(2.387)"><g transform="translate(0 0)"><path class="a" d="M62.25,12.257a.325.325,0,0,0-.064-.092l-.591-.616a.324.324,0,0,0-.324-.08l-1.067.324-1.25-1.326L61.76,8.9a.326.326,0,0,0,.1-.524l-.788-.788a.326.326,0,0,0-.324-.076L57.189,8.592l-1.2-1.27a1.082,1.082,0,0,0-1.232-.292h-.02a1.317,1.317,0,0,0-.716.716,1.206,1.206,0,0,0-.071.263l-.136-.047a.335.335,0,1,0-.205.638c.172.056.344.118.516.183a1.285,1.285,0,0,0,.181.223l1.261,1.2L55.208,11.4A7.865,7.865,0,1,0,56.87,13l.571-1.031,1.326,1.25-.319,1.056a.324.324,0,0,0,.078.33s.654.647.67.67a.324.324,0,0,0,.442-.118l0-.007.873-1.6,1.576-.859A.326.326,0,0,0,62.25,12.257ZM45.587,12.7a7.166,7.166,0,0,1,5.073-2.1q.223,0,.446.013c1.265,1.167.893,2.232.045,3.191a15.665,15.665,0,0,1-1.607,1.482A7.052,7.052,0,0,0,47.662,17.3c-.344.777-.091,1.48,1.3,2.093a3.649,3.649,0,0,1,1.219.728l.006.006-.015.005a2.774,2.774,0,0,1-1.053.181A5.433,5.433,0,0,1,45.3,18.472c-.67-.6-1.225-1.091-1.8-1.1A7.166,7.166,0,0,1,45.587,12.7Zm12.272,5.084h0A7.2,7.2,0,0,1,52.9,24.618a2.341,2.341,0,0,1,.275-1.52,5.533,5.533,0,0,1,1.339-1.473c2.06-1.718,2.176-2.678,2.265-3.417.056-.466.1-.815,1.02-1.321A7.272,7.272,0,0,1,57.859,17.782Zm-.415-2.415a7.122,7.122,0,0,1,.245.859c-1.4.714-1.466,1.223-1.551,1.917-.076.625-.174,1.442-2.035,3a6.1,6.1,0,0,0-1.5,1.658,2.96,2.96,0,0,0-.335,1.993,7.191,7.191,0,0,1-8.789-6.756c.355,0,.815.422,1.379.924a6.023,6.023,0,0,0,4.278,2.009,3.347,3.347,0,0,0,1.339-.254.67.67,0,0,0,.37-.42.638.638,0,0,0-.161-.582,4.168,4.168,0,0,0-1.46-.913c-.944-.417-1.149-.824-.964-1.239a6.941,6.941,0,0,1,1.705-1.785,16.244,16.244,0,0,0,1.676-1.562c.933-1.062,1.413-2.221.464-3.488a7.141,7.141,0,0,1,2.9,1.319L54.5,13.736a.326.326,0,0,0,.078.33s.832.826.859.841a.324.324,0,0,0,.442-.118l0-.007.649-1.174A7.176,7.176,0,0,1,57.444,15.367Zm2.993-2.493-.288.143a.321.321,0,0,0-.147.15l-.143.29-.556,1-.163-.179.324-1.069a.324.324,0,0,0-.1-.344L57.6,11.212a.324.324,0,0,0-.458,0l-.009.009c-.022.025-1.607,2.879-1.607,2.879l-.346-.346,1.08-3.56a.324.324,0,0,0-.1-.346l-1.4-1.319A.464.464,0,0,1,54.625,8a.7.7,0,0,1,.364-.362H55a.464.464,0,0,1,.522.134l1.339,1.415a.324.324,0,0,0,.33.089L60.762,8.2l.346.346L58.274,10.1a.324.324,0,0,0-.129.439l0,.007c.013.025,1.721,1.841,1.721,1.841a.324.324,0,0,0,.33.087l1.073-.324.167.167Z" transform="translate(-42.775 -6.948)"/></g></g><g transform="translate(18.204 15.291)"><path class="a" d="M327.251,281.059l-.015-.008a.335.335,0,0,0-.446.132c-.141.257-.295.509-.46.75a.336.336,0,0,0,.549.386c.174-.259.339-.529.491-.8A.335.335,0,0,0,327.251,281.059Z" transform="translate(-326.269 -281.013)"/></g><g transform="translate(19.864 10.451)"><path class="a" d="M356.4,194.255a.335.335,0,0,0-.339.33s0,.009,0,.014v.038c0,.292-.013.587-.04.879a.335.335,0,0,0,.3.364h.032a.335.335,0,0,0,.337-.31c.029-.31.042-.625.042-.937v-.045A.335.335,0,0,0,356.4,194.255Z" transform="translate(-356.019 -194.255)"/></g><g transform="translate(7.187 20.064)"><g transform="translate(0 0)"><path class="a" d="M130.114,366.77a6.921,6.921,0,0,1-.857-.2.335.335,0,0,0-.222.632l.039.011c.3.085.607.158.915.223h.062a.336.336,0,0,0,.062-.67Z" transform="translate(-128.811 -366.555)"/></g></g><g transform="translate(12.156 19.958)"><g transform="translate(0 0)"><path class="a" d="M219.389,364.884a.335.335,0,0,0-.406-.206v.009a6.663,6.663,0,0,1-.846.223.335.335,0,1,0,.147.654c.3-.069.609-.154.906-.25A.335.335,0,0,0,219.389,364.884Z" transform="translate(-217.876 -364.665)"/></g></g><g transform="translate(4.91 19.086)"><g transform="translate(0 0)"><path class="a" d="M89.28,349.492c-.266-.132-.527-.275-.779-.417a.335.335,0,1,0-.339.578c.27.158.549.306.832.446a.335.335,0,1,0,.286-.607Z" transform="translate(-87.997 -349.029)"/></g></g><g transform="translate(16.557 17.309)"><g transform="translate(0 0)"><path class="a" d="M297.964,317.258a.335.335,0,0,0-.467.015h0a8.111,8.111,0,0,1-.629.614.335.335,0,0,0,.446.5c.223-.208.46-.428.669-.656A.335.335,0,0,0,297.964,317.258Z" transform="translate(-296.758 -317.171)"/></g></g><g transform="translate(14.499 18.903)"><path class="a" d="M261.279,345.909a.335.335,0,0,0-.459-.116l-.016.01v-.009c-.246.156-.5.3-.761.446a.335.335,0,1,0,.306.6c.277-.143.551-.3.815-.469A.335.335,0,0,0,261.279,345.909Z" transform="translate(-259.861 -345.746)"/></g></g></svg>