<svg xmlns="http://www.w3.org/2000/svg" width="16.729" height="28.59" viewBox="0 0 16.729 28.59"><defs><style>.a{fill:#ed1c24;}</style></defs><g transform="translate(-0.002)"><path class="a" d="M16.542,28.59H.187A1.32,1.32,0,0,1,0,27.911V17.17A8.373,8.373,0,0,1,4.374,9.82a5.721,5.721,0,1,1,9.713-4.1,5.671,5.671,0,0,1-1.733,4.1,8.374,8.374,0,0,1,4.375,7.35V27.911a1.321,1.321,0,0,1-.187.678ZM8.364,11.447A5.729,5.729,0,0,0,2.641,17.17v9.421H14.087V17.17A5.729,5.729,0,0,0,8.364,11.447Zm0-8.8a3.081,3.081,0,1,0,3.082,3.082A3.085,3.085,0,0,0,8.364,2.642Z" transform="translate(0.001 0)"/></g></svg>