<svg xmlns="http://www.w3.org/2000/svg" width="11.118" height="19" viewBox="0 0 11.118 19"><defs><style>.a{fill:#ed1c24;}</style></defs><g transform="translate(-0.001 -0.001)"><path class="a" d="M10.994,19H.125A.877.877,0,0,1,0,18.55V11.411A5.563,5.563,0,0,1,2.908,6.527,3.8,3.8,0,1,1,9.364,3.8,3.771,3.771,0,0,1,8.212,6.527a5.563,5.563,0,0,1,2.907,4.884V18.55a.877.877,0,0,1-.124.45ZM5.56,7.608a3.808,3.808,0,0,0-3.8,3.8v6.261H9.364V11.411A3.808,3.808,0,0,0,5.56,7.608Zm0-5.852A2.048,2.048,0,1,0,7.608,3.8,2.051,2.051,0,0,0,5.56,1.756Z"/></g></svg>