<svg xmlns="http://www.w3.org/2000/svg" width="23.383" height="22.848" viewBox="0 0 23.383 22.848"><defs><style>.a{fill:#ed1c24;}</style></defs><g transform="translate(-0.001 -5.301)"><g transform="translate(0 5.301)"><path class="a" d="M22.782,7.174a.608.608,0,0,0-.606.606V23.862a3.083,3.083,0,0,1-3.08,3.08H4.292a3.083,3.083,0,0,1-3.08-3.08V6.513H18.95v15.6a.606.606,0,1,0,1.212,0V5.907a.608.608,0,0,0-.606-.606H.606A.608.608,0,0,0,0,5.907v17.95a4.3,4.3,0,0,0,4.292,4.292h14.8a4.3,4.3,0,0,0,4.292-4.292V7.78A.6.6,0,0,0,22.782,7.174Z" transform="translate(0 -5.301)"/><path class="a" d="M69.515,75.713a.606.606,0,0,0,0-1.212H56.306a.606.606,0,0,0,0,1.212Z" transform="translate(-52.888 -71.007)"/><path class="a" d="M69.515,319.1H56.306a.606.606,0,1,0,0,1.212h13.2a.606.606,0,0,0,.005-1.212Z" transform="translate(-52.888 -303.257)"/><path class="a" d="M51.7,129.007v6.554a.608.608,0,0,0,.606.606h6.579a.608.608,0,0,0,.606-.606v-6.554a.608.608,0,0,0-.606-.606H52.306A.608.608,0,0,0,51.7,129.007Zm1.212.606h5.367v5.342H52.912Z" transform="translate(-49.09 -122.185)"/><path class="a" d="M242.363,140.4h-4.357a.606.606,0,1,0,0,1.212h4.357a.606.606,0,0,0,0-1.212Z" transform="translate(-225.413 -133.58)"/><path class="a" d="M242.363,194.6h-4.357a.606.606,0,1,0,0,1.212h4.357a.606.606,0,1,0,0-1.212Z" transform="translate(-225.413 -185.043)"/><path class="a" d="M242.969,252.807a.608.608,0,0,0-.606-.606h-4.357a.606.606,0,0,0,0,1.212h4.357A.6.6,0,0,0,242.969,252.807Z" transform="translate(-225.413 -239.735)"/></g></g></svg>