<svg xmlns="http://www.w3.org/2000/svg" width="20.886" height="20.01" viewBox="0 0 20.886 20.01"><defs><style>.a{fill:#f3b700;}</style></defs><path class="a" d="M20.432,10.115A1.5,1.5,0,0,0,19.6,7.56l-5.057-.735a.661.661,0,0,1-.5-.362L11.786,1.882a1.5,1.5,0,0,0-2.686,0L6.838,6.464a.661.661,0,0,1-.5.362l-5.057.735a1.5,1.5,0,0,0-.831,2.555l3.659,3.567a.662.662,0,0,1,.191.586L3.439,19.3a1.466,1.466,0,0,0,.327,1.215,1.514,1.514,0,0,0,1.846.364L10.135,18.5a.677.677,0,0,1,.616,0l4.523,2.378a1.482,1.482,0,0,0,.7.174,1.5,1.5,0,0,0,1.149-.539,1.466,1.466,0,0,0,.327-1.215l-.864-5.036a.662.662,0,0,1,.191-.586Z" transform="translate(0.001 -1.047)"/></svg>