<svg xmlns="http://www.w3.org/2000/svg" width="40.353" height="40.313" viewBox="0 0 40.353 40.313"><defs><style>.a{fill:#ffb20f;}</style></defs><g transform="translate(0 -0.5)"><path class="a" d="M40.34,18.334h0a2.316,2.316,0,0,0-.893-1.592l-2.3-1.788.863-2.848A2.306,2.306,0,0,0,36.33,9.19l-2.889-.675-.369-2.944a2.307,2.307,0,0,0-2.723-1.978l-2.914.559L25.9,1.612A2.331,2.331,0,0,0,22.918.724,1.372,1.372,0,0,0,22.7.847L20.174,2.609,17.739.913a2.307,2.307,0,0,0-3.292.7L12.913,4.152,10,3.593A2.306,2.306,0,0,0,7.276,5.572L6.907,8.516l-3.056.713-.143.047L3.655,9.3a2.308,2.308,0,0,0-1.32,2.806L3.2,14.954.8,16.817l-.139.121-.039.043A2.335,2.335,0,0,0,.55,20.074l1.875,2.242L.9,25.075l-.061.138-.018.051a2.334,2.334,0,0,0,1.2,2.863l2.686,1.26-.252,2.956a2.307,2.307,0,0,0,2.252,2.5L9.68,34.9l.973,2.8a2.306,2.306,0,0,0,3.075,1.369l2.734-1.152,2.146,2.29.112.1.043.032a2.369,2.369,0,0,0,1.41.466,2.3,2.3,0,0,0,1.683-.724l2.029-2.165,2.734,1.153a2.306,2.306,0,0,0,3.074-1.369l.973-2.8,3.138-.062.149-.016.054-.011a2.335,2.335,0,0,0,1.878-2.471l-.251-2.956,2.686-1.26a2.306,2.306,0,0,0,1.04-3.2l-1.438-2.609L39.8,20.074A2.315,2.315,0,0,0,40.34,18.334ZM35.686,21.3a1.4,1.4,0,0,0-.157,1.573l1.728,3.136-3.242,1.521a1.4,1.4,0,0,0-.8,1.38l.3,3.568-3.58.071a1.4,1.4,0,0,0-1.289.937L27.48,36.871l-3.3-1.391a1.4,1.4,0,0,0-1.559.331l-2.448,2.613-2.448-2.613a1.4,1.4,0,0,0-1.02-.44,1.382,1.382,0,0,0-.538.109l-3.3,1.391-1.174-3.382a1.4,1.4,0,0,0-1.289-.937l-3.58-.071.3-3.568a1.4,1.4,0,0,0-.8-1.38L3.09,26.012l1.728-3.136A1.4,1.4,0,0,0,4.661,21.3l-2.275-2.72,2.787-2.168a1.4,1.4,0,0,0,.483-1.508L4.617,11.48,8.1,10.666A1.4,1.4,0,0,0,9.17,9.482l.445-3.553,3.517.675a1.4,1.4,0,0,0,1.455-.648l1.851-3.064,2.938,2.046a1.4,1.4,0,0,0,1.593,0l2.938-2.046L25.76,5.955a1.4,1.4,0,0,0,1.456.649l3.516-.675.445,3.552a1.4,1.4,0,0,0,1.066,1.184l3.487.814-1.038,3.427a1.4,1.4,0,0,0,.483,1.508l2.786,2.169Zm0,0" transform="translate(0 0)"/><path class="a" d="M140.115,128.781a10.048,10.048,0,1,0,10.049,10.048A10.06,10.06,0,0,0,140.115,128.781Zm0,17.731a7.682,7.682,0,1,1,7.682-7.682A7.691,7.691,0,0,1,140.115,146.512Zm0,0" transform="translate(-119.816 -118.171)"/><path class="a" d="M201.248,212.641l-4.668,4.667-1.267-1.267a1.183,1.183,0,0,0-1.673,1.673l2.1,2.1a1.183,1.183,0,0,0,1.673,0l5.5-5.5a1.183,1.183,0,0,0-1.673-1.673Zm0,0" transform="translate(-178.06 -195.102)"/></g></svg>