<svg xmlns="http://www.w3.org/2000/svg" width="19.734" height="13.945" viewBox="0 0 19.734 13.945"><defs><style>.a{fill:#fff;}</style></defs><g transform="translate(0 0)"><path class="a" d="M287.08,151.957a.658.658,0,1,0,.658.658A.658.658,0,0,0,287.08,151.957Zm0,0" transform="translate(-275.897 -141.958)"/><path class="a" d="M128.438,13.945h15.787a1.976,1.976,0,0,0,1.973-1.973v-10A1.976,1.976,0,0,0,144.225,0H128.438a1.976,1.976,0,0,0-1.973,1.973v10A1.976,1.976,0,0,0,128.438,13.945Zm16.445-8.683h-17.1V3.946h17.1Zm-.658,7.368H128.438a.659.659,0,0,1-.658-.658V6.578h17.1v5.394a.659.659,0,0,1-.658.658ZM128.438,1.315h15.787a.658.658,0,0,1,.658.658v.658h-17.1V1.973a.658.658,0,0,1,.658-.658Zm0,0" transform="translate(-126.465 0)"/><path class="a" d="M329.7,151.957h-2.631a.658.658,0,0,0,0,1.316H329.7a.658.658,0,1,0,0-1.316Zm0,0" transform="translate(-313.255 -141.958)"/></g></svg>