<svg xmlns="http://www.w3.org/2000/svg" width="52.257" height="52.257" viewBox="0 0 52.257 52.257"><defs><style>.a{fill:#f5bb00;}</style></defs><g transform="translate(0 0)"><path class="a" d="M44.6,7.653A26.128,26.128,0,0,0,7.653,44.6,26.128,26.128,0,0,0,44.6,7.653ZM26.128,50.215A24.087,24.087,0,1,1,50.215,26.128,24.114,24.114,0,0,1,26.128,50.215Z" transform="translate(0 0)"/></g><g transform="translate(33.455 5.805)"><path class="a" d="M342.108,73.009a22.024,22.024,0,0,0-12.895-16.05,1.021,1.021,0,1,0-.811,1.873,19.984,19.984,0,0,1,11.7,14.562,1.021,1.021,0,0,0,2-.386Z" transform="translate(-327.787 -56.875)"/></g><g transform="translate(29.605 4.564)"><path class="a" d="M291.323,44.75l-.027-.006a1.021,1.021,0,1,0-.43,2l.012,0a1.021,1.021,0,0,0,.445-1.992Z" transform="translate(-290.061 -44.721)"/></g><g transform="translate(4.462 29.104)"><path class="a" d="M57.669,300.643a19.951,19.951,0,0,1-11.932-14.661,1.021,1.021,0,0,0-2,.386,22.081,22.081,0,0,0,13.149,16.158,1.021,1.021,0,0,0,.788-1.883Z" transform="translate(-43.714 -285.154)"/></g><g transform="translate(20.543 45.636)"><path class="a" d="M202.581,447.169l-.063-.014a1.021,1.021,0,1,0-.443,1.993l.071.016a1.021,1.021,0,1,0,.434-1.994Z" transform="translate(-201.276 -447.131)"/></g><g transform="translate(29.104 29.605)"><path class="a" d="M302.939,290.085a1.021,1.021,0,0,0-1.214.78,19.953,19.953,0,0,1-15.742,15.364,1.021,1.021,0,1,0,.386,2A22.071,22.071,0,0,0,303.719,291.3,1.021,1.021,0,0,0,302.939,290.085Z" transform="translate(-285.154 -290.061)"/></g><g transform="translate(4.564 4.462)"><path class="a" d="M63.29,44.543a1.02,1.02,0,0,0-1.2-.809A22.071,22.071,0,0,0,44.744,60.667a1.021,1.021,0,1,0,1.995.434A19.952,19.952,0,0,1,62.481,45.738,1.021,1.021,0,0,0,63.29,44.543Z" transform="translate(-44.721 -43.715)"/></g><g transform="translate(22.658 22.658)"><path class="a" d="M225.47,222a3.47,3.47,0,1,0,3.47,3.47A3.474,3.474,0,0,0,225.47,222Zm0,4.9a1.429,1.429,0,1,1,1.429-1.429A1.431,1.431,0,0,1,225.47,226.9Z" transform="translate(-222 -222)"/></g><g transform="translate(25.123 4.083)"><path class="a" d="M247.173,40a1.021,1.021,0,0,0-1.021,1.021v2.287a1.021,1.021,0,1,0,2.041,0V41.021A1.021,1.021,0,0,0,247.173,40Z" transform="translate(-246.152 -40)"/></g><g transform="translate(25.092 43.118)"><path class="a" d="M246.869,422.464a1.021,1.021,0,0,0-1.021,1.021V426.5a1.021,1.021,0,0,0,2.041,0v-3.015A1.021,1.021,0,0,0,246.869,422.464Z" transform="translate(-245.848 -422.464)"/></g><g transform="translate(43.377 25.123)"><path class="a" d="M428.776,246.152h-2.756a1.021,1.021,0,0,0,0,2.041h2.756a1.021,1.021,0,0,0,0-2.041Z" transform="translate(-425 -246.152)"/></g><g transform="translate(4.083 25.092)"><path class="a" d="M43.98,245.848h-2.96a1.021,1.021,0,0,0,0,2.041h2.96a1.021,1.021,0,0,0,0-2.041Z" transform="translate(-40 -245.848)"/></g><g transform="translate(17.997 25.108)"><path class="a" d="M182.015,246h-4.661a1.021,1.021,0,1,0,0,2.041h4.661a1.021,1.021,0,0,0,0-2.041Z" transform="translate(-176.333 -246)"/></g><g transform="translate(25.108 13.098)"><path class="a" d="M247.021,128.333A1.021,1.021,0,0,0,246,129.354v9.56a1.021,1.021,0,1,0,2.041,0v-9.56A1.021,1.021,0,0,0,247.021,128.333Z" transform="translate(-246 -128.333)"/></g></svg>