<svg xmlns="http://www.w3.org/2000/svg" width="35.476" height="36.694" viewBox="0 0 35.476 36.694">
  <g id="travel" transform="translate(-8.5)">
    <g id="Grupo_1551" data-name="Grupo 1551" transform="translate(8.5)">
      <path id="Trazado_941" data-name="Trazado 941" d="M43.2,19.9l-.009-.008a2.688,2.688,0,0,0-1.888-.76,3.066,3.066,0,0,0-1.445.373V7.707a2.067,2.067,0,0,0-2.064-2.065H33.529V3.988A3.993,3.993,0,0,0,29.542,0H18.4a3.992,3.992,0,0,0-3.986,3.988V5.642H10.564A2.067,2.067,0,0,0,8.5,7.707V27.383a2.067,2.067,0,0,0,2.064,2.065h6.4a.723.723,0,0,0,0-1.445h-6.4a.627.627,0,0,1-.619-.62V25.7H31.291l1.715.976-1.379,1.651-2.8-.809a.723.723,0,0,0-.724.2L27.831,28H22.847a.723.723,0,1,0,0,1.445h3.7a.721.721,0,0,0,.338.859l2.151,1.182a1.977,1.977,0,0,0,.155,2.317l.009.009c.035.036.071.072.11.108a1.693,1.693,0,0,0,.132.131,1.731,1.731,0,0,0,1.173.44,2.417,2.417,0,0,0,1.142-.311l1.206,2.142a.723.723,0,0,0,1.135.163l1.445-1.409a.723.723,0,0,0,.187-.726l-.84-2.792,1.635-1.4,2.606,4.475a.723.723,0,0,0,1.133.15l1.818-1.8a.723.723,0,0,0,.181-.733L40.49,26.675l2.435-2.489A2.979,2.979,0,0,0,43.2,19.9Zm-4.787-12.2v6.078a.62.62,0,0,1-.619.62H34.518V7.087h3.275A.62.62,0,0,1,38.411,7.707Zm-23.127-.62h2.278V14.4H15.284Zm17.788,0V14.4H30.794V7.087Zm-3.4-1.445H18.276V3.988a.128.128,0,0,1,.125-.126H29.542a.128.128,0,0,1,.125.126V5.642ZM13.862,15.85h5.123V17.4H13.862ZM19.008,14.4V7.087h10.34V14.4H19.008ZM29.371,15.85h5.123V17.4H29.371ZM18.4,1.446H29.542a2.545,2.545,0,0,1,2.542,2.543V5.642h-.971V3.988a1.573,1.573,0,0,0-1.571-1.572H18.4A1.573,1.573,0,0,0,16.83,3.988V5.642h-.969V3.988A2.544,2.544,0,0,1,18.4,1.446ZM9.945,7.707a.62.62,0,0,1,.619-.62h3.275V14.4H10.564a.62.62,0,0,1-.619-.62Zm0,16.549v-8.5a2.055,2.055,0,0,0,.619.095h1.852v2.275a.723.723,0,0,0,.723.723h6.569a.723.723,0,0,0,.723-.723V15.85h7.5v2.275a.723.723,0,0,0,.723.723h6.569a.723.723,0,0,0,.723-.723V15.85h1.853a2.055,2.055,0,0,0,.619-.095v4.96l-1.959,1.96-5.6-1.717a.724.724,0,0,0-.731.188l-1.778,1.838a.723.723,0,0,0,.162,1.131l.246.14H9.945Zm31.943-1.078-2.735,2.8a.723.723,0,0,0-.172.724l1.773,5.577-.84.83-2.572-4.417a.723.723,0,0,0-1.094-.186L33.6,30.77a.723.723,0,0,0-.223.758l.85,2.824-.458.446-1.146-2.036a.723.723,0,0,0-1.1-.191l-.091.079-.034.032a1.256,1.256,0,0,1-.771.369.286.286,0,0,1-.211-.073.241.241,0,0,1-.02-.019.731.731,0,0,0-.08-.083c-.019-.016-.035-.032-.049-.046-.191-.219.042-.725.289-.98l.032-.036.079-.094a.723.723,0,0,0-.2-1.1l-2.048-1.125.441-.463,2.829.818a.723.723,0,0,0,.755-.231l2.236-2.677a.723.723,0,0,0-.2-1.092l-2.631-1.5-.021-.012-1.791-1.019.822-.85,5.591,1.714a.722.722,0,0,0,.723-.18l2.761-2.763a2,2,0,0,1,1.373-.661,1.252,1.252,0,0,1,.875.346C42.651,21.41,42.745,22.292,41.888,23.178Z" transform="translate(-8.5)" fill="#6b253c"/>
      <path id="Trazado_942" data-name="Trazado 942" d="M159.469,390.728h-.012a.723.723,0,1,0,0,1.445h.012a.723.723,0,0,0,0-1.445Z" transform="translate(-147.967 -362.725)" fill="#6b253c"/>
    </g>
  </g>
</svg>
