<svg xmlns="http://www.w3.org/2000/svg" width="35.167" height="11.005" viewBox="0 0 35.167 11.005"><defs><style>.a{fill:#2394bc;}.b{fill:#efc75e;}</style></defs><g transform="translate(0 -100.23)"><g transform="translate(3.286 100.23)"><path class="a" d="M38.351,100.23l-1.765,10.983h2.821l1.764-10.983ZM46.86,104.7c-.986-.487-1.59-.815-1.59-1.313.012-.453.511-.917,1.625-.917a4.909,4.909,0,0,1,2.1.407l.256.114.384-2.3a7.12,7.12,0,0,0-2.532-.453c-2.786,0-4.748,1.448-4.76,3.52-.023,1.529,1.4,2.377,2.473,2.886,1.091.522,1.463.86,1.463,1.324-.012.712-.882,1.041-1.695,1.041a5.737,5.737,0,0,1-2.647-.566l-.371-.169-.395,2.388a8.81,8.81,0,0,0,3.146.567c2.961,0,4.887-1.427,4.911-3.634C49.24,106.39,48.487,105.462,46.86,104.7Zm10.008-4.44H54.686a1.4,1.4,0,0,0-1.475.884l-4.19,10.066h2.961l.815-2.179h3.312l.423,2.188h2.611Zm-3.251,6.571c.057.006,1.136-3.557,1.136-3.557l.859,3.557Zm-19.389-6.6-2.764,7.462-.3-1.472a8.2,8.2,0,0,0-3.9-4.46l2.531,9.441h2.985l4.436-10.971H34.229Z" transform="translate(-27.262 -100.23)"/></g><path class="b" d="M6.258,101.662a1.843,1.843,0,0,0-1.835-1.414H.045l-.045.2a10.745,10.745,0,0,1,7.21,5.869Z" transform="translate(0 -0.016)"/></g></svg>