<svg xmlns="http://www.w3.org/2000/svg" width="23.843" height="18.022" viewBox="0 0 23.843 18.022"><defs><style>.a{fill:#898989;}</style></defs><g transform="translate(0 0)"><g transform="translate(0 0)"><path class="a" d="M72.273,164.679a1.278,1.278,0,0,0,1.808,1.808,8.835,8.835,0,0,1,12.48,0,1.277,1.277,0,1,0,1.8-1.808A11.385,11.385,0,0,0,72.273,164.679Z" transform="translate(-68.396 -156.398)"/><path class="a" d="M143.073,263.387a1.278,1.278,0,0,0,1.808,1.808,3.941,3.941,0,0,1,5.575,0,1.275,1.275,0,1,0,1.8-1.8A6.5,6.5,0,0,0,143.073,263.387Z" transform="translate(-135.746 -251.656)"/><circle class="a" cx="1.701" cy="1.701" r="1.701" transform="translate(10.221 14.621)"/><path class="a" d="M23.47,64.5a16.358,16.358,0,0,0-23.1,0,1.278,1.278,0,0,0,1.808,1.808,13.791,13.791,0,0,1,19.487,0,1.277,1.277,0,0,0,1.8-1.808Z" transform="translate(0 -59.725)"/></g></g></svg>