<svg width="21" height="22" viewBox="0 0 21 22" fill="none" xmlns="http://www.w3.org/2000/svg">
<path d="M20.8886 0.171583C20.8265 0.0977318 20.7435 0.0442201 20.6504 0.0180387C20.5573 -0.00814279 20.4584 -0.00577687 20.3667 0.024827L2.13677 6.08881C2.05445 6.11615 1.9811 6.16516 1.92452 6.23063C1.86793 6.2961 1.83021 6.37559 1.81537 6.46066C1.80053 6.54573 1.80911 6.63321 1.84021 6.71383C1.87131 6.79444 1.92377 6.86517 1.99201 6.91851L6.65683 10.5653V13.9893C6.65677 14.0789 6.68201 14.1666 6.72967 14.2426C6.77733 14.3186 6.84549 14.3798 6.92639 14.4191C7.00728 14.4584 7.09765 14.4743 7.1872 14.465C7.27674 14.4557 7.36185 14.4215 7.43283 14.3664L9.48615 12.7764L12.4124 15.0641C12.4674 15.107 12.531 15.1375 12.599 15.1535C12.6669 15.1694 12.7376 15.1705 12.806 15.1565C12.8744 15.1426 12.9389 15.114 12.9951 15.0728C13.0513 15.0315 13.0978 14.9786 13.1313 14.9176L20.9416 0.70668C20.9877 0.622467 21.0073 0.526433 20.9978 0.431023C20.9883 0.335613 20.9503 0.245228 20.8886 0.171583ZM17.7975 1.88838L7.14633 9.73147L3.28746 6.71464L17.7975 1.88838ZM7.61825 13.0112V11.3168L8.70712 12.1681L7.61825 13.0112ZM12.5605 13.9636L7.93002 10.3442L19.0501 2.15565L12.5605 13.9636Z" fill="white"/>
<path d="M0.958785 19.8915C0.837338 19.8529 0.70547 19.8639 0.592155 19.922C0.47884 19.9801 0.393348 20.0806 0.354463 20.2014C0.23195 20.5824 0.117129 20.9882 0.0138451 21.4077C-0.0165345 21.5309 0.00352915 21.6611 0.0696225 21.7696C0.135716 21.8781 0.242425 21.956 0.366275 21.9862C0.490124 22.0165 0.62097 21.9965 0.730027 21.9308C0.839083 21.865 0.917418 21.7588 0.947797 21.6356C1.04614 21.2374 1.15464 20.8529 1.27029 20.4927C1.28956 20.4329 1.29678 20.3699 1.29155 20.3073C1.28632 20.2447 1.26874 20.1837 1.23981 20.1279C1.21088 20.072 1.17117 20.0224 1.12295 19.9819C1.07473 19.9413 1.01894 19.9106 0.958785 19.8915Z" fill="white"/>
<path d="M5.72851 15.3437C5.12092 15.1661 4.47065 15.1996 3.88478 15.4388C4.0334 14.7938 4.31217 14.1855 4.70419 13.6509C4.77979 13.551 4.81306 13.4257 4.79687 13.3017C4.78069 13.1777 4.71633 13.0649 4.61759 12.9875C4.51885 12.9102 4.39358 12.8744 4.26862 12.8878C4.14366 12.9012 4.02895 12.9627 3.94906 13.0593C3.89412 13.1287 2.86705 14.4457 2.85221 16.0474C2.11833 16.6763 1.52595 17.4521 1.11369 18.3242C1.08523 18.3802 1.06815 18.4413 1.06342 18.504C1.0587 18.5666 1.06642 18.6296 1.08615 18.6893C1.10588 18.7489 1.13723 18.8042 1.17841 18.8518C1.21959 18.8994 1.2698 18.9385 1.32616 18.9668C1.38253 18.9951 1.44395 19.0121 1.50691 19.0168C1.56988 19.0215 1.63316 19.0138 1.69314 18.9942C1.81427 18.9546 1.91462 18.8687 1.9721 18.7554C2.2484 18.1888 2.60451 17.6643 3.02967 17.1977C3.05109 17.2616 3.07462 17.3254 3.10026 17.389C3.2756 17.8764 3.60811 18.2924 4.04596 18.5722C4.4838 18.8519 5.00238 18.9797 5.52085 18.9355C5.94179 18.8868 6.33283 18.6947 6.62759 18.3918C6.92235 18.0889 7.10268 17.6938 7.13796 17.2736C7.25003 16.4267 6.67043 15.6326 5.72851 15.3437ZM6.18478 17.149C6.17515 17.3584 6.09107 17.5576 5.94752 17.711C5.80398 17.8644 5.61031 17.9621 5.40108 17.9867C5.09358 18.0047 4.78872 17.921 4.53403 17.7486C4.27934 17.5762 4.08911 17.3249 3.99301 17.0337C3.9273 16.8705 3.87959 16.7007 3.85072 16.5273C4.08267 16.3737 4.34445 16.2702 4.61912 16.2235C4.8938 16.1769 5.17526 16.1881 5.4453 16.2565C5.93041 16.4065 6.2345 16.7735 6.18478 17.149Z" fill="white"/>
</svg>
