<svg xmlns="http://www.w3.org/2000/svg" width="19.486" height="14.829" viewBox="0 0 19.486 14.829"><defs><style>.a{fill:#fff;}</style></defs><path class="a" d="M17.107,57.75H2.383A2.385,2.385,0,0,0,0,60.133V70.2a2.385,2.385,0,0,0,2.383,2.383H17.1A2.385,2.385,0,0,0,19.486,70.2V60.137A2.382,2.382,0,0,0,17.107,57.75ZM18.4,70.2a1.3,1.3,0,0,1-1.294,1.294H2.383A1.3,1.3,0,0,1,1.089,70.2V60.137a1.3,1.3,0,0,1,1.294-1.294H17.1A1.3,1.3,0,0,1,18.4,60.137V70.2Z" transform="translate(0 -57.75)"/><path class="a" d="M65.794,114.13l4.766-4.274a.545.545,0,1,0-.73-.81l-6.572,5.9L61.976,113.8s-.008-.008-.008-.012a.806.806,0,0,0-.089-.077l-5.217-4.669a.545.545,0,0,0-.726.814l4.822,4.31-4.8,4.5a.547.547,0,0,0-.024.77.557.557,0,0,0,.4.173.545.545,0,0,0,.371-.145l4.875-4.56,1.322,1.181a.543.543,0,0,0,.726,0l1.359-1.218,4.846,4.6a.546.546,0,0,0,.77-.02.547.547,0,0,0-.02-.77Z" transform="translate(-53.504 -106.84)"/></svg>