<svg width="19" height="21" viewBox="0 0 19 21" fill="none" xmlns="http://www.w3.org/2000/svg">
<path d="M0.399205 15.2519C0.180731 15.2519 0.00341797 15.0559 0.00341797 14.8145V2.18969C0.00341797 0.983202 0.891564 0.00244141 1.98235 0.00244141H13.856C14.0341 0.00244141 14.2185 0.031313 14.4045 0.0890563C14.6151 0.152924 14.7386 0.394396 14.6808 0.626243C14.623 0.859841 14.4021 0.998075 14.194 0.931583C14.076 0.895712 13.962 0.877339 13.856 0.877339H1.98235C1.32772 0.877339 0.794992 1.46614 0.794992 2.18969V14.8145C0.794992 15.0559 0.617679 15.2519 0.399205 15.2519Z" fill="#ED1C24"/>
<path d="M13.853 20.9999H5.5969C5.37842 20.9999 5.20111 20.8039 5.20111 20.5625C5.20111 20.321 5.37763 20.125 5.5969 20.125H13.853C14.5076 20.125 15.0404 19.5362 15.0404 18.8127V10.3874C15.0404 10.1459 15.2177 9.94995 15.4362 9.94995C15.6546 9.94995 15.832 10.1459 15.832 10.3874V18.8127C15.832 20.0191 14.9438 20.9999 13.853 20.9999Z" fill="#ED1C24"/>
<path d="M5.59757 20.9999C5.49467 20.9999 5.39335 20.9553 5.31735 20.8722L0.115922 15.1233C0.0027271 14.9982 -0.0313106 14.81 0.0304322 14.6464C0.0913834 14.4828 0.236241 14.3761 0.396139 14.3761H4.806C5.46063 14.3761 5.99336 14.9649 5.99336 15.6884V20.5625C5.99336 20.7392 5.89679 20.8993 5.74876 20.9667C5.70048 20.9886 5.64902 20.9999 5.59757 20.9999ZM1.35157 15.251L5.20178 19.5065V15.6884C5.20178 15.4478 5.02447 15.251 4.806 15.251H1.35157Z" fill="#ED1C24"/>
<path d="M7.73556 12.8879C7.63187 12.8879 7.53134 12.8424 7.45535 12.7602C7.35482 12.649 7.31603 12.4872 7.35323 12.3358L8.19309 8.93336C8.25009 8.70063 8.47014 8.5659 8.67912 8.62627C8.89047 8.68926 9.01475 8.93073 8.95696 9.16346L8.29916 11.8266L10.7095 11.1005C10.9193 11.0401 11.1385 11.174 11.1955 11.4076C11.2533 11.6412 11.129 11.8818 10.9177 11.9448L7.83926 12.8721C7.80522 12.8826 7.77039 12.8879 7.73556 12.8879Z" fill="#ED1C24"/>
<path d="M10.8141 11.9597C10.7128 11.9597 10.6115 11.9168 10.5339 11.8319L8.29452 9.35773C8.22012 9.27549 8.17896 9.16438 8.17896 9.04802C8.17896 8.93165 8.22091 8.82054 8.29452 8.7383L15.8509 0.386531C16.2981 -0.107786 17.081 -0.109536 17.5298 0.386531L18.6491 1.62364C19.1122 2.13545 19.1122 2.96748 18.6491 3.47929L11.0927 11.8311C11.0167 11.9168 10.9154 11.9597 10.8141 11.9597ZM9.13518 9.04802L10.8149 10.9037L18.091 2.86162C18.2454 2.69101 18.2454 2.41367 18.091 2.24306L16.9718 1.00596C16.8214 0.840603 16.5609 0.840603 16.4121 1.00596L9.13518 9.04802Z" fill="#ED1C24"/>
</svg>
