<svg width="191" height="41" viewBox="0 0 191 41" fill="none" xmlns="http://www.w3.org/2000/svg">
<rect width="191" height="41" rx="5" fill="#6B253C"/>
<path d="M81.6999 26.3024H73.8249V15.8024H81.5349V17.7374H75.9849V19.7624H80.4549V21.6674H75.9849V24.3674H81.6999V26.3024ZM82.7746 18.8174H85.1446L86.6446 20.9174L88.1596 18.8174H90.4996L87.8746 22.3874L90.7246 26.3024H88.3546L86.6146 23.9024L84.8596 26.3024H82.5196L85.3846 22.4024L82.7746 18.8174ZM96.5905 18.6224C97.6105 18.6224 98.4505 19.0024 99.1105 19.7624C99.7805 20.5024 100.115 21.4374 100.115 22.5674C100.115 23.6774 99.7805 24.6124 99.1105 25.3724C98.4505 26.1224 97.6105 26.4974 96.5905 26.4974C95.5405 26.4974 94.7205 26.1274 94.1305 25.3874V29.3024H92.0155V18.8174H94.1305V19.7324C94.6905 18.9924 95.5105 18.6224 96.5905 18.6224ZM95.9905 20.4674C95.5905 20.4674 95.2255 20.5724 94.8955 20.7824C94.5655 20.9924 94.3105 21.2624 94.1305 21.5924V23.5424C94.3105 23.8724 94.5655 24.1424 94.8955 24.3524C95.2255 24.5524 95.5905 24.6524 95.9905 24.6524C96.5905 24.6524 97.0755 24.4524 97.4455 24.0524C97.8255 23.6424 98.0155 23.1474 98.0155 22.5674C98.0155 21.9774 97.8255 21.4774 97.4455 21.0674C97.0755 20.6674 96.5905 20.4674 95.9905 20.4674ZM103.259 22.5524C103.259 23.1524 103.454 23.6524 103.844 24.0524C104.234 24.4524 104.729 24.6524 105.329 24.6524C105.929 24.6524 106.424 24.4524 106.814 24.0524C107.204 23.6424 107.399 23.1424 107.399 22.5524C107.399 21.9524 107.204 21.4574 106.814 21.0674C106.424 20.6674 105.929 20.4674 105.329 20.4674C104.729 20.4674 104.234 20.6674 103.844 21.0674C103.454 21.4574 103.259 21.9524 103.259 22.5524ZM101.174 22.5524C101.174 21.4424 101.564 20.5124 102.344 19.7624C103.114 19.0024 104.109 18.6224 105.329 18.6224C106.549 18.6224 107.544 19.0024 108.314 19.7624C109.094 20.5224 109.484 21.4524 109.484 22.5524C109.484 23.6724 109.094 24.6124 108.314 25.3724C107.534 26.1224 106.539 26.4974 105.329 26.4974C104.119 26.4974 103.124 26.1224 102.344 25.3724C101.564 24.6124 101.174 23.6724 101.174 22.5524ZM113.159 26.3024H111.044V18.8174H113.159V20.0774C113.389 19.6774 113.739 19.3374 114.209 19.0574C114.699 18.7674 115.219 18.6224 115.769 18.6224C115.889 18.6224 115.969 18.6274 116.009 18.6374V20.7074C115.809 20.6574 115.589 20.6324 115.349 20.6324C114.859 20.6324 114.409 20.7624 113.999 21.0224C113.599 21.2724 113.319 21.5774 113.159 21.9374V26.3024ZM118.546 23.9774V20.5874H117.076V18.8174H118.546V16.7624H120.661V18.8174H122.791V20.5874H120.661V23.5574C120.661 23.9274 120.741 24.1974 120.901 24.3674C121.061 24.5274 121.321 24.6074 121.681 24.6074C122.051 24.6074 122.416 24.5174 122.776 24.3374V26.0924C122.336 26.3624 121.741 26.4974 120.991 26.4974C119.361 26.4974 118.546 25.6574 118.546 23.9774ZM131.587 24.6674C131.767 24.6674 131.912 24.6374 132.022 24.5774V26.1224C131.752 26.3324 131.372 26.4374 130.882 26.4374C130.032 26.4374 129.467 26.1174 129.187 25.4774C128.527 26.1574 127.667 26.4974 126.607 26.4974C125.787 26.4974 125.122 26.2674 124.612 25.8074C124.102 25.3474 123.847 24.7424 123.847 23.9924C123.847 23.1924 124.137 22.5824 124.717 22.1624C125.297 21.7424 125.992 21.5324 126.802 21.5324C127.652 21.5324 128.372 21.6874 128.962 21.9974V21.7724C128.962 20.8324 128.302 20.3624 126.982 20.3624C126.172 20.3624 125.417 20.5724 124.717 20.9924V19.2224C125.477 18.8224 126.402 18.6224 127.492 18.6224C128.572 18.6224 129.432 18.8824 130.072 19.4024C130.732 19.9224 131.062 20.6424 131.062 21.5624V24.0974C131.062 24.4774 131.237 24.6674 131.587 24.6674ZM128.962 24.0974V23.3474C128.522 23.0574 128.002 22.9124 127.402 22.9124C126.952 22.9124 126.592 22.9974 126.322 23.1674C126.062 23.3374 125.932 23.5774 125.932 23.8874C125.932 24.2074 126.052 24.4524 126.292 24.6224C126.532 24.7824 126.857 24.8624 127.267 24.8624C128.007 24.8624 128.572 24.6074 128.962 24.0974ZM135.6 26.3024H133.485V18.8174H135.6V20.0774C135.83 19.6774 136.18 19.3374 136.65 19.0574C137.14 18.7674 137.66 18.6224 138.21 18.6224C138.33 18.6224 138.41 18.6274 138.45 18.6374V20.7074C138.25 20.6574 138.03 20.6324 137.79 20.6324C137.3 20.6324 136.85 20.7624 136.44 21.0224C136.04 21.2724 135.76 21.5774 135.6 21.9374V26.3024Z" fill="white"/>
<path d="M61.3285 15.3236C60.0916 13.9617 58.1144 13.962 56.8778 15.3242L51.6918 21.1604C50.754 22.2405 50.7719 23.9716 51.7318 25.0269C52.6758 26.0649 54.1836 26.0649 55.1277 25.0269L59.8237 19.7422C60.4342 19.0552 60.4342 17.9413 59.8237 17.2543C59.2132 16.5673 58.2234 16.5673 57.6129 17.2543L53.121 22.3092C52.9643 22.4918 52.9688 22.7827 53.131 22.959C53.2893 23.131 53.5402 23.131 53.6984 22.959L58.1903 17.9041C58.4882 17.583 58.961 17.5944 59.2463 17.9296C59.523 18.2547 59.523 18.7674 59.2463 19.0925L54.5502 24.3771C53.9158 25.0809 52.8946 25.0726 52.2692 24.3587C51.6501 23.652 51.6501 22.5168 52.2692 21.8101L57.4553 15.974C58.379 14.9341 59.877 14.9338 60.8011 15.9733C61.7252 17.0129 61.7255 18.6986 60.8018 19.7385L55.6156 25.5747C55.4443 25.7398 55.4244 26.0299 55.5711 26.2226C55.7178 26.4154 55.9756 26.4378 56.1469 26.2728C56.1629 26.2573 56.1777 26.2406 56.1914 26.2226L61.3775 20.3865C62.6064 18.9732 62.5844 16.7064 61.3285 15.3236Z" fill="white"/>
</svg>
