<svg height="512pt" viewBox="0 0 512 512" width="512pt" xmlns="http://www.w3.org/2000/svg"><path d="m256 0c-141.160156 0-256 114.839844-256 256s114.839844 256 256 256 256-114.839844 256-256-114.839844-256-256-256zm0 401.671875c-17.449219 0-34.761719-3.152344-50.988281-9.210937l187.449219-187.441407c6.058593 16.21875 9.210937 33.53125 9.210937 50.980469 0 80.320312-65.351563 145.671875-145.671875 145.671875zm0-291.34375c17.449219 0 34.761719 3.152344 50.988281 9.210937l-187.449219 187.441407c-6.058593-16.21875-9.210937-33.53125-9.210937-50.980469 0-80.320312 65.351563-145.671875 145.671875-145.671875zm0 0" fill="#ff3939"/><path d="m306.988281 119.539062-50.988281 50.988282v170.945312l136.460938-136.453125c6.058593 16.21875 9.210937 33.53125 9.210937 50.980469 0 80.320312-65.351563 145.671875-145.671875 145.671875v110.328125c141.160156 0 256-114.839844 256-256s-114.839844-256-256-256v110.328125c17.449219 0 34.761719 3.152344 50.988281 9.210937zm0 0" fill="#b00000"/></svg>