<svg width="165" height="18" viewBox="0 0 165 18" fill="none" xmlns="http://www.w3.org/2000/svg">
<path d="M9 4.92188C6.7513 4.92188 4.92188 6.75134 4.92188 9C4.92188 11.2487 6.7513 13.0781 9 13.0781C9.42001 13.0781 9.83443 13.0144 10.2317 12.8886C10.602 12.7715 10.8071 12.3763 10.6899 12.0061C10.5727 11.6359 10.1775 11.4307 9.80736 11.5479C9.54749 11.6302 9.27587 11.6719 9 11.6719C7.52674 11.6719 6.32812 10.4733 6.32812 9C6.32812 7.52671 7.52674 6.32812 9 6.32812C10.4733 6.32812 11.6719 7.52671 11.6719 9C11.6719 9.25604 11.6359 9.50903 11.5648 9.75185C11.4558 10.1246 11.6696 10.5151 12.0423 10.6241C12.4151 10.7331 12.8055 10.5193 12.9146 10.1466C13.0231 9.77548 13.0781 9.38967 13.0781 9C13.0781 6.75134 11.2487 4.92188 9 4.92188Z" fill="#EE1D25"/>
<path d="M15.8906 6.5391H15.5366C15.4434 6.5391 15.359 6.48042 15.3224 6.3919L15.3161 6.37671C15.2783 6.28552 15.2964 6.18402 15.3622 6.11814L15.6126 5.86775C16.4351 5.04531 16.4351 3.70709 15.6126 2.88464L15.1155 2.38746C14.717 1.98904 14.1873 1.76962 13.6239 1.76962C13.0604 1.76962 12.5307 1.98904 12.1323 2.38746L11.882 2.63781C11.8161 2.70373 11.7144 2.7218 11.6237 2.68407L11.6104 2.67859C11.5196 2.64108 11.461 2.55667 11.461 2.46354V2.10938C11.461 0.946266 10.5147 0 9.3516 0H8.64847C7.48536 0 6.5391 0.946266 6.5391 2.10938V2.46354C6.5391 2.55667 6.48046 2.64108 6.39042 2.67824L6.37668 2.68393C6.28559 2.72183 6.18398 2.70373 6.11814 2.63784L5.86775 2.38746C5.46936 1.98904 4.93963 1.76962 4.37618 1.76962C3.81273 1.76962 3.28303 1.98904 2.88461 2.38746L2.38743 2.88457C1.56498 3.70705 1.56498 5.04524 2.38746 5.86772L2.63781 6.11807C2.70369 6.18398 2.72176 6.28548 2.68284 6.37928L2.67859 6.38954C2.64111 6.48035 2.55663 6.53903 2.4635 6.53903H2.10938C0.946266 6.53903 0 7.48529 0 8.6484V9.35153C0 10.5146 0.946266 11.4609 2.10938 11.4609H2.46347C2.55663 11.4609 2.64104 11.5196 2.67764 11.6081L2.6839 11.6233C2.72176 11.7145 2.70366 11.816 2.63777 11.8819L2.38743 12.1322C1.989 12.5307 1.76959 13.0604 1.76959 13.6238C1.76959 14.1872 1.989 14.7169 2.38739 15.1154L2.88457 15.6125C3.283 16.011 3.81273 16.2304 4.37614 16.2304C4.93963 16.2304 5.46933 16.011 5.86772 15.6125L6.11807 15.3622C6.18391 15.2963 6.28555 15.2782 6.37636 15.3159L6.38961 15.3214C6.48042 15.3589 6.53906 15.4433 6.53906 15.5365V15.8906C6.53906 17.0537 7.48533 18 8.64844 18H9.35156C10.5147 18 11.4609 17.0537 11.4609 15.8906V15.5365C11.4609 15.4433 11.5196 15.3589 11.6096 15.3218L11.6234 15.3161C11.7145 15.2782 11.8161 15.2963 11.8819 15.3622L12.1323 15.6125C12.5307 16.011 13.0604 16.2304 13.6239 16.2304C14.1873 16.2304 14.717 16.011 15.1154 15.6125L15.6126 15.1154C16.011 14.717 16.2304 14.1872 16.2304 13.6238C16.2304 13.0604 16.011 12.5307 15.6126 12.1323L15.3622 11.8819C15.2963 11.816 15.2782 11.7145 15.3161 11.6233L15.3214 11.6105C15.3589 11.5196 15.4434 11.461 15.5365 11.461H15.8906C17.0537 11.461 18 10.5147 18 9.3516V8.64847C18 7.48536 17.0537 6.5391 15.8906 6.5391ZM16.5938 9.35156C16.5938 9.73927 16.2783 10.0547 15.8906 10.0547H15.5365C14.8719 10.0547 14.2773 10.4546 14.0216 11.0736L14.0171 11.0847C13.7605 11.7034 13.8981 12.4065 14.3678 12.8763L14.6182 13.1266C14.751 13.2594 14.8241 13.436 14.8241 13.6238C14.8241 13.8116 14.751 13.9882 14.6182 14.121L14.121 14.6182C13.9882 14.751 13.8116 14.8241 13.6238 14.8241C13.436 14.8241 13.2594 14.751 13.1266 14.6182L12.8762 14.3678C12.4063 13.8979 11.7027 13.7604 11.0836 14.0175L11.0737 14.0216C10.4547 14.2772 10.0547 14.8718 10.0547 15.5365V15.8906C10.0547 16.2783 9.73927 16.5938 9.35156 16.5938H8.64844C8.26073 16.5938 7.94531 16.2783 7.94531 15.8906V15.5365C7.94531 14.8718 7.54534 14.2772 6.92561 14.0213L6.91611 14.0174C6.70904 13.9314 6.49259 13.8896 6.27848 13.8896C5.85271 13.8896 5.43646 14.0551 5.12374 14.3678L4.87336 14.6182C4.74054 14.751 4.56402 14.8241 4.37618 14.8241C4.18837 14.8241 4.01179 14.751 3.879 14.6182L3.38182 14.121C3.249 13.9882 3.17587 13.8116 3.17587 13.6238C3.17587 13.436 3.249 13.2594 3.38182 13.1266L3.6322 12.8763C4.10193 12.4065 4.23953 11.7034 3.98292 11.0847L3.97835 11.0736C3.7227 10.4546 3.1281 10.0547 2.4635 10.0547H2.10938C1.72167 10.0547 1.40625 9.73927 1.40625 9.35156V8.64844C1.40625 8.26073 1.72167 7.94531 2.10938 7.94531H2.4635C3.12813 7.94531 3.72273 7.54537 3.9793 6.92413L3.98257 6.91615C4.23963 6.29726 4.1021 5.59371 3.63217 5.12374L3.38182 4.87339C3.10764 4.59921 3.10764 4.15315 3.38182 3.879L3.87896 3.38182C4.01182 3.24904 4.18837 3.17587 4.37618 3.17587C4.56402 3.17587 4.74057 3.249 4.87336 3.38182L5.12378 3.63224C5.59378 4.10214 6.29736 4.23967 6.91643 3.98246L6.92634 3.97835C7.54534 3.72277 7.94531 3.12817 7.94531 2.46354V2.10938C7.94531 1.72167 8.26073 1.40625 8.64844 1.40625H9.35156C9.73927 1.40625 10.0547 1.72167 10.0547 2.10938V2.46354C10.0547 3.12817 10.4547 3.72277 11.0744 3.97863L11.0839 3.98257C11.7027 4.23956 12.4063 4.10207 12.8763 3.63217L13.1266 3.38175C13.2595 3.24896 13.436 3.17584 13.6238 3.17584C13.8116 3.17584 13.9882 3.249 14.121 3.38179L14.6182 3.87896C14.8924 4.15311 14.8924 4.59918 14.6182 4.87332L14.3678 5.12374C13.8979 5.59371 13.7604 6.29722 14.0164 6.91355L14.0216 6.92638C14.2773 7.54537 14.8719 7.94531 15.5365 7.94531H15.8906C16.2783 7.94531 16.5938 8.26073 16.5938 8.64844V9.35156Z" fill="#EE1D25"/>
<path d="M30.7849 15.195C30.0649 15.195 29.4049 15.075 28.8049 14.835C28.2049 14.585 27.6899 14.24 27.2599 13.8C26.8299 13.35 26.4949 12.82 26.2549 12.21C26.0149 11.59 25.8949 10.91 25.8949 10.17C25.8949 9.43 26.0149 8.75 26.2549 8.13C26.4949 7.51 26.8299 6.975 27.2599 6.525C27.6999 6.075 28.2199 5.725 28.8199 5.475C29.4299 5.225 30.0999 5.1 30.8299 5.1C31.4399 5.1 31.9699 5.175 32.4199 5.325C32.8799 5.475 33.2599 5.66 33.5599 5.88C33.8699 6.09 34.0999 6.315 34.2499 6.555C34.4099 6.785 34.4899 6.985 34.4899 7.155C34.4899 7.335 34.4449 7.485 34.3549 7.605C34.2649 7.715 34.1649 7.805 34.0549 7.875C33.9449 7.935 33.8399 7.975 33.7399 7.995C33.6499 8.005 33.5999 8.005 33.5899 7.995C33.3099 7.505 32.9199 7.135 32.4199 6.885C31.9199 6.625 31.3949 6.495 30.8449 6.495C30.3549 6.495 29.9049 6.585 29.4949 6.765C29.0849 6.935 28.7299 7.185 28.4299 7.515C28.1399 7.835 27.9099 8.22 27.7399 8.67C27.5799 9.11 27.4999 9.6 27.4999 10.14C27.4999 10.68 27.5849 11.175 27.7549 11.625C27.9249 12.065 28.1599 12.45 28.4599 12.78C28.7599 13.1 29.1149 13.35 29.5249 13.53C29.9349 13.71 30.3849 13.8 30.8749 13.8C31.5349 13.8 32.1149 13.65 32.6149 13.35C33.1249 13.05 33.4799 12.635 33.6799 12.105C33.6899 12.085 33.7449 12.085 33.8449 12.105C33.9449 12.115 34.0549 12.155 34.1749 12.225C34.2949 12.285 34.3999 12.375 34.4899 12.495C34.5899 12.605 34.6399 12.75 34.6399 12.93C34.6399 13.11 34.5599 13.33 34.3999 13.59C34.2399 13.85 33.9999 14.1 33.6799 14.34C33.3599 14.57 32.9599 14.77 32.4799 14.94C31.9999 15.11 31.4349 15.195 30.7849 15.195ZM38.4669 14.1C38.7869 14.1 39.0819 14.055 39.3519 13.965C39.6319 13.865 39.8669 13.73 40.0569 13.56C40.2569 13.38 40.4119 13.17 40.5219 12.93C40.6319 12.69 40.6869 12.43 40.6869 12.15V11.595L40.2819 11.61C39.2219 11.65 38.4269 11.78 37.8969 12C37.3669 12.21 37.1019 12.56 37.1019 13.05C37.1019 13.37 37.2219 13.625 37.4619 13.815C37.7019 14.005 38.0369 14.1 38.4669 14.1ZM40.6869 10.515C40.6869 9.965 40.5319 9.545 40.2219 9.255C39.9219 8.965 39.4819 8.82 38.9019 8.82C38.3519 8.82 37.9119 8.945 37.5819 9.195C37.2519 9.435 37.0019 9.72 36.8319 10.05C36.8319 10.05 36.7819 10.05 36.6819 10.05C36.5919 10.04 36.4869 10.015 36.3669 9.975C36.2569 9.925 36.1519 9.85 36.0519 9.75C35.9619 9.65 35.9169 9.51 35.9169 9.33C35.9169 9.16 35.9819 8.975 36.1119 8.775C36.2419 8.565 36.4369 8.375 36.6969 8.205C36.9569 8.035 37.2769 7.895 37.6569 7.785C38.0469 7.665 38.4969 7.605 39.0069 7.605C40.0369 7.605 40.8169 7.855 41.3469 8.355C41.8869 8.855 42.1569 9.565 42.1569 10.485V14.91C42.1569 14.95 42.1019 14.985 41.9919 15.015C41.8819 15.055 41.7569 15.075 41.6169 15.075C41.3569 15.075 41.1419 14.995 40.9719 14.835C40.8019 14.665 40.7119 14.355 40.7019 13.905C40.4319 14.295 40.0719 14.605 39.6219 14.835C39.1719 15.055 38.6669 15.165 38.1069 15.165C37.3269 15.165 36.7219 14.98 36.2919 14.61C35.8619 14.23 35.6469 13.73 35.6469 13.11C35.6469 12.27 36.0419 11.66 36.8319 11.28C37.6319 10.9 38.8519 10.695 40.4919 10.665H40.6869V10.515ZM45.3884 8.835C45.6384 8.475 45.9484 8.18 46.3184 7.95C46.6884 7.72 47.1234 7.605 47.6234 7.605C48.2134 7.605 48.7034 7.74 49.0934 8.01C49.4934 8.27 49.7884 8.64 49.9784 9.12C50.2284 8.7 50.5584 8.345 50.9684 8.055C51.3784 7.755 51.8834 7.605 52.4834 7.605C53.4034 7.605 54.0834 7.865 54.5234 8.385C54.9734 8.905 55.1984 9.635 55.1984 10.575V14.355C55.1984 14.625 55.1384 14.81 55.0184 14.91C54.8984 15.01 54.7384 15.06 54.5384 15.06H54.3884C54.1884 15.06 54.0234 15.01 53.8934 14.91C53.7734 14.81 53.7134 14.625 53.7134 14.355V10.755C53.7134 9.525 53.1834 8.91 52.1234 8.91C51.7434 8.91 51.3884 9.02 51.0584 9.24C50.7384 9.46 50.4834 9.75 50.2934 10.11V14.355C50.2934 14.625 50.2334 14.81 50.1134 14.91C49.9934 15.01 49.8334 15.06 49.6334 15.06H49.4834C49.2834 15.06 49.1184 15.01 48.9884 14.91C48.8684 14.81 48.8084 14.625 48.8084 14.355V10.815C48.8084 9.545 48.2784 8.91 47.2184 8.91C46.8384 8.91 46.4834 9.02 46.1534 9.24C45.8334 9.46 45.5834 9.75 45.4034 10.11V14.355C45.4034 14.625 45.3384 14.81 45.2084 14.91C45.0884 15.01 44.9334 15.06 44.7434 15.06H44.5784C44.3784 15.06 44.2184 15.01 44.0984 14.91C43.9784 14.81 43.9184 14.625 43.9184 14.355V7.875C43.9184 7.855 43.9684 7.825 44.0684 7.785C44.1784 7.735 44.3084 7.71 44.4584 7.71C44.5684 7.71 44.6734 7.725 44.7734 7.755C44.8734 7.785 44.9684 7.845 45.0584 7.935C45.1484 8.015 45.2234 8.13 45.2834 8.28C45.3434 8.42 45.3784 8.605 45.3884 8.835ZM58.4255 11.85C58.4255 12.15 58.4855 12.43 58.6055 12.69C58.7255 12.95 58.8855 13.175 59.0855 13.365C59.2855 13.555 59.5205 13.705 59.7905 13.815C60.0605 13.915 60.3455 13.965 60.6455 13.965C61.3255 13.965 61.8705 13.73 62.2805 13.26C62.6905 12.79 62.8955 12.17 62.8955 11.4C62.8955 11.02 62.8405 10.675 62.7305 10.365C62.6205 10.055 62.4655 9.785 62.2655 9.555C62.0755 9.325 61.8405 9.15 61.5605 9.03C61.2905 8.9 60.9955 8.835 60.6755 8.835C60.1255 8.835 59.6605 8.97 59.2805 9.24C58.9005 9.51 58.6155 9.875 58.4255 10.335V11.85ZM58.4255 14.355C58.4255 14.625 58.3655 14.81 58.2455 14.91C58.1255 15.01 57.9705 15.06 57.7805 15.06H57.6155C57.4155 15.06 57.2555 15.01 57.1355 14.91C57.0155 14.81 56.9555 14.625 56.9555 14.355V4.86C56.9555 4.84 57.0055 4.81 57.1055 4.77C57.2155 4.72 57.3455 4.695 57.4955 4.695C57.6055 4.695 57.7155 4.715 57.8255 4.755C57.9455 4.785 58.0505 4.85 58.1405 4.95C58.2305 5.04 58.3005 5.17 58.3505 5.34C58.4105 5.5 58.4405 5.71 58.4405 5.97V8.895C58.7305 8.485 59.0805 8.17 59.4905 7.95C59.9105 7.72 60.4005 7.605 60.9605 7.605C61.4405 7.605 61.8855 7.695 62.2955 7.875C62.7155 8.055 63.0755 8.31 63.3755 8.64C63.6755 8.97 63.9105 9.37 64.0805 9.84C64.2505 10.3 64.3355 10.815 64.3355 11.385C64.3355 11.955 64.2505 12.475 64.0805 12.945C63.9105 13.405 63.6755 13.805 63.3755 14.145C63.0755 14.475 62.7155 14.735 62.2955 14.925C61.8755 15.105 61.4155 15.195 60.9155 15.195C60.3155 15.195 59.8005 15.07 59.3705 14.82C58.9405 14.57 58.6255 14.27 58.4255 13.92V14.355ZM66.5399 6.24C66.2599 6.24 66.0399 6.17 65.8799 6.03C65.7299 5.88 65.6549 5.675 65.6549 5.415C65.6549 5.145 65.7299 4.94 65.8799 4.8C66.0399 4.65 66.2649 4.575 66.5549 4.575C67.1349 4.575 67.4249 4.855 67.4249 5.415C67.4249 5.965 67.1299 6.24 66.5399 6.24ZM66.4649 15.06C66.2649 15.06 66.0999 15.01 65.9699 14.91C65.8499 14.81 65.7899 14.625 65.7899 14.355V8.43C65.7899 8.16 65.8499 7.975 65.9699 7.875C66.0999 7.765 66.2649 7.71 66.4649 7.71H66.6149C66.8149 7.71 66.9749 7.76 67.0949 7.86C67.2149 7.96 67.2749 8.15 67.2749 8.43V14.355C67.2749 14.625 67.2149 14.81 67.0949 14.91C66.9749 15.01 66.8149 15.06 66.6149 15.06H66.4649ZM71.587 14.1C71.907 14.1 72.202 14.055 72.472 13.965C72.752 13.865 72.987 13.73 73.177 13.56C73.377 13.38 73.532 13.17 73.642 12.93C73.752 12.69 73.807 12.43 73.807 12.15V11.595L73.402 11.61C72.342 11.65 71.547 11.78 71.017 12C70.487 12.21 70.222 12.56 70.222 13.05C70.222 13.37 70.342 13.625 70.582 13.815C70.822 14.005 71.157 14.1 71.587 14.1ZM73.807 10.515C73.807 9.965 73.652 9.545 73.342 9.255C73.042 8.965 72.602 8.82 72.022 8.82C71.472 8.82 71.032 8.945 70.702 9.195C70.372 9.435 70.122 9.72 69.952 10.05C69.952 10.05 69.902 10.05 69.802 10.05C69.712 10.04 69.607 10.015 69.487 9.975C69.377 9.925 69.272 9.85 69.172 9.75C69.082 9.65 69.037 9.51 69.037 9.33C69.037 9.16 69.102 8.975 69.232 8.775C69.362 8.565 69.557 8.375 69.817 8.205C70.077 8.035 70.397 7.895 70.777 7.785C71.167 7.665 71.617 7.605 72.127 7.605C73.157 7.605 73.937 7.855 74.467 8.355C75.007 8.855 75.277 9.565 75.277 10.485V14.91C75.277 14.95 75.222 14.985 75.112 15.015C75.002 15.055 74.877 15.075 74.737 15.075C74.477 15.075 74.262 14.995 74.092 14.835C73.922 14.665 73.832 14.355 73.822 13.905C73.552 14.295 73.192 14.605 72.742 14.835C72.292 15.055 71.787 15.165 71.227 15.165C70.447 15.165 69.842 14.98 69.412 14.61C68.982 14.23 68.767 13.73 68.767 13.11C68.767 12.27 69.162 11.66 69.952 11.28C70.752 10.9 71.972 10.695 73.612 10.665H73.807V10.515ZM78.5085 8.97C78.8285 8.06 79.4385 7.605 80.3385 7.605C80.7185 7.605 81.0085 7.69 81.2085 7.86C81.4185 8.03 81.5235 8.265 81.5235 8.565C81.5235 8.705 81.4985 8.825 81.4485 8.925C81.4085 9.025 81.3585 9.11 81.2985 9.18C81.2485 9.24 81.1985 9.285 81.1485 9.315C81.1085 9.335 81.0835 9.34 81.0735 9.33C80.9635 9.24 80.8335 9.165 80.6835 9.105C80.5335 9.045 80.3585 9.015 80.1585 9.015C79.8685 9.015 79.6185 9.085 79.4085 9.225C79.1985 9.355 79.0285 9.545 78.8985 9.795C78.7685 10.045 78.6735 10.34 78.6135 10.68C78.5535 11.02 78.5235 11.4 78.5235 11.82V14.355C78.5235 14.625 78.4585 14.81 78.3285 14.91C78.2085 15.01 78.0535 15.06 77.8635 15.06H77.6985C77.4985 15.06 77.3385 15.01 77.2185 14.91C77.0985 14.81 77.0385 14.625 77.0385 14.355V7.875C77.0385 7.855 77.0885 7.825 77.1885 7.785C77.2985 7.735 77.4285 7.71 77.5785 7.71C77.6885 7.71 77.7985 7.73 77.9085 7.77C78.0185 7.8 78.1185 7.865 78.2085 7.965C78.2985 8.055 78.3685 8.18 78.4185 8.34C78.4785 8.5 78.5085 8.71 78.5085 8.97ZM85.1834 9C84.9534 9 84.7884 8.955 84.6884 8.865C84.5884 8.765 84.5384 8.625 84.5384 8.445V8.34C84.5384 8.16 84.5884 8.025 84.6884 7.935C84.7884 7.835 84.9534 7.785 85.1834 7.785H85.7084V6.675C85.7084 6.415 85.7684 6.235 85.8884 6.135C86.0084 6.025 86.1684 5.97 86.3684 5.97H86.5184C86.7184 5.97 86.8734 6.02 86.9834 6.12C87.1034 6.21 87.1634 6.395 87.1634 6.675V7.785H88.7984C89.0284 7.785 89.1884 7.83 89.2784 7.92C89.3784 8.01 89.4284 8.145 89.4284 8.325V8.43C89.4284 8.62 89.3784 8.765 89.2784 8.865C89.1784 8.955 89.0134 9 88.7834 9H87.1484V12.645C87.1484 13.095 87.2184 13.43 87.3584 13.65C87.5084 13.87 87.7584 13.98 88.1084 13.98C88.3384 13.98 88.5384 13.935 88.7084 13.845C88.8784 13.745 89.0184 13.62 89.1284 13.47C89.1384 13.46 89.1634 13.465 89.2034 13.485C89.2534 13.505 89.3034 13.54 89.3534 13.59C89.4034 13.64 89.4484 13.71 89.4884 13.8C89.5284 13.88 89.5484 13.98 89.5484 14.1C89.5484 14.38 89.4034 14.635 89.1134 14.865C88.8234 15.085 88.4084 15.195 87.8684 15.195C87.1184 15.195 86.5684 14.995 86.2184 14.595C85.8784 14.185 85.7084 13.59 85.7084 12.81V9H85.1834ZM91.5448 6.24C91.2648 6.24 91.0448 6.17 90.8848 6.03C90.7348 5.88 90.6598 5.675 90.6598 5.415C90.6598 5.145 90.7348 4.94 90.8848 4.8C91.0448 4.65 91.2698 4.575 91.5598 4.575C92.1398 4.575 92.4298 4.855 92.4298 5.415C92.4298 5.965 92.1348 6.24 91.5448 6.24ZM91.4698 15.06C91.2698 15.06 91.1048 15.01 90.9748 14.91C90.8548 14.81 90.7948 14.625 90.7948 14.355V8.43C90.7948 8.16 90.8548 7.975 90.9748 7.875C91.1048 7.765 91.2698 7.71 91.4698 7.71H91.6198C91.8198 7.71 91.9798 7.76 92.0998 7.86C92.2198 7.96 92.2798 8.15 92.2798 8.43V14.355C92.2798 14.625 92.2198 14.81 92.0998 14.91C91.9798 15.01 91.8198 15.06 91.6198 15.06H91.4698ZM95.6619 11.85C95.6619 12.15 95.7219 12.43 95.8419 12.69C95.9619 12.95 96.1219 13.175 96.3219 13.365C96.5219 13.555 96.7569 13.705 97.0269 13.815C97.2969 13.915 97.5819 13.965 97.8819 13.965C98.5619 13.965 99.1069 13.73 99.5169 13.26C99.9269 12.79 100.132 12.17 100.132 11.4C100.132 11.02 100.077 10.675 99.9669 10.365C99.8569 10.055 99.7019 9.785 99.5019 9.555C99.3119 9.325 99.0769 9.15 98.7969 9.03C98.5269 8.9 98.2319 8.835 97.9119 8.835C97.3619 8.835 96.8969 8.97 96.5169 9.24C96.1369 9.51 95.8519 9.875 95.6619 10.335V11.85ZM95.6769 17.235C95.6769 17.505 95.6119 17.69 95.4819 17.79C95.3619 17.89 95.2069 17.94 95.0169 17.94H94.8519C94.6519 17.94 94.4919 17.89 94.3719 17.79C94.2519 17.69 94.1919 17.505 94.1919 17.235V7.875C94.1919 7.855 94.2419 7.825 94.3419 7.785C94.4519 7.735 94.5819 7.71 94.7319 7.71C94.9619 7.71 95.1719 7.795 95.3619 7.965C95.5519 8.125 95.6519 8.455 95.6619 8.955C95.9519 8.535 96.3019 8.205 96.7119 7.965C97.1319 7.725 97.6269 7.605 98.1969 7.605C98.6769 7.605 99.1219 7.695 99.5319 7.875C99.9519 8.055 100.312 8.31 100.612 8.64C100.912 8.97 101.147 9.37 101.317 9.84C101.487 10.3 101.572 10.815 101.572 11.385C101.572 11.955 101.487 12.475 101.317 12.945C101.147 13.405 100.912 13.805 100.612 14.145C100.312 14.475 99.9519 14.735 99.5319 14.925C99.1119 15.105 98.6519 15.195 98.1519 15.195C97.8519 15.195 97.5719 15.155 97.3119 15.075C97.0619 15.005 96.8319 14.91 96.6219 14.79C96.4119 14.66 96.2269 14.515 96.0669 14.355C95.9069 14.195 95.7769 14.025 95.6769 13.845V17.235ZM106.311 15.195C105.751 15.195 105.236 15.105 104.766 14.925C104.306 14.735 103.911 14.47 103.581 14.13C103.251 13.79 102.991 13.39 102.801 12.93C102.621 12.46 102.531 11.945 102.531 11.385C102.531 10.835 102.621 10.33 102.801 9.87C102.991 9.4 103.251 9 103.581 8.67C103.921 8.33 104.321 8.07 104.781 7.89C105.251 7.7 105.766 7.605 106.326 7.605C106.876 7.605 107.381 7.7 107.841 7.89C108.301 8.08 108.696 8.345 109.026 8.685C109.366 9.015 109.626 9.415 109.806 9.885C109.996 10.345 110.091 10.855 110.091 11.415C110.091 11.965 109.996 12.475 109.806 12.945C109.626 13.405 109.366 13.805 109.026 14.145C108.696 14.475 108.301 14.735 107.841 14.925C107.381 15.105 106.871 15.195 106.311 15.195ZM106.311 13.98C106.661 13.98 106.981 13.915 107.271 13.785C107.561 13.655 107.811 13.475 108.021 13.245C108.241 13.015 108.411 12.745 108.531 12.435C108.651 12.125 108.711 11.785 108.711 11.415C108.711 11.035 108.651 10.69 108.531 10.38C108.411 10.06 108.246 9.785 108.036 9.555C107.826 9.325 107.571 9.145 107.271 9.015C106.981 8.885 106.661 8.82 106.311 8.82C105.971 8.82 105.651 8.885 105.351 9.015C105.061 9.145 104.806 9.325 104.586 9.555C104.366 9.775 104.196 10.045 104.076 10.365C103.956 10.675 103.896 11.015 103.896 11.385C103.896 11.755 103.956 12.1 104.076 12.42C104.196 12.73 104.366 13.005 104.586 13.245C104.806 13.475 105.061 13.655 105.351 13.785C105.651 13.915 105.971 13.98 106.311 13.98ZM119.515 10.32C119.325 9.86 119.045 9.5 118.675 9.24C118.315 8.97 117.855 8.835 117.295 8.835C116.615 8.835 116.07 9.07 115.66 9.54C115.25 10 115.045 10.62 115.045 11.4C115.045 11.77 115.1 12.115 115.21 12.435C115.32 12.745 115.47 13.015 115.66 13.245C115.86 13.475 116.095 13.655 116.365 13.785C116.645 13.905 116.945 13.965 117.265 13.965C117.565 13.965 117.85 13.915 118.12 13.815C118.39 13.705 118.63 13.555 118.84 13.365C119.05 13.175 119.215 12.955 119.335 12.705C119.455 12.445 119.515 12.16 119.515 11.85V10.32ZM119.5 4.86C119.5 4.84 119.555 4.81 119.665 4.77C119.775 4.72 119.9 4.695 120.04 4.695C120.16 4.695 120.275 4.715 120.385 4.755C120.495 4.785 120.595 4.85 120.685 4.95C120.775 5.04 120.845 5.17 120.895 5.34C120.955 5.5 120.985 5.71 120.985 5.97V14.355C120.985 14.625 120.925 14.81 120.805 14.91C120.685 15.01 120.525 15.06 120.325 15.06H120.175C119.975 15.06 119.815 15.01 119.695 14.91C119.575 14.81 119.515 14.625 119.515 14.355V13.8C119.235 14.24 118.885 14.585 118.465 14.835C118.045 15.075 117.55 15.195 116.98 15.195C116.5 15.195 116.05 15.105 115.63 14.925C115.22 14.745 114.865 14.49 114.565 14.16C114.265 13.82 114.03 13.42 113.86 12.96C113.69 12.49 113.605 11.97 113.605 11.4C113.605 10.83 113.69 10.315 113.86 9.855C114.03 9.385 114.265 8.985 114.565 8.655C114.865 8.315 115.225 8.055 115.645 7.875C116.065 7.695 116.525 7.605 117.025 7.605C117.615 7.605 118.12 7.725 118.54 7.965C118.97 8.195 119.29 8.47 119.5 8.79V4.86ZM128.095 10.785C128.055 10.155 127.855 9.655 127.495 9.285C127.135 8.915 126.655 8.73 126.055 8.73C125.755 8.73 125.475 8.78 125.215 8.88C124.965 8.98 124.74 9.125 124.54 9.315C124.34 9.495 124.175 9.71 124.045 9.96C123.915 10.21 123.825 10.485 123.775 10.785H128.095ZM123.775 11.79C123.805 12.12 123.885 12.425 124.015 12.705C124.145 12.975 124.315 13.21 124.525 13.41C124.735 13.6 124.985 13.75 125.275 13.86C125.565 13.97 125.88 14.025 126.22 14.025C126.54 14.025 126.82 13.995 127.06 13.935C127.3 13.865 127.51 13.775 127.69 13.665C127.87 13.555 128.025 13.43 128.155 13.29C128.285 13.14 128.395 12.985 128.485 12.825C128.495 12.815 128.54 12.82 128.62 12.84C128.7 12.86 128.785 12.895 128.875 12.945C128.975 12.995 129.065 13.07 129.145 13.17C129.225 13.27 129.265 13.4 129.265 13.56C129.265 13.72 129.195 13.895 129.055 14.085C128.925 14.275 128.725 14.455 128.455 14.625C128.195 14.785 127.875 14.92 127.495 15.03C127.115 15.14 126.68 15.195 126.19 15.195C125.62 15.195 125.1 15.105 124.63 14.925C124.16 14.745 123.76 14.49 123.43 14.16C123.1 13.83 122.84 13.435 122.65 12.975C122.47 12.505 122.38 11.99 122.38 11.43C122.38 10.88 122.47 10.375 122.65 9.915C122.84 9.445 123.1 9.04 123.43 8.7C123.76 8.36 124.15 8.095 124.6 7.905C125.05 7.705 125.54 7.605 126.07 7.605C126.59 7.605 127.06 7.695 127.48 7.875C127.91 8.045 128.275 8.29 128.575 8.61C128.885 8.93 129.12 9.315 129.28 9.765C129.45 10.205 129.535 10.695 129.535 11.235V11.355C129.535 11.515 129.5 11.63 129.43 11.7C129.37 11.76 129.255 11.79 129.085 11.79H123.775ZM136.299 13.665L138.159 8.595C138.289 8.245 138.424 8.01 138.564 7.89C138.714 7.77 138.884 7.71 139.074 7.71C139.194 7.71 139.299 7.73 139.389 7.77C139.489 7.81 139.574 7.855 139.644 7.905C139.714 7.955 139.764 8.005 139.794 8.055C139.834 8.095 139.849 8.125 139.839 8.145L137.214 14.625C137.084 14.935 136.779 15.09 136.299 15.09C136.039 15.09 135.839 15.06 135.699 15C135.569 14.94 135.469 14.825 135.399 14.655L132.744 8.145C132.724 8.095 132.789 8.01 132.939 7.89C133.089 7.77 133.284 7.71 133.524 7.71C133.734 7.71 133.909 7.77 134.049 7.89C134.199 8.01 134.339 8.245 134.469 8.595L136.299 13.665ZM141.76 6.24C141.48 6.24 141.26 6.17 141.1 6.03C140.95 5.88 140.875 5.675 140.875 5.415C140.875 5.145 140.95 4.94 141.1 4.8C141.26 4.65 141.485 4.575 141.775 4.575C142.355 4.575 142.645 4.855 142.645 5.415C142.645 5.965 142.35 6.24 141.76 6.24ZM141.685 15.06C141.485 15.06 141.32 15.01 141.19 14.91C141.07 14.81 141.01 14.625 141.01 14.355V8.43C141.01 8.16 141.07 7.975 141.19 7.875C141.32 7.765 141.485 7.71 141.685 7.71H141.835C142.035 7.71 142.195 7.76 142.315 7.86C142.435 7.96 142.495 8.15 142.495 8.43V14.355C142.495 14.625 142.435 14.81 142.315 14.91C142.195 15.01 142.035 15.06 141.835 15.06H141.685ZM146.927 15.18C146.427 15.18 145.987 15.13 145.607 15.03C145.227 14.94 144.907 14.82 144.647 14.67C144.397 14.52 144.207 14.355 144.077 14.175C143.947 13.995 143.882 13.82 143.882 13.65C143.882 13.53 143.907 13.43 143.957 13.35C144.017 13.26 144.082 13.185 144.152 13.125C144.222 13.065 144.287 13.025 144.347 13.005C144.417 12.975 144.457 12.965 144.467 12.975C144.707 13.285 145.027 13.545 145.427 13.755C145.837 13.955 146.327 14.055 146.897 14.055C147.407 14.055 147.797 13.97 148.067 13.8C148.347 13.62 148.487 13.38 148.487 13.08C148.487 12.9 148.442 12.75 148.352 12.63C148.272 12.51 148.152 12.415 147.992 12.345C147.842 12.265 147.652 12.195 147.422 12.135C147.192 12.075 146.927 12.015 146.627 11.955C146.357 11.895 146.072 11.825 145.772 11.745C145.482 11.665 145.212 11.55 144.962 11.4C144.712 11.25 144.502 11.055 144.332 10.815C144.172 10.565 144.092 10.25 144.092 9.87C144.092 9.19 144.352 8.645 144.872 8.235C145.392 7.815 146.092 7.605 146.972 7.605C147.432 7.605 147.832 7.65 148.172 7.74C148.522 7.83 148.812 7.945 149.042 8.085C149.282 8.225 149.457 8.38 149.567 8.55C149.687 8.72 149.747 8.89 149.747 9.06C149.747 9.18 149.717 9.285 149.657 9.375C149.597 9.465 149.527 9.54 149.447 9.6C149.377 9.66 149.312 9.705 149.252 9.735C149.192 9.755 149.157 9.76 149.147 9.75C148.917 9.45 148.622 9.205 148.262 9.015C147.902 8.825 147.492 8.73 147.032 8.73C146.522 8.73 146.132 8.82 145.862 9C145.602 9.18 145.472 9.42 145.472 9.72C145.472 9.88 145.512 10.015 145.592 10.125C145.672 10.235 145.787 10.33 145.937 10.41C146.087 10.48 146.272 10.545 146.492 10.605C146.722 10.665 146.982 10.725 147.272 10.785C147.552 10.845 147.847 10.92 148.157 11.01C148.467 11.09 148.752 11.205 149.012 11.355C149.282 11.505 149.502 11.705 149.672 11.955C149.842 12.205 149.927 12.525 149.927 12.915C149.927 13.605 149.662 14.155 149.132 14.565C148.602 14.975 147.867 15.18 146.927 15.18ZM151.38 9C151.15 9 150.985 8.955 150.885 8.865C150.785 8.765 150.735 8.625 150.735 8.445V8.34C150.735 8.16 150.785 8.025 150.885 7.935C150.985 7.835 151.15 7.785 151.38 7.785H151.905V6.675C151.905 6.415 151.965 6.235 152.085 6.135C152.205 6.025 152.365 5.97 152.565 5.97H152.715C152.915 5.97 153.07 6.02 153.18 6.12C153.3 6.21 153.36 6.395 153.36 6.675V7.785H154.995C155.225 7.785 155.385 7.83 155.475 7.92C155.575 8.01 155.625 8.145 155.625 8.325V8.43C155.625 8.62 155.575 8.765 155.475 8.865C155.375 8.955 155.21 9 154.98 9H153.345V12.645C153.345 13.095 153.415 13.43 153.555 13.65C153.705 13.87 153.955 13.98 154.305 13.98C154.535 13.98 154.735 13.935 154.905 13.845C155.075 13.745 155.215 13.62 155.325 13.47C155.335 13.46 155.36 13.465 155.4 13.485C155.45 13.505 155.5 13.54 155.55 13.59C155.6 13.64 155.645 13.71 155.685 13.8C155.725 13.88 155.745 13.98 155.745 14.1C155.745 14.38 155.6 14.635 155.31 14.865C155.02 15.085 154.605 15.195 154.065 15.195C153.315 15.195 152.765 14.995 152.415 14.595C152.075 14.185 151.905 13.59 151.905 12.81V9H151.38ZM159.229 14.1C159.549 14.1 159.844 14.055 160.114 13.965C160.394 13.865 160.629 13.73 160.819 13.56C161.019 13.38 161.174 13.17 161.284 12.93C161.394 12.69 161.449 12.43 161.449 12.15V11.595L161.044 11.61C159.984 11.65 159.189 11.78 158.659 12C158.129 12.21 157.864 12.56 157.864 13.05C157.864 13.37 157.984 13.625 158.224 13.815C158.464 14.005 158.799 14.1 159.229 14.1ZM161.449 10.515C161.449 9.965 161.294 9.545 160.984 9.255C160.684 8.965 160.244 8.82 159.664 8.82C159.114 8.82 158.674 8.945 158.344 9.195C158.014 9.435 157.764 9.72 157.594 10.05C157.594 10.05 157.544 10.05 157.444 10.05C157.354 10.04 157.249 10.015 157.129 9.975C157.019 9.925 156.914 9.85 156.814 9.75C156.724 9.65 156.679 9.51 156.679 9.33C156.679 9.16 156.744 8.975 156.874 8.775C157.004 8.565 157.199 8.375 157.459 8.205C157.719 8.035 158.039 7.895 158.419 7.785C158.809 7.665 159.259 7.605 159.769 7.605C160.799 7.605 161.579 7.855 162.109 8.355C162.649 8.855 162.919 9.565 162.919 10.485V14.91C162.919 14.95 162.864 14.985 162.754 15.015C162.644 15.055 162.519 15.075 162.379 15.075C162.119 15.075 161.904 14.995 161.734 14.835C161.564 14.665 161.474 14.355 161.464 13.905C161.194 14.295 160.834 14.605 160.384 14.835C159.934 15.055 159.429 15.165 158.869 15.165C158.089 15.165 157.484 14.98 157.054 14.61C156.624 14.23 156.409 13.73 156.409 13.11C156.409 12.27 156.804 11.66 157.594 11.28C158.394 10.9 159.614 10.695 161.254 10.665H161.449V10.515Z" fill="#EE1D25"/>
</svg>
