<svg width="12" height="13" viewBox="0 0 12 13" fill="none" xmlns="http://www.w3.org/2000/svg">
<path d="M10.3285 1.32357C9.09165 -0.0382926 7.11437 -0.0379964 5.87784 1.32424L0.691753 7.16037C-0.245995 8.24053 -0.228074 9.97163 0.731783 11.0269C1.67585 12.0649 3.18359 12.0649 4.12765 11.0269L8.82374 5.74223C9.43424 5.05521 9.43424 3.94131 8.82374 3.2543C8.21324 2.56728 7.2234 2.56728 6.6129 3.2543L2.12099 8.30919C1.96431 8.49175 1.96881 8.78266 2.13104 8.95897C2.28929 9.13097 2.54016 9.13097 2.69842 8.95897L7.19031 3.90407C7.48818 3.58296 7.96098 3.5944 8.24631 3.9296C8.52302 4.25468 8.52302 4.76738 8.24631 5.09245L3.55024 10.3771C2.91584 11.0809 1.89456 11.0726 1.26918 10.3587C0.65012 9.65202 0.65012 8.51685 1.26918 7.81015L6.45527 1.97402C7.37905 0.934085 8.87702 0.933789 9.80113 1.97332C10.7252 3.01285 10.7255 4.69861 9.80176 5.73854L4.61564 11.5747C4.44435 11.7398 4.42439 12.0299 4.57109 12.2226C4.71779 12.4154 4.97558 12.4378 5.14687 12.2728C5.16285 12.2573 5.17774 12.2406 5.19142 12.2226L10.3775 6.38649C11.6064 4.97317 11.5844 2.70641 10.3285 1.32357Z" fill="white"/>
</svg>
